{
.appVersion = "3436";
.formatVersion = 3;
DisplayStrings = (
"̀́̋̂̌
ÓÔ̈OÖÒŐ",
"̊",
"̃",
"There's this game. You choose this guy as the running man. ",
"AÁ",
"We do not want him in memphis!",
c
);
axes = (
{
name = Weight;
tag = wght;
}
);
date = "2025-10-19 19:33:20 +0000";
familyName = "Juncture—Rounded";
fontMaster = (
{
axesValues = (
100
);
iconName = Light_SemiExtended;
id = m004;
metricValues = (
{
pos = 1360;
},
{
over = 24;
pos = 1300;
},
{
over = 24;
pos = 930;
},
{
over = -24;
},
{
over = -24;
pos = -400;
},
{
}
);
name = ExtraLight;
stemValues = (
42,
36
);
userData = {
GSCornerRadius = 15;
GSOffsetHorizontal = -16;
GSOffsetVertical = -16;
"Letterink-NibData" = {
AngleInDegrees = 45;
MainAxisWidth = 30;
MinorAxisWidth = 15;
};
};
},
{
axesValues = (
400
);
id = "1B8EDE0E-D46F-48F9-B9C6-2CD34FEA95FD";
metricValues = (
{
pos = 1360;
},
{
over = 24;
pos = 1300;
},
{
over = 24;
pos = 930;
},
{
over = -24;
},
{
over = -24;
pos = -400;
},
{
}
);
name = Regular;
stemValues = (
89,
76
);
userData = {
GSCornerRadius = 30;
"Letterink-NibData" = {
AngleInDegrees = 45;
MainAxisWidth = 30;
MinorAxisWidth = 15;
};
};
},
{
axesValues = (
600
);
iconName = Bold;
id = m005;
metricValues = (
{
pos = 1360;
},
{
over = 24;
pos = 1300;
},
{
over = 24;
pos = 930;
},
{
over = -24;
},
{
over = -24;
pos = -400;
},
{
}
);
name = Bold;
stemValues = (
134,
120
);
userData = {
GSCornerRadius = 40;
GSExtrudeAngle = 30;
GSExtrudeOffset = 15;
GSOffsetHorizontal = 15;
GSOffsetVertical = 12;
"Letterink-NibData" = {
AngleInDegrees = 45;
MainAxisWidth = 30;
MinorAxisWidth = 15;
};
};
}
);
glyphs = (
{
glyphname = A;
lastChange = "2025-11-23 11:00:37 +0000";
layers = (
{
anchors = (
{
name = bottom;
pos = (548,0);
},
{
name = ogonek;
pos = (986,10);
},
{
name = top;
pos = (548,1300);
}
);
background = {
shapes = (
{
closed = 1;
nodes = (
(47,0,l),
(120,200,l),
(408,200,l),
(481,0,l),
(521,0,l),
(285,650,l),
(244,650,l),
(7,0,l)
);
},
{
closed = 1;
nodes = (
(264,594,l),
(397,230,l),
(131,230,l)
);
}
);
};
layerId = m004;
shapes = (
{
closed = 1;
nodes = (
(852,438,l),
(246,438,l),
(246,364,l),
(852,364,l)
);
},
{
closed = 1;
nodes = (
(154,0,l),
(576,1264,l),
(521,1262,l),
(941,0,l),
(1023,0,l),
(589,1300,l),
(507,1300,l),
(73,0,l)
);
}
);
width = 1096;
},
{
anchors = (
{
name = bottom;
pos = (585,0);
},
{
name = ogonek;
pos = (1053,10);
},
{
name = top;
pos = (585,1300);
}
);
layerId = m005;
shapes = (
{
closed = 1;
nodes = (
(859,472,l),
(301,472,l),
(305,246,l),
(863,246,l)
);
},
{
closed = 1;
nodes = (
(239,0,ls),
(262,0,o),
(277,10,o),
(284,33,cs),
(645,1122,l),
(513,1122,l),
(872,33,ls),
(879,10,o),
(895,0,o),
(918,0,cs),
(1117,0,ls),
(1146,0,o),
(1159,19,o),
(1149,46,cs),
(713,1300,l),
(457,1300,l),
(21,46,ls),
(11,19,o),
(24,0,o),
(53,0,cs)
);
}
);
width = 1170;
},
{
anchors = (
{
name = bottom;
pos = (591,0);
},
{
name = ogonek;
pos = (1064,10);
},
{
name = top;
pos = (591,1300);
}
);
layerId = "1B8EDE0E-D46F-48F9-B9C6-2CD34FEA95FD";
shapes = (
{
closed = 1;
nodes = (
(874,444,l),
(304,444,l),
(306,296,l),
(876,296,l)
);
},
{
closed = 1;
nodes = (
(205,0,ls),
(222,0,o),
(234,8,o),
(239,24,cs),
(616,1140,l),
(560,1140,l),
(934,24,ls),
(939,8,o),
(951,0,o),
(968,0,cs),
(1087,0,ls),
(1109,0,o),
(1118,14,o),
(1111,34,cs),
(686,1276,ls),
(680,1292,o),
(669,1300,o),
(652,1300,cs),
(530,1300,ls),
(513,1300,o),
(502,1292,o),
(496,1276,cs),
(71,34,ls),
(64,14,o),
(73,0,o),
(95,0,cs)
);
}
);
width = 1182;
}
);
metricRight = "=|";
unicode = 65;
},
{
glyphname = AE;
lastChange = "2025-11-21 21:37:24 +0000";
layers = (
{
anchors = (
{
name = bottom;
pos = (704,0);
},
{
name = top;
pos = (704,1300);
}
);
layerId = m004;
shapes = (
{
closed = 1;
nodes = (
(165,0,l),
(365,424,l),
(781,424,l),
(781,0,l),
(1401,0,l),
(1401,72,l),
(865,72,l),
(865,640,l),
(1327,640,l),
(1327,712,l),
(865,712,l),
(865,1228,l),
(1401,1228,l),
(1401,1300,l),
(687,1300,l),
(73,0,l)
);
},
{
closed = 1;
nodes = (
(761,1262,l),
(707,1228,l),
(781,1228,l),
(781,504,l),
(403,504,l)
);
}
);
width = 1441;
},
{
anchors = (
{
name = bottom;
pos = (806,0);
},
{
name = top;
pos = (806,1300);
}
);
layerId = "1B8EDE0E-D46F-48F9-B9C6-2CD34FEA95FD";
shapes = (
{
closed = 1;
nodes = (
(256,0,l),
(436,384,l),
(828,384,l),
(828,0,l),
(1514,0,l),
(1514,148,l),
(1006,148,l),
(1006,600,l),
(1424,600,l),
(1424,752,l),
(1006,752,l),
(1006,1152,l),
(1514,1152,l),
(1514,1300,l),
(688,1300,l),
(60,0,l)
);
},
{
closed = 1;
nodes = (
(830,1224,l),
(716,1152,l),
(828,1152,l),
(828,532,l),
(506,532,l)
);
}
);
width = 1554;
},
{
anchors = (
{
name = bottom;
pos = (825,0);
},
{
name = top;
pos = (825,1300);
}
);
layerId = m005;
shapes = (
{
closed = 1;
nodes = (
(299,0,l),
(435,308,l),
(807,308,l),
(807,0,l),
(1573,0,l),
(1573,240,l),
(1075,240,l),
(1075,554,l),
(1479,554,l),
(1479,798,l),
(1075,798,l),
(1075,1060,l),
(1573,1060,l),
(1573,1300,l),
(597,1300,l),
(5,0,l)
);
},
{
closed = 1;
nodes = (
(815,1170,l),
(647,1060,l),
(807,1060,l),
(807,550,l),
(543,550,l)
);
}
);
width = 1613;
}
);
metricLeft = "=A";
metricRight = "=E";
unicode = 198;
},
{
glyphname = B;
lastChange = "2025-11-23 11:00:50 +0000";
layers = (
{
anchors = (
{
name = bottom;
pos = (569,0);
},
{
name = center;
pos = (314,390);
},
{
name = top;
pos = (569,1300);
}
);
layerId = m004;
shapes = (
{
closed = 1;
nodes = (
(654,0,l),
(654,74,l),
(284,74,l),
(284,641,l),
(652,641,l),
(652,715,l),
(284,715,l),
(284,1226,l),
(594,1226,l),
(594,1300,l),
(200,1300,l),
(200,0,l)
);
},
{
closed = 1;
nodes = (
(832,647,o),
(952,792,o),
(952,972,c),
(952,1132,o),
(856,1300,o),
(594,1300,c),
(594,1226,l),
(784,1226,o),
(870,1117,o),
(870,971,cs),
(870,825,o),
(778,715,o),
(614,715,c),
(614,647,l)
);
},
{
closed = 1;
nodes = (
(916,0,o),
(1022,140,o),
(1022,354,c),
(1022,588,o),
(850,711,o),
(652,711,c),
(652,641,l),
(872,641,o),
(940,517,o),
(940,353,cs),
(940,189,o),
(872,74,o),
(652,74,c),
(652,0,l)
);
}
);
width = 1142;
},
{
anchors = (
{
name = bottom;
pos = (495,0);
},
{
name = center;
pos = (215,390);
},
{
name = top;
pos = (495,1300);
}
);
layerId = m005;
shapes = (
{
closed = 1;
nodes = (
(501,0,l),
(501,228,l),
(373,228,ls),
(347,228,o),
(333,242,o),
(333,268,cs),
(333,532,ls),
(333,558,o),
(347,572,o),
(373,572,cs),
(563,572,l),
(563,776,l),
(373,776,ls),
(347,776,o),
(333,790,o),
(333,816,cs),
(333,1032,ls),
(333,1058,o),
(347,1072,o),
(373,1072,cs),
(483,1072,l),
(483,1300,l),
(105,1300,ls),
(79,1300,o),
(65,1286,o),
(65,1260,cs),
(65,40,ls),
(65,14,o),
(79,0,o),
(105,0,cs)
);
},
{
closed = 1;
nodes = (
(817,0,o),
(983,140,o),
(983,400,cs),
(983,692,o),
(681,760,o),
(481,760,c),
(481,572,l),
(643,572,o),
(715,500,o),
(715,400,cs),
(715,300,o),
(643,228,o),
(501,228,c),
(501,0,l)
);
},
{
closed = 1;
nodes = (
(755,588,o),
(925,690,o),
(925,920,cs),
(925,1114,o),
(773,1300,o),
(483,1300,c),
(483,1072,l),
(611,1072,o),
(657,1006,o),
(657,924,cs),
(657,848,o),
(611,776,o),
(483,776,c),
(483,588,l)
);
}
);
width = 1011;
},
{
anchors = (
{
name = bottom;
pos = (516,0);
},
{
name = center;
pos = (246,390);
},
{
name = top;
pos = (516,1300);
}
);
layerId = "1B8EDE0E-D46F-48F9-B9C6-2CD34FEA95FD";
shapes = (
{
closed = 1;
nodes = (
(568,0,l),
(568,140,l),
(288,140,l),
(288,588,l),
(590,588,l),
(590,728,l),
(288,728,l),
(288,1156,l),
(552,1156,l),
(552,1300,l),
(140,1300,ls),
(121,1300,o),
(110,1290,o),
(110,1270,cs),
(110,30,ls),
(110,11,o),
(121,0,o),
(140,0,cs)
);
},
{
closed = 1;
nodes = (
(826,618,o),
(936,740,o),
(936,942,cs),
(936,1142,o),
(812,1300,o),
(552,1300,c),
(552,1156,l),
(718,1156,o),
(760,1034,o),
(760,946,cs),
(760,856,o),
(704,728,o),
(552,728,c),
(552,618,l)
);
},
{
closed = 1;
nodes = (
(864,0,o),
(998,114,o),
(998,360,cs),
(998,612,o),
(776,722,o),
(568,722,c),
(568,588,l),
(790,588,o),
(834,482,o),
(834,362,cs),
(834,242,o),
(790,140,o),
(568,140,c),
(568,0,l)
);
}
);
width = 1026;
}
);
metricLeft = "=H";
unicode = 66;
},
{
glyphname = C;
lastChange = "2025-11-23 11:01:03 +0000";
layers = (
{
anchors = (
{
name = bottom;
pos = (591,0);
},
{
name = top;
pos = (591,1300);
}
);
background = {
shapes = (
{
closed = 1;
nodes = (
(436,-12,o),
(573,43,o),
(573,215,c),
(531,215,l),
(531,77,o),
(428,22,o),
(339,23,cs),
(250,24,o),
(147,77,o),
(147,215,c),
(147,425,l),
(147,573,o),
(250,626,o),
(339,627,cs),
(428,628,o),
(531,573,o),
(531,425,c),
(573,425,l),
(573,607,o),
(436,662,o),
(339,662,cs),
(243,662,o),
(105,607,o),
(105,425,c),
(105,215,l),
(105,43,o),
(243,-12,o),
(339,-12,cs)
);
}
);
};
layerId = m004;
shapes = (
{
closed = 1;
nodes = (
(791,-24,o),
(1043,70,o),
(1069,378,c),
(987,378,l),
(965,138,o),
(775,42,o),
(603,44,cs),
(425,46,o),
(219,154,o),
(219,430,c),
(219,850,l),
(219,1146,o),
(425,1254,o),
(603,1256,cs),
(781,1258,o),
(959,1156,o),
(987,900,c),
(1071,900,l),
(1043,1224,o),
(797,1324,o),
(603,1324,cs),
(411,1324,o),
(135,1214,o),
(135,850,c),
(135,430,l),
(135,86,o),
(411,-24,o),
(603,-24,cs)
);
}
);
width = 1206;
},
{
anchors = (
{
name = bottom;
pos = (584,0);
},
{
name = top;
pos = (584,1300);
}
);
background = {
shapes = (
{
closed = 1;
nodes = (
(477,265,l),
(477,105,o),
(394,75,o),
(321,76,cs),
(248,77,o),
(165,105,o),
(165,265,cs),
(165,385,ls),
(165,545,o),
(248,573,o),
(321,574,cs),
(394,575,o),
(477,545,o),
(477,385,c),
(577,385,l),
(577,607,o),
(431,662,o),
(321,662,cs),
(212,662,o),
(65,607,o),
(65,385,cs),
(65,265,ls),
(65,43,o),
(212,-12,o),
(321,-12,cs),
(431,-12,o),
(577,43,o),
(577,265,c)
);
}
);
};
layerId = m005;
shapes = (
{
closed = 1;
nodes = (
(826,-24,o),
(1080,97,o),
(1119,396,cs),
(1124,430,o),
(1108,450,o),
(1082,450,cs),
(894,450,ls),
(869,450,o),
(856,437,o),
(852,411,cs),
(828,252,o),
(724,202,o),
(592,204,cs),
(454,206,o),
(318,254,o),
(318,554,cs),
(318,746,ls),
(318,1046,o),
(454,1094,o),
(592,1096,cs),
(722,1098,o),
(820,1044,o),
(853,887,cs),
(859,862,o),
(873,850,o),
(897,850,cs),
(1084,850,ls),
(1111,850,o),
(1125,866,o),
(1122,893,cs),
(1079,1200,o),
(820,1324,o),
(592,1324,cs),
(364,1324,o),
(50,1208,o),
(50,746,cs),
(50,554,ls),
(50,92,o),
(364,-24,o),
(592,-24,cs)
);
}
);
width = 1176;
},
{
anchors = (
{
name = bottom;
pos = (578,0);
},
{
name = top;
pos = (578,1300);
}
);
layerId = "1B8EDE0E-D46F-48F9-B9C6-2CD34FEA95FD";
shapes = (
{
closed = 1;
nodes = (
(792,-24,o),
(1025,85,o),
(1067,354,cs),
(1071,381,o),
(1060,396,o),
(1040,396,cs),
(924,396,ls),
(906,396,o),
(895,386,o),
(892,368,cs),
(860,191,o),
(727,128,o),
(582,130,cs),
(428,132,o),
(258,198,o),
(258,506,c),
(258,790,l),
(258,1100,o),
(428,1166,o),
(582,1168,cs),
(729,1170,o),
(854,1103,o),
(893,925,cs),
(897,907,o),
(907,898,o),
(925,898,cs),
(1042,898,ls),
(1062,898,o),
(1073,910,o),
(1070,930,cs),
(1024,1216,o),
(786,1324,o),
(582,1324,cs),
(370,1324,o),
(80,1214,o),
(80,790,c),
(80,506,l),
(80,86,o),
(370,-24,o),
(582,-24,cs)
);
}
);
width = 1154;
}
);
metricLeft = O;
metricRight = "=|";
unicode = 67;
},
{
glyphname = D;
lastChange = "2025-11-23 11:01:09 +0000";
layers = (
{
anchors = (
{
name = bottom;
pos = (583,0);
},
{
name = center;
pos = (321,650);
},
{
name = top;
pos = (583,1300);
}
);
layerId = m004;
shapes = (
{
closed = 1;
nodes = (
(284,1228,l),
(548,1228,ls),
(724,1228,o),
(908,1120,o),
(908,846,cs),
(908,434,ls),
(908,180,o),
(724,72,o),
(548,72,cs),
(284,72,l)
);
},
{
closed = 1;
nodes = (
(548,0,ls),
(740,0,o),
(990,114,o),
(990,434,cs),
(990,846,ls),
(990,1186,o),
(740,1298,o),
(548,1298,cs),
(200,1300,l),
(200,0,l)
);
}
);
width = 1125;
},
{
anchors = (
{
name = bottom;
pos = (547,24);
},
{
name = center;
pos = (241,674);
},
{
name = top;
pos = (547,1324);
}
);
layerId = m005;
shapes = (
{
closed = 1;
nodes = (
(333,1032,ls),
(333,1058,o),
(347,1072,o),
(373,1072,cs),
(523,1072,ls),
(681,1072,o),
(821,1018,o),
(821,722,cs),
(821,578,ls),
(821,280,o),
(681,226,o),
(523,226,cs),
(373,226,ls),
(347,226,o),
(333,240,o),
(333,266,cs)
);
},
{
closed = 1;
nodes = (
(543,0,ls),
(769,0,o),
(1089,94,o),
(1089,578,cs),
(1089,722,ls),
(1089,1206,o),
(769,1300,o),
(543,1300,cs),
(105,1300,ls),
(79,1300,o),
(65,1286,o),
(65,1260,cs),
(65,40,ls),
(65,14,o),
(79,0,o),
(105,0,cs)
);
}
);
width = 1139;
},
{
anchors = (
{
name = bottom;
pos = (552,0);
},
{
name = center;
pos = (264,650);
},
{
name = top;
pos = (552,1300);
}
);
layerId = "1B8EDE0E-D46F-48F9-B9C6-2CD34FEA95FD";
shapes = (
{
closed = 1;
nodes = (
(288,1146,l),
(514,1146,ls),
(684,1144,o),
(854,1076,o),
(854,766,cs),
(854,530,ls),
(854,222,o),
(680,154,o),
(514,154,cs),
(288,152,l)
);
},
{
closed = 1;
nodes = (
(528,0,ls),
(740,0,o),
(1032,96,o),
(1032,530,cs),
(1032,766,ls),
(1032,1204,o),
(742,1298,o),
(528,1300,cs),
(140,1300,ls),
(121,1300,o),
(110,1290,o),
(110,1270,cs),
(110,30,ls),
(110,11,o),
(121,0,o),
(140,0,cs)
);
}
);
width = 1112;
}
);
metricLeft = "=H";
metricRight = "=O";
unicode = 68;
},
{
glyphname = E;
lastChange = "2025-11-23 11:01:27 +0000";
layers = (
{
anchors = (
{
name = bottom;
pos = (490,0);
},
{
name = ogonek;
pos = (834,10);
},
{
name = top;
pos = (490,1300);
},
{
name = topleft;
pos = (80,1300);
}
);
layerId = m004;
shapes = (
{
closed = 1;
nodes = (
(880,0,l),
(880,71,l),
(284,71,l),
(284,640,l),
(746,640,l),
(746,712,l),
(284,712,l),
(284,1229,l),
(880,1229,l),
(880,1300,l),
(200,1300,l),
(200,0,l)
);
}
);
width = 920;
},
{
anchors = (
{
name = bottom;
pos = (453,0);
},
{
name = ogonek;
pos = (867,20);
},
{
name = top;
pos = (453,1300);
},
{
name = topleft;
pos = (-25,1300);
}
);
layerId = m005;
shapes = (
{
closed = 1;
nodes = (
(851,0,ls),
(877,0,o),
(891,14,o),
(891,40,cs),
(891,200,ls),
(891,226,o),
(877,240,o),
(851,240,cs),
(373,240,ls),
(347,240,o),
(333,254,o),
(333,280,cs),
(333,514,ls),
(333,540,o),
(347,554,o),
(373,554,cs),
(697,554,ls),
(723,554,o),
(737,568,o),
(737,594,cs),
(737,758,ls),
(737,784,o),
(723,798,o),
(697,798,cs),
(373,798,ls),
(347,798,o),
(333,812,o),
(333,838,cs),
(333,1020,ls),
(333,1046,o),
(347,1060,o),
(373,1060,cs),
(851,1060,ls),
(877,1060,o),
(891,1074,o),
(891,1100,cs),
(891,1260,ls),
(891,1286,o),
(877,1300,o),
(851,1300,cs),
(105,1300,ls),
(79,1300,o),
(65,1286,o),
(65,1260,cs),
(65,40,ls),
(65,14,o),
(79,0,o),
(105,0,cs)
);
}
);
width = 931;
},
{
anchors = (
{
name = bottom;
pos = (456,0);
},
{
name = ogonek;
pos = (840,20);
},
{
name = top;
pos = (456,1300);
},
{
name = topleft;
pos = (16,1300);
}
);
layerId = "1B8EDE0E-D46F-48F9-B9C6-2CD34FEA95FD";
shapes = (
{
closed = 1;
nodes = (
(826,0,ls),
(845,0,o),
(856,11,o),
(856,30,cs),
(856,118,ls),
(856,138,o),
(845,148,o),
(826,148,cs),
(288,148,l),
(288,600,l),
(676,600,ls),
(695,600,o),
(706,611,o),
(706,630,cs),
(706,722,ls),
(706,742,o),
(695,752,o),
(676,752,cs),
(288,752,l),
(288,1152,l),
(826,1152,ls),
(845,1152,o),
(856,1163,o),
(856,1182,cs),
(856,1270,ls),
(856,1290,o),
(845,1300,o),
(826,1300,cs),
(140,1300,ls),
(121,1300,o),
(110,1290,o),
(110,1270,cs),
(110,30,ls),
(110,11,o),
(121,0,o),
(140,0,cs)
);
}
);
width = 896;
}
);
metricLeft = "=H";
metricRight = "=40";
unicode = 69;
},
{
glyphname = F;
lastChange = "2025-11-23 11:01:40 +0000";
layers = (
{
anchors = (
{
name = bottom;
pos = (480,0);
},
{
name = top;
pos = (480,1300);
}
);
layerId = m004;
shapes = (
{
closed = 1;
nodes = (
(284,0,l),
(284,580,l),
(746,580,l),
(746,652,l),
(284,652,l),
(284,1228,l),
(880,1228,l),
(880,1300,l),
(200,1300,l),
(200,0,l)
);
}
);
width = 900;
},
{
anchors = (
{
name = bottom;
pos = (443,-236);
},
{
name = top;
pos = (443,1064);
}
);
layerId = m005;
shapes = (
{
closed = 1;
nodes = (
(293,0,ls),
(319,0,o),
(333,14,o),
(333,40,cs),
(333,432,ls),
(333,458,o),
(347,472,o),
(373,472,cs),
(697,472,ls),
(723,472,o),
(737,486,o),
(737,512,cs),
(737,676,ls),
(737,702,o),
(723,716,o),
(697,716,cs),
(373,716,ls),
(347,716,o),
(333,730,o),
(333,756,cs),
(333,1020,ls),
(333,1046,o),
(347,1060,o),
(373,1060,cs),
(851,1060,ls),
(877,1060,o),
(891,1074,o),
(891,1100,cs),
(891,1260,ls),
(891,1286,o),
(877,1300,o),
(851,1300,cs),
(105,1300,ls),
(79,1300,o),
(65,1286,o),
(65,1260,cs),
(65,40,ls),
(65,14,o),
(79,0,o),
(105,0,cs)
);
}
);
width = 911;
},
{
anchors = (
{
name = bottom;
pos = (446,0);
},
{
name = top;
pos = (446,1300);
}
);
layerId = "1B8EDE0E-D46F-48F9-B9C6-2CD34FEA95FD";
shapes = (
{
closed = 1;
nodes = (
(288,0,l),
(288,500,l),
(676,500,ls),
(695,500,o),
(706,510,o),
(706,530,cs),
(706,624,ls),
(706,644,o),
(695,654,o),
(676,654,cs),
(288,654,l),
(288,1146,l),
(826,1146,ls),
(845,1146,o),
(856,1156,o),
(856,1176,cs),
(856,1270,ls),
(856,1290,o),
(845,1300,o),
(826,1300,cs),
(140,1300,ls),
(121,1300,o),
(110,1290,o),
(110,1270,cs),
(110,30,ls),
(110,11,o),
(121,0,o),
(140,0,cs)
);
}
);
width = 876;
}
);
metricLeft = "=H";
metricRight = "=E-20";
unicode = 70;
},
{
glyphname = G;
lastChange = "2025-11-23 11:01:55 +0000";
layers = (
{
anchors = (
{
name = bottom;
pos = (611,0);
},
{
name = top;
pos = (611,1300);
}
);
background = {
shapes = (
{
closed = 0;
nodes = (
(634,325,ls),
(634,525,o),
(545,631,o),
(384,630,cs)
);
},
{
closed = 0;
nodes = (
(384,662,ls),
(558,662,o),
(673,567,o),
(673,325,cs)
);
}
);
};
layerId = m004;
shapes = (
{
closed = 1;
nodes = (
(1069,0,l),
(1069,652,l),
(735,652,l),
(735,580,l),
(987,580,l),
(985,172,l),
(985,152,l),
(1005,0,l)
);
},
{
closed = 1;
nodes = (
(791,-24,o),
(1005,34,o),
(1029,378,c),
(987,378,l),
(961,142,o),
(775,44,o),
(603,46,cs),
(425,48,o),
(219,154,o),
(219,430,c),
(219,850,l),
(219,1146,o),
(425,1252,o),
(603,1254,cs),
(781,1256,o),
(959,1156,o),
(987,900,c),
(1071,900,l),
(1043,1224,o),
(797,1324,o),
(603,1324,cs),
(411,1324,o),
(135,1214,o),
(135,850,c),
(135,430,l),
(135,86,o),
(411,-24,o),
(603,-24,cs)
);
}
);
width = 1231;
},
{
anchors = (
{
name = bottom;
pos = (598,12);
},
{
name = top;
pos = (598,1312);
}
);
background = {
shapes = (
{
closed = 1;
nodes = (
(467,201,l),
(453,108,o),
(394,77,o),
(321,78,cs),
(248,79,o),
(169,105,o),
(169,265,cs),
(169,385,ls),
(169,545,o),
(248,571,o),
(321,572,cs),
(394,573,o),
(452,540,o),
(468,449,c),
(572,449,l),
(555,600,o),
(431,662,o),
(321,662,cs),
(212,662,o),
(65,607,o),
(65,385,cs),
(65,265,ls),
(65,43,o),
(212,-12,o),
(321,-12,cs),
(436,-12,o),
(555,50,o),
(571,201,c)
);
}
);
};
guides = (
{
pos = (310,-100);
}
);
layerId = m005;
shapes = (
{
closed = 1;
nodes = (
(700,-24,o),
(785,-2,o),
(848,47,cs),
(867,62,o),
(883,57,o),
(888,31,cs),
(888,31,ls),
(893,8,o),
(908,-4,o),
(932,-4,cs),
(1082,-4,ls),
(1108,-4,o),
(1122,10,o),
(1122,36,cs),
(1122,636,ls),
(1122,662,o),
(1108,676,o),
(1082,676,cs),
(720,676,ls),
(694,676,o),
(680,662,o),
(680,636,cs),
(680,506,ls),
(680,480,o),
(694,466,o),
(720,466,cs),
(854,466,l),
(854,457,ls),
(852,327,o),
(769,202,o),
(592,204,cs),
(454,206,o),
(318,254,o),
(318,554,cs),
(318,746,ls),
(318,1046,o),
(454,1094,o),
(592,1096,cs),
(722,1098,o),
(820,1044,o),
(853,887,cs),
(859,862,o),
(873,850,o),
(897,850,cs),
(1084,850,ls),
(1111,850,o),
(1125,866,o),
(1122,893,cs),
(1079,1200,o),
(820,1324,o),
(592,1324,cs),
(364,1324,o),
(50,1208,o),
(50,746,cs),
(50,554,ls),
(50,92,o),
(364,-24,o),
(592,-24,cs)
);
}
);
width = 1226;
},
{
anchors = (
{
name = bottom;
pos = (578,12);
},
{
name = top;
pos = (578,1312);
}
);
layerId = "1B8EDE0E-D46F-48F9-B9C6-2CD34FEA95FD";
shapes = (
{
closed = 1;
nodes = (
(1042,0,ls),
(1061,0,o),
(1072,11,o),
(1072,30,cs),
(1072,624,ls),
(1072,644,o),
(1061,654,o),
(1042,654,cs),
(688,654,ls),
(669,654,o),
(658,644,o),
(658,624,cs),
(658,538,ls),
(658,519,o),
(669,508,o),
(688,508,cs),
(896,508,l),
(896,124,l),
(910,114,l),
(921,28,ls),
(923,10,o),
(934,0,o),
(952,0,cs)
);
},
{
closed = 1;
nodes = (
(802,-22,o),
(988,94,o),
(1020,398,c),
(896,398,l),
(888,238,o),
(762,128,o),
(582,130,cs),
(406,134,o),
(258,236,o),
(258,508,c),
(258,792,l),
(258,1102,o),
(428,1168,o),
(582,1170,cs),
(729,1172,o),
(854,1105,o),
(893,927,cs),
(897,909,o),
(907,900,o),
(925,900,cs),
(1042,900,ls),
(1062,900,o),
(1073,912,o),
(1070,932,cs),
(1024,1218,o),
(786,1326,o),
(582,1326,cs),
(370,1326,o),
(80,1216,o),
(80,792,c),
(80,508,l),
(80,134,o),
(328,-22,o),
(582,-22,cs)
);
}
);
width = 1149;
}
);
metricLeft = "=O";
unicode = 71;
},
{
glyphname = H;
lastChange = "2025-11-23 11:01:59 +0000";
layers = (
{
anchors = (
{
name = bottom;
pos = (628,0);
},
{
name = center;
pos = (628,1038);
},
{
name = top;
pos = (628,1300);
},
{
name = topleft;
pos = (80,1300);
}
);
layerId = m004;
shapes = (
{
closed = 1;
nodes = (
(200,2,l),
(284,2,l),
(284,628,l),
(972,628,l),
(972,2,l),
(1056,2,l),
(1056,1298,l),
(972,1298,l),
(972,700,l),
(284,700,l),
(284,1298,l),
(200,1298,l)
);
}
);
width = 1256;
},
{
anchors = (
{
name = bottom;
pos = (569,0);
},
{
name = center;
pos = (569,1040);
},
{
name = top;
pos = (569,1300);
},
{
name = topleft;
pos = (-25,1300);
}
);
layerId = m005;
shapes = (
{
closed = 1;
nodes = (
(65,40,ls),
(65,14,o),
(79,0,o),
(105,0,cs),
(293,0,ls),
(319,0,o),
(333,14,o),
(333,40,cs),
(333,556,l),
(805,556,l),
(805,40,ls),
(805,14,o),
(819,0,o),
(845,0,cs),
(1033,0,ls),
(1059,0,o),
(1073,14,o),
(1073,40,cs),
(1073,1260,ls),
(1073,1286,o),
(1059,1300,o),
(1033,1300,cs),
(845,1300,ls),
(819,1300,o),
(805,1286,o),
(805,1260,cs),
(805,800,l),
(333,800,l),
(333,1260,ls),
(333,1286,o),
(319,1300,o),
(293,1300,cs),
(105,1300,ls),
(79,1300,o),
(65,1286,o),
(65,1260,cs)
);
}
);
width = 1138;
},
{
anchors = (
{
name = bottom;
pos = (574,-2);
},
{
name = center;
pos = (574,1038);
},
{
name = top;
pos = (574,1298);
},
{
name = topleft;
pos = (16,1298);
}
);
layerId = "1B8EDE0E-D46F-48F9-B9C6-2CD34FEA95FD";
shapes = (
{
closed = 1;
nodes = (
(110,32,ls),
(110,12,o),
(121,2,o),
(140,2,cs),
(258,2,ls),
(277,2,o),
(288,13,o),
(288,32,cs),
(288,590,l),
(858,590,l),
(858,32,ls),
(858,13,o),
(869,2,o),
(888,2,cs),
(1006,2,ls),
(1025,2,o),
(1036,13,o),
(1036,32,cs),
(1036,1268,ls),
(1036,1288,o),
(1025,1298,o),
(1006,1298,cs),
(888,1298,ls),
(869,1298,o),
(858,1288,o),
(858,1268,cs),
(858,742,l),
(288,742,l),
(288,1268,ls),
(288,1288,o),
(277,1298,o),
(258,1298,cs),
(140,1298,ls),
(121,1298,o),
(110,1288,o),
(110,1268,cs)
);
}
);
width = 1146;
}
);
metricRight = "=|";
unicode = 72;
},
{
glyphname = I;
lastChange = "2025-11-23 11:02:05 +0000";
layers = (
{
anchors = (
{
name = bottom;
pos = (241,0);
},
{
name = ogonek;
pos = (386,10);
},
{
name = top;
pos = (241,1300);
},
{
name = topleft;
pos = (80,1300);
}
);
layerId = m004;
shapes = (
{
closed = 1;
nodes = (
(200,1300,l),
(200,0,l),
(282,0,l),
(282,1300,l)
);
}
);
width = 482;
},
{
anchors = (
{
name = bottom;
pos = (199,12);
},
{
name = ogonek;
pos = (411,32);
},
{
name = top;
pos = (199,1312);
},
{
name = topleft;
pos = (-25,1312);
}
);
layerId = m005;
shapes = (
{
closed = 1;
nodes = (
(105,1300,ls),
(79,1300,o),
(65,1286,o),
(65,1260,cs),
(65,40,ls),
(65,14,o),
(79,0,o),
(105,0,cs),
(293,0,ls),
(319,0,o),
(333,14,o),
(333,40,cs),
(333,1260,ls),
(333,1286,o),
(319,1300,o),
(293,1300,cs)
);
}
);
width = 398;
},
{
anchors = (
{
name = bottom;
pos = (200,0);
},
{
name = ogonek;
pos = (378,20);
},
{
name = top;
pos = (200,1300);
},
{
name = topleft;
pos = (16,1300);
}
);
layerId = "1B8EDE0E-D46F-48F9-B9C6-2CD34FEA95FD";
shapes = (
{
closed = 1;
nodes = (
(140,1300,ls),
(121,1300,o),
(110,1290,o),
(110,1270,cs),
(110,30,ls),
(110,11,o),
(121,0,o),
(140,0,cs),
(258,0,ls),
(277,0,o),
(288,10,o),
(288,30,cs),
(288,1270,ls),
(288,1290,o),
(277,1300,o),
(258,1300,cs)
);
}
);
width = 398;
}
);
metricLeft = H;
metricRight = H;
unicode = 73;
},
{
glyphname = J;
lastChange = "2025-11-23 11:02:08 +0000";
layers = (
{
anchors = (
{
name = bottom;
pos = (421,0);
},
{
name = top;
pos = (421,1300);
}
);
layerId = m004;
shapes = (
{
closed = 1;
nodes = (
(577,-24,o),
(674,75,o),
(674,296,cs),
(676,1300,l),
(592,1300,l),
(590,296,ls),
(590,130,o),
(523,47,o),
(378,47,cs),
(233,47,o),
(152,132,o),
(152,296,c),
(152,394,l),
(70,394,l),
(70,296,l),
(70,85,o),
(170,-24,o),
(378,-24,cs)
);
}
);
width = 836;
},
{
anchors = (
{
name = bottom;
pos = (473,12);
},
{
name = top;
pos = (473,1312);
}
);
layerId = m005;
shapes = (
{
closed = 1;
nodes = (
(643,-24,o),
(837,60,o),
(837,378,cs),
(837,1260,ls),
(837,1286,o),
(823,1300,o),
(797,1300,cs),
(609,1300,ls),
(583,1300,o),
(569,1286,o),
(569,1260,cs),
(569,378,ls),
(569,260,o),
(507,210,o),
(423,210,cs),
(339,210,o),
(279,260,o),
(279,378,cs),
(279,402,ls),
(279,428,o),
(265,442,o),
(239,442,cs),
(61,442,ls),
(35,442,o),
(21,428,o),
(21,402,cs),
(21,378,ls),
(21,60,o),
(211,-24,o),
(427,-24,cs)
);
}
);
width = 902;
},
{
anchors = (
{
name = bottom;
pos = (445,12);
},
{
name = top;
pos = (445,1312);
}
);
layerId = "1B8EDE0E-D46F-48F9-B9C6-2CD34FEA95FD";
shapes = (
{
closed = 1;
nodes = (
(589,-24,o),
(763,72,o),
(763,344,cs),
(763,1270,ls),
(763,1290,o),
(752,1300,o),
(733,1300,cs),
(615,1300,ls),
(596,1300,o),
(585,1289,o),
(585,1270,cs),
(585,344,ls),
(585,176,o),
(497,128,o),
(397,128,cs),
(297,128,o),
(211,176,o),
(211,344,c),
(211,364,ls),
(211,384,o),
(200,394,o),
(181,394,cs),
(75,394,ls),
(56,394,o),
(45,383,o),
(45,364,cs),
(45,344,l),
(45,72,o),
(227,-24,o),
(397,-24,cs)
);
}
);
width = 853;
}
);
unicode = 74;
},
{
glyphname = K;
lastChange = "2025-11-23 11:02:14 +0000";
layers = (
{
anchors = (
{
name = bottom;
pos = (581,0);
},
{
name = top;
pos = (581,1300);
}
);
layerId = m004;
shapes = (
{
closed = 1;
nodes = (
(284,2,l),
(284,552,l),
(224,386,l),
(516,730,l),
(488,742,l),
(964,0,l),
(1062,0,l),
(538,818,l),
(530,742,l),
(1006,1300,l),
(904,1300,l),
(219,502,l),
(284,492,l),
(284,1300,l),
(200,1300,l),
(200,2,l)
);
}
);
width = 1127;
},
{
anchors = (
{
name = bottom;
pos = (527,0);
},
{
name = top;
pos = (527,1300);
}
);
layerId = m005;
shapes = (
{
closed = 1;
nodes = (
(333,0,l),
(333,520,l),
(271,356,l),
(533,656,l),
(423,666,l),
(819,0,l),
(1111,0,l),
(595,868,l),
(581,718,l),
(1083,1300,l),
(771,1300,l),
(263,726,l),
(333,702,l),
(333,1300,l),
(65,1300,l),
(65,0,l)
);
}
);
width = 1211;
},
{
anchors = (
{
name = bottom;
pos = (518,-310);
},
{
name = top;
pos = (518,990);
}
);
layerId = "1B8EDE0E-D46F-48F9-B9C6-2CD34FEA95FD";
shapes = (
{
closed = 1;
nodes = (
(258,0,ls),
(277,0,o),
(288,11,o),
(288,30,cs),
(288,534,l),
(228,368,l),
(526,720,l),
(428,768,l),
(850,21,ls),
(858,6,o),
(870,0,o),
(886,0,cs),
(1017,0,ls),
(1040,0,o),
(1050,16,o),
(1038,36,cs),
(546,902,l),
(520,710,l),
(972,1263,ls),
(988,1283,o),
(980,1300,o),
(955,1300,cs),
(827,1300,ls),
(812,1300,o),
(801,1295,o),
(791,1283,cs),
(226,620,l),
(288,596,l),
(288,1270,ls),
(288,1290,o),
(277,1300,o),
(258,1300,cs),
(140,1300,ls),
(121,1300,o),
(110,1290,o),
(110,1270,cs),
(110,30,ls),
(110,11,o),
(121,0,o),
(140,0,cs)
);
}
);
width = 1088;
}
);
metricLeft = "=H";
unicode = 75;
},
{
glyphname = L;
lastChange = "2025-11-23 11:02:20 +0000";
layers = (
{
anchors = (
{
name = bottom;
pos = (483,0);
},
{
name = center;
pos = (483,650);
},
{
name = top;
pos = (483,1300);
},
{
name = topright;
pos = (886,1300);
}
);
layerId = m004;
shapes = (
{
closed = 1;
nodes = (
(846,0,l),
(846,72,l),
(282,72,l),
(282,1300,l),
(200,1300,l),
(200,0,l)
);
}
);
width = 896;
},
{
anchors = (
{
name = bottom;
pos = (439,0);
},
{
name = center;
pos = (439,650);
},
{
name = top;
pos = (439,1300);
},
{
name = topright;
pos = (901,1300);
}
);
layerId = m005;
shapes = (
{
closed = 1;
nodes = (
(861,0,ls),
(887,0,o),
(901,14,o),
(901,40,cs),
(901,200,ls),
(901,226,o),
(887,240,o),
(861,240,cs),
(333,240,l),
(333,1260,ls),
(333,1286,o),
(319,1300,o),
(293,1300,cs),
(105,1300,ls),
(79,1300,o),
(65,1286,o),
(65,1260,cs),
(65,40,ls),
(65,14,o),
(79,0,o),
(105,0,cs)
);
}
);
width = 1001;
},
{
anchors = (
{
name = bottom;
pos = (446,0);
},
{
name = center;
pos = (446,650);
},
{
name = top;
pos = (446,1300);
},
{
name = topright;
pos = (876,1300);
}
);
layerId = "1B8EDE0E-D46F-48F9-B9C6-2CD34FEA95FD";
shapes = (
{
closed = 1;
nodes = (
(824,0,ls),
(843,0,o),
(854,11,o),
(854,30,cs),
(854,122,ls),
(854,142,o),
(843,152,o),
(824,152,cs),
(288,152,l),
(288,1270,ls),
(288,1290,o),
(277,1300,o),
(258,1300,cs),
(140,1300,ls),
(121,1300,o),
(110,1290,o),
(110,1270,cs),
(110,30,ls),
(110,11,o),
(121,0,o),
(140,0,cs)
);
}
);
width = 904;
}
);
metricLeft = "=H";
unicode = 76;
},
{
glyphname = Lslash;
lastChange = "2025-11-21 20:58:09 +0000";
layers = (
{
layerId = m004;
shapes = (
{
ref = L;
},
{
closed = 1;
nodes = (
(51,388,l),
(641,622,l),
(641,702,l),
(51,468,l)
);
}
);
width = 499;
},
{
layerId = "1B8EDE0E-D46F-48F9-B9C6-2CD34FEA95FD";
shapes = (
{
ref = L;
},
{
closed = 1;
nodes = (
(41,388,l),
(677,640,l),
(677,806,l),
(41,554,l)
);
}
);
width = 510;
},
{
layerId = m005;
shapes = (
{
ref = L;
},
{
closed = 1;
nodes = (
(21,388,l),
(789,696,l),
(789,950,l),
(21,642,l)
);
}
);
width = 503;
}
);
unicode = 321;
},
{
glyphname = M;
lastChange = "2025-11-23 11:02:31 +0000";
layers = (
{
anchors = (
{
name = bottom;
pos = (676,0);
},
{
name = top;
pos = (676,1300);
}
);
layerId = m004;
shapes = (
{
closed = 1;
nodes = (
(284,0,l),
(284,1258,l),
(234,1230,l),
(664,276,l),
(730,276,l),
(1158,1230,l),
(1108,1258,l),
(1108,0,l),
(1192,0,l),
(1192,1300,l),
(1108,1300,l),
(680,356,l),
(712,356,l),
(284,1300,l),
(200,1300,l),
(200,0,l)
);
}
);
width = 1392;
},
{
anchors = (
{
name = bottom;
pos = (705,0);
},
{
name = top;
pos = (705,1300);
}
);
layerId = m005;
shapes = (
{
closed = 1;
nodes = (
(293,0,ls),
(319,0,o),
(333,14,o),
(333,40,cs),
(333,1040,l),
(237,956,l),
(583,241,ls),
(593,220,o),
(608,212,o),
(630,212,cs),
(780,212,ls),
(802,212,o),
(817,220,o),
(827,241,cs),
(1173,956,l),
(1077,1040,l),
(1077,40,ls),
(1077,14,o),
(1091,0,o),
(1117,0,cs),
(1305,0,ls),
(1331,0,o),
(1345,14,o),
(1345,40,cs),
(1345,1260,ls),
(1345,1286,o),
(1331,1300,o),
(1305,1300,cs),
(1125,1300,ls),
(1103,1300,o),
(1088,1291,o),
(1078,1271,cs),
(627,390,l),
(783,390,l),
(334,1271,ls),
(324,1291,o),
(309,1300,o),
(287,1300,cs),
(105,1300,ls),
(79,1300,o),
(65,1286,o),
(65,1260,cs),
(65,40,ls),
(65,14,o),
(79,0,o),
(105,0,cs)
);
}
);
width = 1410;
},
{
anchors = (
{
name = bottom;
pos = (698,-1);
},
{
name = top;
pos = (698,1299);
}
);
layerId = "1B8EDE0E-D46F-48F9-B9C6-2CD34FEA95FD";
shapes = (
{
closed = 1;
nodes = (
(258,1,ls),
(277,1,o),
(288,12,o),
(288,31,cs),
(288,1093,l),
(250,1051,l),
(619,281,ls),
(626,265,o),
(638,259,o),
(655,259,cs),
(739,259,ls),
(756,259,o),
(768,266,o),
(775,281,cs),
(1146,1051,l),
(1108,1093,l),
(1108,31,ls),
(1108,12,o),
(1119,1,o),
(1138,1,cs),
(1256,1,ls),
(1275,1,o),
(1286,11,o),
(1286,31,cs),
(1286,1269,ls),
(1286,1289,o),
(1275,1299,o),
(1256,1299,cs),
(1130,1299,ls),
(1114,1299,o),
(1102,1292,o),
(1095,1277,cs),
(668,415,l),
(728,415,l),
(301,1277,ls),
(294,1292,o),
(282,1299,o),
(266,1299,cs),
(140,1299,ls),
(121,1299,o),
(110,1289,o),
(110,1269,cs),
(110,31,ls),
(110,12,o),
(121,1,o),
(140,1,cs)
);
}
);
width = 1396;
}
);
metricLeft = H;
metricRight = H;
unicode = 77;
},
{
glyphname = N;
lastChange = "2025-11-23 11:02:42 +0000";
layers = (
{
anchors = (
{
name = bottom;
pos = (606,0);
},
{
name = top;
pos = (606,1300);
}
);
layerId = m004;
shapes = (
{
closed = 1;
nodes = (
(200,0,l),
(284,0,l),
(284,1206,l),
(236,1206,l),
(984,0,l),
(1042,0,l),
(1042,1300,l),
(958,1300,l),
(958,86,l),
(1020,86,l),
(272,1300,l),
(200,1300,l)
);
}
);
width = 1242;
},
{
anchors = (
{
name = bottom;
pos = (577,0);
},
{
name = top;
pos = (577,1300);
}
);
layerId = m005;
shapes = (
{
closed = 1;
nodes = (
(65,40,ls),
(65,14,o),
(79,0,o),
(105,0,cs),
(293,0,ls),
(319,0,o),
(333,14,o),
(333,40,cs),
(333,1040,l),
(151,1040,l),
(816,26,ls),
(828,8,o),
(843,0,o),
(864,0,cs),
(1049,0,ls),
(1075,0,o),
(1089,14,o),
(1089,40,cs),
(1089,1260,ls),
(1089,1286,o),
(1075,1300,o),
(1049,1300,cs),
(861,1300,ls),
(835,1300,o),
(821,1286,o),
(821,1260,cs),
(821,236,l),
(1003,232,l),
(338,1274,ls),
(326,1293,o),
(311,1300,o),
(290,1300,cs),
(105,1300,ls),
(79,1300,o),
(65,1286,o),
(65,1260,cs)
);
}
);
width = 1154;
},
{
anchors = (
{
name = bottom;
pos = (580,0);
},
{
name = top;
pos = (580,1300);
}
);
layerId = "1B8EDE0E-D46F-48F9-B9C6-2CD34FEA95FD";
shapes = (
{
closed = 1;
nodes = (
(110,30,ls),
(110,11,o),
(121,0,o),
(140,0,cs),
(258,0,ls),
(277,0,o),
(288,10,o),
(288,30,cs),
(288,1122,l),
(204,1108,l),
(866,20,ls),
(874,6,o),
(886,0,o),
(902,0,cs),
(1048,0,l),
(1048,1270,ls),
(1048,1290,o),
(1037,1300,o),
(1018,1300,cs),
(900,1300,ls),
(881,1300,o),
(870,1289,o),
(870,1270,cs),
(870,172,l),
(958,184,l),
(296,1280,ls),
(288,1294,o),
(276,1300,o),
(260,1300,cs),
(110,1300,l)
);
}
);
width = 1158;
}
);
metricLeft = H;
metricRight = "=|";
unicode = 78;
},
{
glyphname = O;
lastChange = "2025-11-21 21:57:47 +0000";
layers = (
{
anchors = (
{
name = bottom;
pos = (603,0);
},
{
name = center;
pos = (603,650);
},
{
name = ogonek;
pos = (1069,10);
},
{
name = top;
pos = (603,1300);
},
{
name = topleft;
pos = (40,1300);
},
{
name = topright;
pos = (1166,1300);
}
);
background = {
shapes = (
{
closed = 1;
nodes = (
(969,205,o),
(814,43,o),
(583,46,cs),
(353,49,o),
(197,213,o),
(197,450,c),
(197,870,l),
(197,1146,o),
(405,1252,o),
(583,1254,cs),
(761,1256,o),
(969,1146,o),
(969,870,c),
(969,450,l)
);
},
{
closed = 1;
nodes = (
(115,170,o),
(307,-24,o),
(583,-24,cs),
(859,-24,o),
(1051,170,o),
(1051,450,c),
(1051,870,l),
(1051,1214,o),
(777,1324,o),
(583,1324,cs),
(391,1324,o),
(115,1214,o),
(115,870,c),
(115,450,l)
);
}
);
};
layerId = m004;
shapes = (
{
closed = 1;
nodes = (
(989,450,l),
(989,205,o),
(834,43,o),
(603,46,cs),
(373,49,o),
(217,213,o),
(217,450,c),
(217,850,l),
(217,1087,o),
(373,1251,o),
(603,1254,cs),
(834,1257,o),
(989,1095,o),
(989,850,c)
);
},
{
closed = 1;
nodes = (
(135,450,l),
(135,170,o),
(327,-24,o),
(603,-24,cs),
(879,-24,o),
(1071,170,o),
(1071,450,c),
(1071,850,l),
(1071,1130,o),
(879,1324,o),
(603,1324,cs),
(327,1324,o),
(135,1130,o),
(135,850,c)
);
}
);
width = 1206;
},
{
anchors = (
{
name = bottom;
pos = (596,0);
},
{
name = center;
pos = (596,650);
},
{
name = ogonek;
pos = (1088,20);
},
{
name = top;
pos = (596,1324);
},
{
name = topleft;
pos = (20,1300);
},
{
name = topright;
pos = (1172,1300);
}
);
layerId = m005;
shapes = (
{
closed = 1;
nodes = (
(874,540,ls),
(874,272,o),
(734,220,o),
(596,222,cs),
(458,224,o),
(318,272,o),
(318,540,cs),
(318,760,ls),
(318,1028,o),
(458,1076,o),
(596,1078,cs),
(734,1080,o),
(874,1028,o),
(874,760,cs)
);
},
{
closed = 1;
nodes = (
(50,534,ls),
(50,92,o),
(368,-24,o),
(596,-24,cs),
(826,-24,o),
(1142,92,o),
(1142,534,cs),
(1142,766,ls),
(1142,1208,o),
(826,1324,o),
(596,1324,cs),
(368,1324,o),
(50,1208,o),
(50,766,cs)
);
}
);
width = 1192;
},
{
anchors = (
{
name = bottom;
pos = (584,0);
},
{
name = center;
pos = (584,650);
},
{
name = ogonek;
pos = (1062,20);
},
{
name = top;
pos = (584,1300);
},
{
name = topleft;
pos = (26,1300);
},
{
name = topright;
pos = (1142,1300);
}
);
layerId = "1B8EDE0E-D46F-48F9-B9C6-2CD34FEA95FD";
shapes = (
{
closed = 1;
nodes = (
(912,492,l),
(912,198,o),
(738,128,o),
(584,130,cs),
(430,132,o),
(258,198,o),
(258,492,c),
(258,802,l),
(258,1100,o),
(430,1166,o),
(584,1168,cs),
(738,1170,o),
(912,1100,o),
(912,802,c)
);
},
{
closed = 1;
nodes = (
(80,490,l),
(80,86,o),
(372,-24,o),
(584,-24,cs),
(798,-24,o),
(1088,86,o),
(1088,490,c),
(1088,806,l),
(1088,1214,o),
(798,1324,o),
(584,1324,cs),
(372,1324,o),
(80,1214,o),
(80,806,c)
);
}
);
width = 1168;
}
);
metricRight = "=|";
unicode = 79;
},
{
glyphname = Oslash;
lastChange = "2025-11-21 20:58:09 +0000";
layers = (
{
anchors = (
{
name = bottom;
pos = (334,0);
},
{
name = top;
pos = (334,1300);
}
);
layerId = m004;
shapes = (
{
ref = O;
},
{
closed = 1;
nodes = (
(152,0,l),
(568,650,l),
(516,649,l),
(100,0,l)
);
}
);
width = 1171;
},
{
anchors = (
{
name = bottom;
pos = (581,12);
},
{
name = top;
pos = (581,1312);
}
);
layerId = "1B8EDE0E-D46F-48F9-B9C6-2CD34FEA95FD";
shapes = (
{
ref = O;
},
{
closed = 1;
nodes = (
(263,12,l),
(1105,1312,l),
(899,1312,l),
(57,12,l)
);
}
);
width = 1162;
},
{
anchors = (
{
name = bottom;
pos = (601,12);
},
{
name = top;
pos = (601,1312);
}
);
layerId = m005;
shapes = (
{
ref = O;
},
{
closed = 1;
nodes = (
(329,12,l),
(1187,1312,l),
(873,1312,l),
(15,12,l)
);
}
);
width = 1202;
}
);
metricRight = "=|";
unicode = 216;
},
{
glyphname = P;
lastChange = "2025-11-23 11:03:04 +0000";
layers = (
{
anchors = (
{
name = bottom;
pos = (509,0);
},
{
name = top;
pos = (509,1300);
}
);
layerId = m004;
shapes = (
{
closed = 1;
nodes = (
(284,0,l),
(284,1300,l),
(200,1300,l),
(200,0,l)
);
},
{
closed = 1;
nodes = (
(512,526,ls),
(734,526,o),
(878,676,o),
(878,910,c),
(878,916,l),
(878,1143,o),
(728,1300,o),
(512,1300,cs),
(246,1300,l),
(246,1228,l),
(512,1228,ls),
(680,1228,o),
(794,1098,o),
(794,918,c),
(794,908,l),
(794,692,o),
(674,598,o),
(512,598,cs),
(246,598,l),
(246,526,l)
);
}
);
width = 988;
},
{
anchors = (
{
name = bottom;
pos = (441,0);
},
{
name = top;
pos = (441,1300);
}
);
layerId = m005;
shapes = (
{
closed = 1;
nodes = (
(293,0,ls),
(319,0,o),
(333,14,o),
(333,40,cs),
(333,1300,l),
(105,1300,ls),
(79,1300,o),
(65,1286,o),
(65,1260,cs),
(65,40,ls),
(65,14,o),
(79,0,o),
(105,0,cs)
);
},
{
closed = 1;
nodes = (
(477,462,ls),
(645,462,o),
(903,558,o),
(903,860,cs),
(903,898,ls),
(903,1200,o),
(645,1300,o),
(477,1300,cs),
(231,1300,l),
(231,1054,l),
(457,1054,ls),
(521,1054,o),
(635,1034,o),
(635,892,cs),
(635,870,ls),
(635,726,o),
(523,708,o),
(457,708,cs),
(231,708,l),
(231,462,l)
);
}
);
width = 963;
},
{
anchors = (
{
name = bottom;
pos = (462,0);
},
{
name = top;
pos = (462,1300);
}
);
layerId = "1B8EDE0E-D46F-48F9-B9C6-2CD34FEA95FD";
shapes = (
{
closed = 1;
nodes = (
(258,0,ls),
(277,0,o),
(288,11,o),
(288,30,cs),
(288,1300,l),
(140,1300,ls),
(121,1300,o),
(110,1290,o),
(110,1270,cs),
(110,30,ls),
(110,11,o),
(121,0,o),
(140,0,cs)
);
},
{
closed = 1;
nodes = (
(460,506,ls),
(650,506,o),
(866,594,o),
(866,880,c),
(866,924,l),
(866,1212,o),
(650,1300,o),
(460,1300,cs),
(246,1300,l),
(246,1146,l),
(444,1146,ls),
(550,1146,o),
(688,1122,o),
(688,920,c),
(688,886,l),
(688,682,o),
(550,660,o),
(444,660,cs),
(246,660,l),
(246,506,l)
);
}
);
width = 916;
}
);
metricLeft = "=H";
unicode = 80;
},
{
glyphname = Q;
lastChange = "2025-11-23 11:03:10 +0000";
layers = (
{
anchors = (
{
name = bottom;
pos = (603,0);
},
{
name = top;
pos = (603,1300);
}
);
layerId = m004;
shapes = (
{
closed = 1;
nodes = (
(987,430,l),
(987,154,o),
(781,44,o),
(603,46,cs),
(425,48,o),
(219,154,o),
(219,430,c),
(219,850,l),
(219,1146,o),
(425,1250,o),
(603,1252,cs),
(781,1254,o),
(987,1146,o),
(987,850,c)
);
},
{
closed = 1;
nodes = (
(135,430,l),
(135,86,o),
(411,-24,o),
(603,-24,cs),
(797,-24,o),
(1071,86,o),
(1071,430,c),
(1071,850,l),
(1071,1214,o),
(797,1324,o),
(603,1324,cs),
(411,1324,o),
(135,1214,o),
(135,850,c)
);
},
{
closed = 1;
nodes = (
(821,94,l),
(955,-106,l),
(1025,-60,l),
(891,140,l)
);
}
);
width = 1206;
},
{
anchors = (
{
name = bottom;
pos = (596,0);
},
{
name = top;
pos = (596,1300);
}
);
background = {
shapes = (
{
closed = 1;
nodes = (
(385,34,l),
(447,-74,l),
(542,-20,l),
(480,88,l)
);
}
);
};
layerId = m005;
shapes = (
{
closed = 1;
nodes = (
(874,540,ls),
(874,272,o),
(734,220,o),
(596,222,cs),
(458,224,o),
(318,272,o),
(318,540,cs),
(318,760,ls),
(318,1028,o),
(458,1076,o),
(596,1078,cs),
(734,1080,o),
(874,1028,o),
(874,760,cs)
);
},
{
closed = 1;
nodes = (
(50,534,ls),
(50,92,o),
(368,-24,o),
(596,-24,cs),
(826,-24,o),
(1142,92,o),
(1142,534,cs),
(1142,766,ls),
(1142,1208,o),
(826,1324,o),
(596,1324,cs),
(368,1324,o),
(50,1208,o),
(50,766,cs)
);
},
{
closed = 1;
nodes = (
(707,168,ls),
(685,155,o),
(679,135,o),
(692,113,cs),
(832,-133,ls),
(845,-155,o),
(865,-161,o),
(887,-148,cs),
(1057,-52,ls),
(1079,-39,o),
(1085,-19,o),
(1072,3,cs),
(932,249,ls),
(919,271,o),
(899,277,o),
(877,264,cs)
);
}
);
width = 1192;
},
{
anchors = (
{
name = bottom;
pos = (584,0);
},
{
name = top;
pos = (584,1300);
}
);
layerId = "1B8EDE0E-D46F-48F9-B9C6-2CD34FEA95FD";
shapes = (
{
closed = 1;
nodes = (
(912,490,l),
(912,198,o),
(738,128,o),
(584,130,cs),
(430,132,o),
(258,198,o),
(258,490,c),
(258,806,l),
(258,1100,o),
(430,1166,o),
(584,1168,cs),
(738,1170,o),
(912,1100,o),
(912,806,c)
);
},
{
closed = 1;
nodes = (
(80,490,l),
(80,86,o),
(372,-24,o),
(584,-24,cs),
(798,-24,o),
(1088,86,o),
(1088,490,c),
(1088,806,l),
(1088,1214,o),
(798,1324,o),
(584,1324,cs),
(372,1324,o),
(80,1214,o),
(80,806,c)
);
},
{
closed = 1;
nodes = (
(762,85,ls),
(746,75,o),
(742,61,o),
(751,44,cs),
(861,-148,ls),
(871,-165,o),
(885,-169,o),
(902,-159,cs),
(1010,-95,ls),
(1026,-85,o),
(1031,-70,o),
(1021,-54,cs),
(909,136,ls),
(899,152,o),
(884,157,o),
(868,147,cs)
);
}
);
width = 1168;
}
);
metricLeft = "=O";
metricRight = "=O";
unicode = 81;
},
{
glyphname = R;
lastChange = "2025-11-23 11:03:27 +0000";
layers = (
{
anchors = (
{
name = bottom;
pos = (534,0);
},
{
name = top;
pos = (534,1300);
}
);
layerId = m004;
shapes = (
{
closed = 1;
nodes = (
(284,1228,l),
(522,1228,ls),
(708,1228,o),
(794,1135,o),
(794,948,cs),
(794,918,ls),
(794,727,o),
(703,638,o),
(522,638,cs),
(284,638,l)
);
},
{
closed = 1;
nodes = (
(284,0,l),
(284,566,l),
(522,566,ls),
(749,566,o),
(878,699,o),
(878,920,cs),
(878,946,ls),
(878,1172,o),
(743,1300,o),
(522,1300,cs),
(200,1300,l),
(200,0,l)
);
},
{
closed = 1;
nodes = (
(928,0,l),
(636,588,l),
(550,588,l),
(842,0,l)
);
}
);
width = 1013;
},
{
anchors = (
{
name = bottom;
pos = (497,12);
},
{
name = top;
pos = (497,1312);
}
);
layerId = m005;
shapes = (
{
closed = 1;
nodes = (
(337,1054,l),
(527,1054,ls),
(625,1054,o),
(693,1018,o),
(693,896,cs),
(693,882,ls),
(693,762,o),
(625,726,o),
(527,726,cs),
(337,726,l)
);
},
{
closed = 1;
nodes = (
(297,0,ls),
(323,0,o),
(337,14,o),
(337,40,cs),
(337,480,l),
(519,480,ls),
(727,480,o),
(975,554,o),
(975,876,cs),
(975,902,ls),
(975,1226,o),
(727,1300,o),
(517,1300,cs),
(105,1300,ls),
(79,1300,o),
(65,1286,o),
(65,1260,cs),
(65,40,ls),
(65,14,o),
(79,0,o),
(105,0,cs)
);
},
{
closed = 1;
nodes = (
(982,0,ls),
(1012,0,o),
(1025,19,o),
(1013,47,cs),
(758,635,ls),
(749,656,o),
(734,666,o),
(712,666,cs),
(517,666,ls),
(487,666,o),
(475,648,o),
(486,620,cs),
(724,31,ls),
(732,10,o),
(748,0,o),
(771,0,cs)
);
}
);
width = 1133;
},
{
anchors = (
{
name = bottom;
pos = (504,0);
},
{
name = top;
pos = (504,1300);
}
);
layerId = "1B8EDE0E-D46F-48F9-B9C6-2CD34FEA95FD";
shapes = (
{
closed = 1;
nodes = (
(286,1146,l),
(494,1146,ls),
(624,1146,o),
(722,1102,o),
(722,932,cs),
(722,931,ls),
(722,761,o),
(630,717,o),
(494,717,cs),
(286,717,l)
);
},
{
closed = 1;
nodes = (
(256,0,ls),
(275,0,o),
(286,10,o),
(286,30,cs),
(286,563,l),
(488,563,ls),
(696,563,o),
(900,645,o),
(900,925,cs),
(900,936,ls),
(900,1216,o),
(686,1300,o),
(486,1300,cs),
(140,1300,ls),
(121,1300,o),
(110,1290,o),
(110,1270,cs),
(110,30,ls),
(110,11,o),
(121,0,o),
(140,0,cs)
);
},
{
closed = 1;
nodes = (
(909,0,ls),
(932,0,o),
(941,14,o),
(931,35,cs),
(667,599,ls),
(660,615,o),
(649,621,o),
(632,621,cs),
(514,621,ls),
(491,621,o),
(482,607,o),
(491,586,cs),
(746,23,ls),
(753,8,o),
(764,0,o),
(781,0,cs)
);
}
);
width = 1013;
}
);
metricLeft = "=H";
unicode = 82;
},
{
glyphname = S;
lastChange = "2025-11-23 11:03:34 +0000";
layers = (
{
anchors = (
{
name = bottom;
pos = (444,0);
},
{
name = top;
pos = (444,1300);
}
);
layerId = m004;
shapes = (
{
closed = 1;
nodes = (
(672,-24,o),
(839,96,o),
(839,290,cs),
(839,322,ls),
(839,518,o),
(670,596,o),
(516,672,cs),
(376,742,ls),
(276,792,o),
(185,848,o),
(185,964,cs),
(185,1004,ls),
(185,1168,o),
(302,1251,o),
(444,1251,cs),
(580,1251,o),
(743,1180,o),
(743,920,c),
(826,920,l),
(826,1198,o),
(638,1324,o),
(446,1324,cs),
(256,1324,o),
(102,1208,o),
(102,1004,cs),
(102,968,ls),
(108,790,o),
(216,726,o),
(336,666,cs),
(476,596,ls),
(604,532,o),
(757,480,o),
(757,320,cs),
(757,296,ls),
(757,166,o),
(638,51,o),
(468,51,cs),
(340,51,o),
(131,92,o),
(131,366,c),
(50,366,l),
(50,78,o),
(238,-24,o),
(468,-24,cs)
);
}
);
width = 889;
},
{
anchors = (
{
name = bottom;
pos = (508,12);
},
{
name = top;
pos = (508,1312);
}
);
layerId = m005;
shapes = (
{
closed = 1;
nodes = (
(760,-12,o),
(964,106,o),
(964,332,cs),
(964,354,ls),
(964,486,o),
(894,600,o),
(692,706,cs),
(532,790,ls),
(486,814,o),
(344,870,o),
(344,944,cs),
(344,960,ls),
(344,1038,o),
(414,1096,o),
(514,1096,cs),
(601,1096,o),
(683,1068,o),
(698,950,cs),
(701,924,o),
(714,910,o),
(739,910,cs),
(919,910,ls),
(945,910,o),
(960,925,o),
(959,951,cs),
(944,1246,o),
(761,1336,o),
(516,1336,cs),
(298,1336,o),
(84,1238,o),
(84,980,cs),
(84,938,ls),
(84,704,o),
(306,610,o),
(380,574,cs),
(540,494,ls),
(624,452,o),
(704,406,o),
(704,344,cs),
(704,338,ls),
(704,260,o),
(628,218,o),
(516,218,cs),
(387,218,o),
(304,292,o),
(296,422,cs),
(295,448,o),
(282,462,o),
(256,462,cs),
(90,462,ls),
(64,462,o),
(49,447,o),
(50,421,cs),
(63,73,o),
(307,-12,o),
(540,-12,cs)
);
}
);
width = 1014;
},
{
anchors = (
{
name = bottom;
pos = (476,12);
},
{
name = top;
pos = (476,1312);
}
);
layerId = "1B8EDE0E-D46F-48F9-B9C6-2CD34FEA95FD";
shapes = (
{
closed = 1;
nodes = (
(720,-24,o),
(910,86,o),
(910,302,cs),
(910,318,ls),
(910,486,o),
(780,576,o),
(624,664,cs),
(469,752,ls),
(396,793,o),
(260,871,o),
(256,970,c),
(256,1002,l),
(256,1120,o),
(342,1178,o),
(478,1178,cs),
(586,1178,o),
(691,1117,o),
(706,930,cs),
(708,910,o),
(718,900,o),
(737,900,cs),
(849,900,ls),
(868,900,o),
(880,911,o),
(879,931,cs),
(862,1216,o),
(692,1324,o),
(480,1324,cs),
(278,1324,o),
(84,1242,o),
(84,1008,c),
(84,977,l),
(84,750,o),
(274,659,o),
(363,609,cs),
(516,523,ls),
(625,462,o),
(738,410,o),
(738,310,c),
(738,298,l),
(738,198,o),
(634,132,o),
(486,132,cs),
(355,132,o),
(237,196,o),
(220,362,cs),
(218,382,o),
(208,392,o),
(189,392,cs),
(80,392,ls),
(61,392,o),
(50,381,o),
(51,361,cs),
(67,64,o),
(279,-24,o),
(496,-24,cs)
);
}
);
width = 960;
}
);
metricLeft = "=+50";
metricRight = "=|";
unicode = 83;
},
{
glyphname = T;
lastChange = "2025-11-23 11:03:40 +0000";
layers = (
{
anchors = (
{
name = bottom;
pos = (478,0);
},
{
name = center;
pos = (478,650);
},
{
name = top;
pos = (478,1300);
}
);
layerId = m004;
shapes = (
{
closed = 1;
nodes = (
(40,1298,l),
(40,1228,l),
(436,1228,l),
(436,2,l),
(520,2,l),
(520,1228,l),
(916,1228,l),
(916,1298,l)
);
}
);
width = 956;
},
{
anchors = (
{
name = bottom;
pos = (509,0);
},
{
name = center;
pos = (509,650);
},
{
name = top;
pos = (509,1300);
}
);
layerId = m005;
shapes = (
{
closed = 1;
nodes = (
(45,1300,ls),
(19,1300,o),
(5,1286,o),
(5,1260,cs),
(5,1094,ls),
(5,1068,o),
(19,1054,o),
(45,1054,cs),
(375,1054,l),
(375,40,ls),
(375,14,o),
(389,0,o),
(415,0,cs),
(603,0,ls),
(629,0,o),
(643,14,o),
(643,40,cs),
(643,1054,l),
(973,1054,ls),
(999,1054,o),
(1013,1068,o),
(1013,1094,cs),
(1013,1260,ls),
(1013,1286,o),
(999,1300,o),
(973,1300,cs)
);
}
);
width = 1018;
},
{
anchors = (
{
name = bottom;
pos = (506,-2);
},
{
name = center;
pos = (506,648);
},
{
name = top;
pos = (506,1298);
}
);
layerId = "1B8EDE0E-D46F-48F9-B9C6-2CD34FEA95FD";
shapes = (
{
closed = 1;
nodes = (
(70,1298,ls),
(51,1298,o),
(40,1287,o),
(40,1268,cs),
(40,1176,ls),
(40,1157,o),
(51,1146,o),
(70,1146,cs),
(418,1146,l),
(418,32,ls),
(418,13,o),
(429,2,o),
(448,2,cs),
(564,2,ls),
(583,2,o),
(594,13,o),
(594,32,cs),
(594,1146,l),
(940,1146,ls),
(959,1146,o),
(970,1157,o),
(970,1176,cs),
(970,1268,ls),
(970,1288,o),
(959,1298,o),
(940,1298,cs)
);
}
);
width = 1010;
}
);
metricRight = "=|";
unicode = 84;
},
{
glyphname = U;
lastChange = "2025-11-23 11:03:43 +0000";
layers = (
{
anchors = (
{
name = bottom;
pos = (638,0);
},
{
name = ogonek;
pos = (1116,10);
},
{
name = top;
pos = (638,1300);
},
{
name = topright;
pos = (1216,1300);
}
);
layerId = m004;
shapes = (
{
closed = 1;
nodes = (
(912,-24,o),
(1106,164,o),
(1106,430,c),
(1106,1300,l),
(1022,1300,l),
(1022,430,l),
(1022,200,o),
(866,43,o),
(638,46,cs),
(411,49,o),
(254,207,o),
(254,430,c),
(254,1300,l),
(170,1300,l),
(170,430,l),
(170,165,o),
(365,-24,o),
(638,-24,cs)
);
}
);
width = 1276;
},
{
anchors = (
{
name = bottom;
pos = (551,0);
},
{
name = ogonek;
pos = (1051,20);
},
{
name = top;
pos = (551,1300);
},
{
name = topright;
pos = (1137,1300);
}
);
layerId = m005;
shapes = (
{
closed = 1;
nodes = (
(769,-24,o),
(1067,70,o),
(1067,454,c),
(1067,1260,ls),
(1067,1286,o),
(1053,1300,o),
(1027,1300,cs),
(839,1300,ls),
(813,1300,o),
(799,1286,o),
(799,1260,cs),
(799,522,l),
(799,272,o),
(679,222,o),
(551,224,c),
(423,226,o),
(303,274,o),
(303,522,c),
(303,1260,ls),
(303,1286,o),
(289,1300,o),
(263,1300,cs),
(75,1300,ls),
(49,1300,o),
(35,1286,o),
(35,1260,cs),
(35,454,l),
(35,70,o),
(335,-24,o),
(551,-24,c)
);
}
);
width = 1102;
},
{
anchors = (
{
name = bottom;
pos = (554,0);
},
{
name = ogonek;
pos = (1024,20);
},
{
name = top;
pos = (554,1300);
},
{
name = topright;
pos = (1102,1300);
}
);
layerId = "1B8EDE0E-D46F-48F9-B9C6-2CD34FEA95FD";
shapes = (
{
closed = 1;
nodes = (
(752,-24,o),
(1028,72,o),
(1028,476,c),
(1028,1270,ls),
(1028,1290,o),
(1017,1300,o),
(998,1300,cs),
(882,1300,ls),
(863,1300,o),
(852,1289,o),
(852,1270,cs),
(852,490,l),
(852,198,o),
(690,130,o),
(554,130,cs),
(414,132,o),
(258,198,o),
(258,490,c),
(258,1270,ls),
(258,1290,o),
(247,1300,o),
(228,1300,cs),
(110,1300,ls),
(91,1300,o),
(80,1289,o),
(80,1270,cs),
(80,476,l),
(80,72,o),
(358,-24,o),
(554,-24,cs)
);
}
);
width = 1108;
}
);
metricLeft = "=H-30";
metricRight = "=|";
unicode = 85;
},
{
glyphname = V;
lastChange = "2025-11-23 11:05:08 +0000";
layers = (
{
anchors = (
{
name = bottom;
pos = (546,0);
},
{
name = top;
pos = (546,1300);
}
);
layerId = m004;
shapes = (
{
closed = 1;
nodes = (
(580,0,ls),
(588,0,o),
(594,3,o),
(597,12,cs),
(1021,1283,ls),
(1024,1293,o),
(1019,1301,o),
(1009,1301,cs),
(960,1302,ls),
(952,1302,o),
(946,1299,o),
(943,1290,cs),
(527,36,l),
(565,36,l),
(151,1288,ls),
(148,1297,o),
(142,1300,o),
(134,1300,cs),
(83,1300,ls),
(72,1300,o),
(68,1293,o),
(71,1283,cs),
(495,12,ls),
(498,3,o),
(504,0,o),
(512,0,cs)
);
}
);
width = 1092;
},
{
anchors = (
{
name = bottom;
pos = (577,0);
},
{
name = top;
pos = (577,1300);
}
);
layerId = m005;
shapes = (
{
closed = 1;
nodes = (
(659,0,ls),
(682,0,o),
(697,10,o),
(705,32,cs),
(1143,1254,ls),
(1153,1281,o),
(1139,1300,o),
(1110,1300,cs),
(911,1300,ls),
(888,1300,o),
(873,1290,o),
(866,1267,cs),
(505,178,l),
(655,178,l),
(288,1267,ls),
(281,1289,o),
(266,1300,o),
(243,1300,cs),
(44,1300,ls),
(15,1300,o),
(1,1281,o),
(11,1254,cs),
(449,32,ls),
(457,10,o),
(472,0,o),
(495,0,cs)
);
}
);
width = 1154;
},
{
anchors = (
{
name = bottom;
pos = (563,0);
},
{
name = top;
pos = (563,1300);
}
);
layerId = "1B8EDE0E-D46F-48F9-B9C6-2CD34FEA95FD";
shapes = (
{
closed = 1;
nodes = (
(619,0,ls),
(636,0,o),
(647,8,o),
(653,24,cs),
(1077,1266,ls),
(1084,1286,o),
(1075,1300,o),
(1053,1300,cs),
(935,1300,ls),
(918,1300,o),
(906,1291,o),
(901,1275,cs),
(533,160,l),
(599,160,l),
(227,1275,ls),
(222,1291,o),
(210,1300,o),
(193,1300,cs),
(71,1300,ls),
(49,1300,o),
(40,1286,o),
(47,1266,cs),
(471,24,ls),
(477,8,o),
(488,0,o),
(505,0,cs)
);
}
);
width = 1124;
}
);
metricRight = "=|";
unicode = 86;
},
{
glyphname = W;
lastChange = "2025-11-23 11:05:10 +0000";
layers = (
{
anchors = (
{
name = bottom;
pos = (857,0);
},
{
name = top;
pos = (857,1300);
}
);
layerId = m004;
shapes = (
{
closed = 1;
nodes = (
(461,0,l),
(555,0,l),
(873,1260,l),
(827,1258,l),
(1171,0,l),
(1263,0,l),
(1644,1283,ls),
(1647,1294,o),
(1641,1300,o),
(1631,1300,cs),
(1580,1300,ls),
(1572,1300,o),
(1565,1295,o),
(1563,1287,cs),
(1187,8,l),
(1247,8,l),
(898,1287,ls),
(896,1295,o),
(891,1300,o),
(882,1300,cs),
(820,1300,ls),
(811,1300,o),
(806,1295,o),
(804,1287,cs),
(479,16,l),
(529,18,l),
(151,1287,ls),
(149,1295,o),
(142,1300,o),
(134,1300,cs),
(83,1300,ls),
(73,1300,o),
(67,1294,o),
(70,1283,cs)
);
}
);
width = 1714;
},
{
anchors = (
{
name = bottom;
pos = (845,0);
},
{
name = top;
pos = (845,1300);
}
);
layerId = m005;
shapes = (
{
closed = 1;
nodes = (
(365,34,ls),
(372,12,o),
(387,0,o),
(410,0,cs),
(566,0,ls),
(589,0,o),
(605,11,o),
(611,34,cs),
(913,1102,l),
(767,1096,l),
(1062,34,ls),
(1068,11,o),
(1083,0,o),
(1106,0,cs),
(1274,0,ls),
(1297,0,o),
(1312,12,o),
(1319,34,cs),
(1680,1255,ls),
(1688,1282,o),
(1675,1300,o),
(1646,1300,cs),
(1440,1300,ls),
(1417,1300,o),
(1402,1289,o),
(1396,1266,cs),
(1095,166,l),
(1299,166,l),
(990,1266,ls),
(984,1289,o),
(969,1300,o),
(946,1300,cs),
(742,1300,ls),
(719,1300,o),
(704,1289,o),
(698,1266,cs),
(403,166,l),
(589,166,l),
(288,1266,ls),
(282,1289,o),
(267,1300,o),
(244,1300,cs),
(42,1300,ls),
(14,1300,o),
(0,1282,o),
(8,1255,cs)
);
}
);
width = 1688;
},
{
anchors = (
{
name = bottom;
pos = (841,0);
},
{
name = top;
pos = (841,1300);
}
);
layerId = "1B8EDE0E-D46F-48F9-B9C6-2CD34FEA95FD";
shapes = (
{
closed = 1;
nodes = (
(394,25,ls),
(399,7,o),
(410,0,o),
(427,0,cs),
(525,0,ls),
(542,0,o),
(553,8,o),
(558,25,cs),
(873,1120,l),
(801,1118,l),
(1116,25,ls),
(1121,8,o),
(1132,0,o),
(1149,0,cs),
(1251,0,ls),
(1268,0,o),
(1279,7,o),
(1284,25,cs),
(1635,1266,ls),
(1641,1286,o),
(1631,1300,o),
(1610,1300,cs),
(1494,1300,ls),
(1477,1300,o),
(1465,1292,o),
(1460,1274,cs),
(1158,146,l),
(1254,146,l),
(944,1274,ls),
(939,1292,o),
(928,1300,o),
(911,1300,cs),
(772,1300,ls),
(755,1300,o),
(743,1292,o),
(738,1274,cs),
(434,146,l),
(528,146,l),
(226,1274,ls),
(221,1292,o),
(209,1300,o),
(192,1300,cs),
(70,1300,ls),
(49,1300,o),
(38,1286,o),
(44,1266,cs)
);
}
);
width = 1680;
}
);
metricLeft = "=V";
metricRight = "=|";
unicode = 87;
},
{
glyphname = X;
lastChange = "2025-11-23 11:05:13 +0000";
layers = (
{
anchors = (
{
name = bottom;
pos = (506,0);
},
{
name = top;
pos = (506,1300);
}
);
layerId = m004;
shapes = (
{
closed = 1;
nodes = (
(947,1,l),
(163,1289,ls),
(159,1296,o),
(153,1299,o),
(145,1299,cs),
(86,1299,ls),
(74,1299,o),
(70,1291,o),
(76,1281,cs),
(857,1,l)
);
},
{
closed = 1;
nodes = (
(545,621,l),
(936,1281,ls),
(942,1292,o),
(938,1299,o),
(926,1299,cs),
(873,1299,ls),
(865,1299,o),
(859,1296,o),
(855,1289,cs),
(501,693,l)
);
},
{
closed = 1;
nodes = (
(161,1,l),
(529,621,l),
(487,693,l),
(75,1,l)
);
}
);
width = 1012;
},
{
anchors = (
{
name = bottom;
pos = (568,0);
},
{
name = top;
pos = (568,1300);
}
);
layerId = m005;
shapes = (
{
closed = 1;
nodes = (
(1069,0,ls),
(1101,0,o),
(1113,20,o),
(1096,48,cs),
(342,1273,ls),
(331,1292,o),
(316,1300,o),
(295,1300,cs),
(67,1300,ls),
(35,1300,o),
(23,1280,o),
(40,1252,cs),
(796,27,ls),
(807,8,o),
(822,0,o),
(843,0,cs)
);
},
{
closed = 1;
nodes = (
(632,506,l),
(1087,1258,ls),
(1103,1285,o),
(1092,1306,o),
(1060,1306,cs),
(849,1306,ls),
(827,1306,o),
(813,1298,o),
(802,1279,cs),
(480,754,l)
);
},
{
closed = 1;
nodes = (
(275,0,ls),
(296,0,o),
(311,8,o),
(322,27,cs),
(646,554,l),
(494,802,l),
(39,48,ls),
(23,21,o),
(34,0,o),
(66,0,cs)
);
}
);
width = 1136;
},
{
anchors = (
{
name = bottom;
pos = (557,-1);
},
{
name = top;
pos = (557,1299);
}
);
layerId = "1B8EDE0E-D46F-48F9-B9C6-2CD34FEA95FD";
shapes = (
{
closed = 1;
nodes = (
(1028,1,ls),
(1052,1,o),
(1062,17,o),
(1049,37,cs),
(277,1279,ls),
(269,1293,o),
(257,1299,o),
(241,1299,cs),
(106,1299,ls),
(82,1299,o),
(72,1283,o),
(85,1263,cs),
(857,21,ls),
(865,7,o),
(877,1,o),
(893,1,cs)
);
},
{
closed = 1;
nodes = (
(627,597,l),
(1037,1263,ls),
(1049,1283,o),
(1041,1299,o),
(1017,1299,cs),
(881,1299,ls),
(865,1299,o),
(853,1293,o),
(845,1279,cs),
(519,747,l)
);
},
{
closed = 1;
nodes = (
(217,1,ls),
(233,1,o),
(245,7,o),
(253,21,cs),
(607,597,l),
(499,747,l),
(63,37,ls),
(51,17,o),
(59,1,o),
(83,1,cs)
);
}
);
width = 1112;
}
);
metricRight = "=|";
unicode = 88;
},
{
glyphname = Y;
lastChange = "2025-11-23 11:05:15 +0000";
layers = (
{
anchors = (
{
name = bottom;
pos = (496,0);
},
{
name = top;
pos = (496,1300);
},
{
name = topleft;
pos = (70,1300);
}
);
layerId = m004;
shapes = (
{
closed = 1;
nodes = (
(453,538,l),
(453,15,ls),
(453,5,o),
(459,0,o),
(468,0,cs),
(522,0,ls),
(531,0,o),
(537,5,o),
(537,15,cs),
(537,538,l),
(918,1282,ls),
(923,1292,o),
(918,1300,o),
(907,1300,cs),
(851,1300,ls),
(843,1300,o),
(837,1297,o),
(833,1289,cs),
(463,568,l),
(527,568,l),
(159,1289,ls),
(155,1297,o),
(149,1300,o),
(141,1300,cs),
(85,1300,ls),
(74,1300,o),
(69,1293,o),
(74,1282,cs)
);
}
);
width = 992;
},
{
anchors = (
{
name = bottom;
pos = (541,0);
},
{
name = top;
pos = (541,1300);
},
{
name = topleft;
pos = (45,1300);
}
);
layerId = m005;
shapes = (
{
closed = 1;
nodes = (
(407,528,l),
(407,40,ls),
(407,14,o),
(421,0,o),
(447,0,cs),
(635,0,ls),
(661,0,o),
(675,14,o),
(675,40,cs),
(675,528,l),
(1062,1252,ls),
(1077,1279,o),
(1064,1300,o),
(1033,1300,cs),
(841,1300,ls),
(819,1300,o),
(804,1291,o),
(794,1271,cs),
(445,610,l),
(627,610,l),
(290,1271,ls),
(280,1291,o),
(265,1300,o),
(243,1300,cs),
(49,1300,ls),
(18,1300,o),
(5,1279,o),
(20,1252,cs)
);
}
);
width = 1082;
},
{
anchors = (
{
name = bottom;
pos = (519,0);
},
{
name = top;
pos = (519,1300);
},
{
name = topleft;
pos = (45,1300);
}
);
layerId = "1B8EDE0E-D46F-48F9-B9C6-2CD34FEA95FD";
shapes = (
{
closed = 1;
nodes = (
(431,524,l),
(431,30,ls),
(431,11,o),
(442,0,o),
(461,0,cs),
(577,0,ls),
(596,0,o),
(607,10,o),
(607,30,cs),
(607,524,l),
(985,1264,ls),
(995,1284,o),
(986,1300,o),
(963,1300,cs),
(851,1300,ls),
(835,1300,o),
(823,1293,o),
(816,1278,cs),
(477,608,l),
(561,608,l),
(230,1278,ls),
(223,1293,o),
(211,1300,o),
(195,1300,cs),
(75,1300,ls),
(52,1300,o),
(43,1284,o),
(53,1264,cs)
);
}
);
width = 1038;
}
);
metricLeft = V;
metricRight = "=|";
unicode = 89;
},
{
glyphname = Z;
lastChange = "2025-11-23 11:05:18 +0000";
layers = (
{
anchors = (
{
name = bottom;
pos = (469,0);
},
{
name = center;
pos = (469,650);
},
{
name = top;
pos = (469,1300);
}
);
layerId = m004;
shapes = (
{
closed = 1;
nodes = (
(60,77,ls),
(56,70,o),
(55,65,o),
(55,58,cs),
(55,15,ls),
(55,5,o),
(61,0,o),
(70,0,cs),
(868,0,ls),
(877,0,o),
(883,5,o),
(883,15,cs),
(883,57,ls),
(883,67,o),
(877,72,o),
(868,72,cs),
(159,72,l),
(878,1223,ls),
(882,1230,o),
(883,1235,o),
(883,1242,cs),
(883,1285,ls),
(883,1295,o),
(877,1300,o),
(868,1300,cs),
(70,1300,ls),
(61,1300,o),
(55,1295,o),
(55,1285,cs),
(55,1243,ls),
(55,1233,o),
(61,1228,o),
(70,1228,cs),
(783,1228,l)
);
}
);
width = 938;
},
{
anchors = (
{
name = bottom;
pos = (529,0);
},
{
name = center;
pos = (529,650);
},
{
name = top;
pos = (529,1300);
}
);
layerId = m005;
shapes = (
{
closed = 1;
nodes = (
(70,202,ls),
(59,185,o),
(55,172,o),
(55,153,cs),
(55,40,ls),
(55,14,o),
(69,0,o),
(95,0,cs),
(963,0,ls),
(989,0,o),
(1003,14,o),
(1003,40,cs),
(1003,206,ls),
(1003,232,o),
(989,246,o),
(963,246,cs),
(409,246,l),
(988,1098,ls),
(999,1115,o),
(1003,1128,o),
(1003,1147,cs),
(1003,1260,ls),
(1003,1286,o),
(989,1300,o),
(963,1300,cs),
(95,1300,ls),
(69,1300,o),
(55,1286,o),
(55,1260,cs),
(55,1094,ls),
(55,1068,o),
(69,1054,o),
(95,1054,cs),
(651,1054,l)
);
}
);
width = 1058;
},
{
anchors = (
{
name = bottom;
pos = (481,0);
},
{
name = center;
pos = (481,650);
},
{
name = top;
pos = (481,1300);
}
);
layerId = "1B8EDE0E-D46F-48F9-B9C6-2CD34FEA95FD";
shapes = (
{
closed = 1;
nodes = (
(66,153,ls),
(58,140,o),
(55,130,o),
(55,116,cs),
(55,30,ls),
(55,11,o),
(66,0,o),
(85,0,cs),
(877,0,ls),
(896,0,o),
(907,10,o),
(907,30,cs),
(907,124,ls),
(907,144,o),
(896,154,o),
(877,154,cs),
(269,154,l),
(896,1147,ls),
(904,1160,o),
(907,1170,o),
(907,1184,cs),
(907,1270,ls),
(907,1290,o),
(896,1300,o),
(877,1300,cs),
(85,1300,ls),
(66,1300,o),
(55,1290,o),
(55,1270,cs),
(55,1176,ls),
(55,1157,o),
(66,1146,o),
(85,1146,cs),
(693,1146,l)
);
}
);
width = 962;
}
);
metricLeft = "=55";
metricRight = "=|";
unicode = 90;
},
{
glyphname = a;
lastChange = "2025-11-23 11:05:50 +0000";
layers = (
{
anchors = (
{
name = bottom;
pos = (422,0);
},
{
name = ogonek;
pos = (757,10);
},
{
name = top;
pos = (422,900);
}
);
layerId = m004;
shapes = (
{
closed = 1;
nodes = (
(421,564,ls),
(203,564,o),
(75,483,o),
(75,277,cs),
(75,76,o),
(195,-24,o),
(383,-24,cs),
(545,-24,o),
(625,48,o),
(677,128,c),
(677,314,l),
(677,200,o),
(583,44,o),
(383,44,cs),
(249,44,o),
(155,116,o),
(155,279,cs),
(155,454,o),
(273,492,o),
(433,492,c),
(677,492,l),
(677,564,l)
);
},
{
closed = 1;
nodes = (
(741,0,ls),
(750,0,o),
(756,5,o),
(756,15,cs),
(758,658,l),
(758,832,o),
(628,954,o),
(441,954,cs),
(268,954,o),
(133,849,o),
(124,711,cs),
(123,701,o),
(129,696,o),
(138,696,cs),
(188,696,ls),
(197,696,o),
(203,701,o),
(204,711,cs),
(213,809,o),
(311,882,o),
(441,882,cs),
(584,882,o),
(677,793,o),
(677,656,cs),
(677,138,l),
(657,100,l),
(677,100,l),
(694,13,ls),
(696,4,o),
(702,0,o),
(711,0,cs)
);
}
);
width = 873;
},
{
anchors = (
{
name = bottom;
pos = (463,12);
},
{
name = ogonek;
pos = (861,32);
},
{
name = top;
pos = (463,912);
}
);
layerId = m005;
shapes = (
{
closed = 1;
nodes = (
(447,567,ls),
(140,567,o),
(35,413,o),
(35,259,cs),
(35,88,o),
(165,-23,o),
(371,-23,cs),
(517,-23,o),
(579,42,o),
(649,124,c),
(603,369,l),
(603,181,o),
(499,169,o),
(415,169,cs),
(347,169,o),
(295,211,o),
(295,271,cs),
(295,353,o),
(347,379,o),
(453,379,cs),
(625,379,l),
(625,567,l)
);
},
{
closed = 1;
nodes = (
(821,0,ls),
(847,0,o),
(861,14,o),
(861,40,cs),
(863,627,ls),
(864,855,o),
(666,955,o),
(465,955,cs),
(276,955,o),
(116,867,o),
(67,655,cs),
(61,628,o),
(76,611,o),
(103,611,cs),
(272,611,ls),
(296,611,o),
(307,624,o),
(314,648,cs),
(334,717,o),
(406,733,o),
(459,733,cs),
(507,733,o),
(603,725,o),
(603,623,cs),
(603,181,l),
(628,100,l),
(648,100,l),
(668,33,ls),
(675,11,o),
(690,0,o),
(713,0,cs)
);
}
);
width = 963;
},
{
anchors = (
{
name = bottom;
pos = (484,12);
},
{
name = ogonek;
pos = (870,32);
},
{
name = top;
pos = (484,912);
}
);
layerId = "1B8EDE0E-D46F-48F9-B9C6-2CD34FEA95FD";
shapes = (
{
closed = 1;
nodes = (
(408,560,ls),
(160,560,o),
(80,416,o),
(80,275,cs),
(80,96,o),
(210,-24,o),
(406,-24,cs),
(515,-24,o),
(618,18,o),
(664,80,c),
(666,336,l),
(666,172,o),
(544,120,o),
(436,120,cs),
(332,120,o),
(244,169,o),
(244,279,cs),
(244,348,o),
(306,420,o),
(456,420,c),
(666,420,l),
(666,560,l)
);
},
{
closed = 1;
nodes = (
(804,0,ls),
(823,0,o),
(834,10,o),
(834,30,cs),
(836,632,ls),
(837,830,o),
(669,954,o),
(480,954,cs),
(310,954,o),
(161,853,o),
(127,700,cs),
(123,680,o),
(135,668,o),
(155,668,cs),
(265,668,ls),
(283,668,o),
(292,677,o),
(298,694,cs),
(320,755,o),
(387,794,o),
(480,794,cs),
(598,794,o),
(666,729,o),
(666,614,cs),
(664,106,l),
(664,80,l),
(684,80,l),
(698,26,ls),
(702,8,o),
(713,0,o),
(731,0,cs)
);
}
);
width = 938;
}
);
metricRight = "=n";
unicode = 97;
},
{
glyphname = b;
lastChange = "2025-11-23 11:05:59 +0000";
layers = (
{
anchors = (
{
name = bottom;
pos = (466,0);
},
{
name = center;
pos = (249,1088);
},
{
name = top;
pos = (466,900);
}
);
layerId = m004;
shapes = (
{
closed = 1;
nodes = (
(161,0,ls),
(170,0,o),
(176,4,o),
(178,13,cs),
(195,100,l),
(215,100,l),
(195,168,l),
(195,1345,ls),
(195,1355,o),
(189,1360,o),
(180,1360,cs),
(130,1360,ls),
(121,1360,o),
(115,1355,o),
(115,1345,cs),
(115,15,ls),
(115,5,o),
(121,0,o),
(130,0,cs)
);
},
{
closed = 1;
nodes = (
(633,-24,o),
(841,80,o),
(839,362,cs),
(838,568,ls),
(836,796,o),
(703,954,o),
(499,954,cs),
(296,954,o),
(148,792,o),
(143,548,c),
(195,546,l),
(200,748,o),
(322,882,o),
(499,882,cs),
(653,882,o),
(757,756,o),
(758,566,cs),
(759,364,ls),
(760,110,o),
(593,48,o),
(479,48,cs),
(299,48,o),
(201,150,o),
(195,404,c),
(141,402,l),
(147,116,o),
(255,-24,o),
(479,-24,cs)
);
}
);
width = 927;
},
{
anchors = (
{
name = bottom;
pos = (512,-662);
},
{
name = center;
pos = (256,426);
},
{
name = top;
pos = (512,238);
}
);
background = {
shapes = (
{
closed = 1;
nodes = (
(759,-24,o),
(960,76,o),
(960,414,cs),
(960,486,ls),
(960,822,o),
(767,924,o),
(588,924,cs),
(371,924,o),
(300,774,o),
(268,486,c),
(368,486,l),
(366,658,o),
(465,700,o),
(543,700,cs),
(619,700,o),
(700,650,o),
(700,486,cs),
(700,414,ls),
(700,252,o),
(619,200,o),
(543,200,cs),
(465,200,o),
(366,244,o),
(368,414,c),
(288,414,l),
(288,132,o),
(366,-24,o),
(583,-24,cs)
);
}
);
};
layerId = m005;
shapes = (
{
closed = 1;
nodes = (
(269,0,ls),
(292,0,o),
(307,11,o),
(314,33,cs),
(334,100,l),
(354,100,l),
(368,100,l),
(368,1320,ls),
(368,1346,o),
(354,1360,o),
(328,1360,cs),
(140,1360,ls),
(114,1360,o),
(100,1346,o),
(100,1320,cs),
(100,40,ls),
(100,14,o),
(114,0,o),
(140,0,cs)
);
},
{
closed = 1;
nodes = (
(767,-24,o),
(960,78,o),
(960,414,cs),
(960,516,ls),
(960,854,o),
(759,954,o),
(583,954,cs),
(366,954,o),
(288,798,o),
(288,536,c),
(368,536,l),
(366,686,o),
(465,730,o),
(543,730,cs),
(619,730,o),
(700,678,o),
(700,536,cs),
(700,394,ls),
(700,250,o),
(619,200,o),
(543,200,cs),
(465,200,o),
(366,242,o),
(368,394,c),
(273,394,l),
(305,126,o),
(371,-24,o),
(588,-24,cs)
);
}
);
width = 988;
},
{
anchors = (
{
name = bottom;
pos = (466,0);
},
{
name = center;
pos = (222,1088);
},
{
name = top;
pos = (466,900);
}
);
layerId = "1B8EDE0E-D46F-48F9-B9C6-2CD34FEA95FD";
shapes = (
{
closed = 1;
nodes = (
(201,0,ls),
(219,0,o),
(230,8,o),
(234,26,cs),
(248,80,l),
(268,80,l),
(278,80,l),
(278,1330,ls),
(278,1350,o),
(267,1360,o),
(248,1360,cs),
(132,1360,ls),
(113,1360,o),
(102,1350,o),
(102,1330,cs),
(102,30,ls),
(102,11,o),
(113,0,o),
(132,0,cs)
);
},
{
closed = 1;
nodes = (
(736,-24,o),
(882,136,o),
(882,384,cs),
(882,542,ls),
(882,787,o),
(735,954,o),
(520,954,cs),
(318,954,o),
(207,827,o),
(200,586,c),
(278,586,l),
(278,722,o),
(361,804,o),
(488,804,cs),
(622,804,o),
(712,711,o),
(712,572,cs),
(712,364,ls),
(712,211,o),
(632,126,o),
(488,126,cs),
(362,126,o),
(285,204,o),
(278,338,c),
(190,338,l),
(194,108,o),
(311,-24,o),
(510,-24,cs)
);
}
);
width = 962;
}
);
metricLeft = n;
metricRight = o;
unicode = 98;
},
{
glyphname = c;
lastChange = "2025-11-23 11:06:09 +0000";
layers = (
{
anchors = (
{
name = bottom;
pos = (448,0);
},
{
name = top;
pos = (448,900);
}
);
layerId = m004;
shapes = (
{
closed = 1;
nodes = (
(613,-24,o),
(790,66,o),
(807,262,cs),
(808,275,o),
(803,282,o),
(793,282,cs),
(743,282,ls),
(734,282,o),
(728,277,o),
(727,267,cs),
(714,97,o),
(575,46,o),
(458,46,cs),
(328,46,o),
(174,110,o),
(168,364,cs),
(170,546,ls),
(174,820,o),
(328,884,o),
(458,884,cs),
(575,884,o),
(714,825,o),
(727,643,cs),
(728,633,o),
(734,628,o),
(743,628,cs),
(793,628,ls),
(803,628,o),
(808,634,o),
(807,644,cs),
(793,855,o),
(614,954,o),
(458,954,cs),
(288,954,o),
(94,854,o),
(90,548,cs),
(88,362,ls),
(94,76,o),
(288,-24,o),
(458,-24,cs)
);
}
);
width = 896;
},
{
anchors = (
{
name = bottom;
pos = (454,12);
},
{
name = top;
pos = (454,912);
}
);
layerId = m005;
shapes = (
{
closed = 1;
nodes = (
(702,-24,o),
(864,114,o),
(879,323,cs),
(881,347,o),
(865,360,o),
(839,360,cs),
(658,360,ls),
(633,360,o),
(622,347,o),
(616,323,cs),
(601,261,o),
(543,222,o),
(464,222,cs),
(356,222,o),
(288,297,o),
(288,414,cs),
(288,516,ls),
(288,632,o),
(357,708,o),
(464,708,cs),
(545,708,o),
(603,664,o),
(617,594,cs),
(622,569,o),
(633,556,o),
(658,556,cs),
(840,556,ls),
(866,556,o),
(881,570,o),
(879,597,cs),
(864,807,o),
(697,954,o),
(464,954,cs),
(205,954,o),
(28,776,o),
(28,516,cs),
(28,414,ls),
(28,150,o),
(201,-24,o),
(464,-24,cs)
);
}
);
width = 908;
},
{
anchors = (
{
name = bottom;
pos = (468,0);
},
{
name = top;
pos = (468,900);
}
);
background = {
shapes = (
{
closed = 1;
nodes = (
(250,566,ls),
(250,692,o),
(339,794,o),
(478,794,cs),
(617,794,o),
(704,692,o),
(706,612,c),
(872,612,l),
(874,790,o),
(717,954,o),
(478,954,cs),
(238,954,o),
(80,789,o),
(80,566,cs),
(80,483,l),
(250,490,l)
);
}
);
};
layerId = "1B8EDE0E-D46F-48F9-B9C6-2CD34FEA95FD";
shapes = (
{
closed = 1;
nodes = (
(707,-24,o),
(854,120,o),
(864,294,cs),
(864,310,o),
(853,318,o),
(834,318,cs),
(724,318,ls),
(706,318,o),
(696,308,o),
(693,290,cs),
(678,216,o),
(610,136,o),
(478,136,cs),
(339,136,o),
(250,238,o),
(250,364,cs),
(250,562,ls),
(250,693,o),
(339,795,o),
(478,795,cs),
(601,795,o),
(676,714,o),
(692,640,cs),
(697,621,o),
(706,612,o),
(724,612,cs),
(832,612,ls),
(851,612,o),
(863,623,o),
(862,642,cs),
(847,808,o),
(700,954,o),
(478,954,cs),
(240,954,o),
(80,788,o),
(80,562,cs),
(80,364,ls),
(80,141,o),
(238,-24,o),
(478,-24,cs)
);
}
);
width = 944;
}
);
metricLeft = o;
metricRight = "=|";
unicode = 99;
},
{
glyphname = d;
lastChange = "2025-11-23 11:06:17 +0000";
layers = (
{
anchors = (
{
name = bottom;
pos = (465,0);
},
{
name = center;
pos = (686,1088);
},
{
name = top;
pos = (465,930);
},
{
name = topright;
pos = (812,1360);
}
);
background = {
shapes = (
{
closed = 0;
nodes = (
(69,362,ls),
(71,134,o),
(204,-24,o),
(408,-24,cs),
(611,-24,o),
(759,138,o),
(764,382,c),
(712,384,l),
(707,182,o),
(585,48,o),
(408,48,cs),
(254,48,o),
(150,174,o),
(149,364,cs)
);
}
);
};
layerId = m004;
shapes = (
{
closed = 1;
nodes = (
(797,0,ls),
(806,0,o),
(812,5,o),
(812,15,cs),
(812,1345,ls),
(812,1355,o),
(806,1360,o),
(797,1360,cs),
(747,1360,ls),
(738,1360,o),
(732,1355,o),
(732,1345,cs),
(732,168,l),
(712,100,l),
(732,100,l),
(749,13,ls),
(751,4,o),
(757,0,o),
(766,0,cs)
);
},
{
closed = 1;
nodes = (
(672,-24,o),
(780,116,o),
(786,402,c),
(732,404,l),
(726,150,o),
(628,48,o),
(448,48,cs),
(334,48,o),
(167,110,o),
(168,364,cs),
(169,566,ls),
(170,756,o),
(274,882,o),
(428,882,cs),
(605,882,o),
(727,748,o),
(732,546,c),
(784,548,l),
(779,792,o),
(631,954,o),
(428,954,cs),
(224,954,o),
(91,796,o),
(89,568,cs),
(88,362,ls),
(86,80,o),
(294,-24,o),
(448,-24,cs)
);
}
);
width = 927;
},
{
anchors = (
{
name = bottom;
pos = (494,0);
},
{
name = center;
pos = (741,1088);
},
{
name = top;
pos = (494,930);
},
{
name = topright;
pos = (888,1360);
}
);
layerId = m005;
shapes = (
{
closed = 1;
nodes = (
(848,0,ls),
(874,0,o),
(888,14,o),
(888,40,cs),
(888,1320,ls),
(888,1346,o),
(874,1360,o),
(848,1360,cs),
(660,1360,ls),
(634,1360,o),
(620,1346,o),
(620,1320,cs),
(620,100,l),
(634,100,l),
(654,100,l),
(674,33,ls),
(681,11,o),
(696,0,o),
(719,0,cs)
);
},
{
closed = 1;
nodes = (
(617,-24,o),
(683,126,o),
(715,394,c),
(620,394,l),
(622,242,o),
(523,200,o),
(445,200,cs),
(369,200,o),
(288,250,o),
(288,394,cs),
(288,536,ls),
(288,678,o),
(369,730,o),
(445,730,cs),
(523,730,o),
(622,686,o),
(620,536,c),
(700,536,l),
(700,798,o),
(622,954,o),
(405,954,cs),
(229,954,o),
(28,854,o),
(28,516,cs),
(28,414,ls),
(28,78,o),
(221,-24,o),
(400,-24,cs)
);
}
);
width = 988;
},
{
anchors = (
{
name = bottom;
pos = (458,0);
},
{
name = center;
pos = (698,1088);
},
{
name = top;
pos = (458,930);
},
{
name = topright;
pos = (860,1360);
}
);
background = {
shapes = (
{
closed = 0;
nodes = (
(796,1360,l),
(620,1360,l)
);
}
);
};
layerId = "1B8EDE0E-D46F-48F9-B9C6-2CD34FEA95FD";
shapes = (
{
closed = 1;
nodes = (
(830,0,ls),
(849,0,o),
(860,10,o),
(860,30,cs),
(860,1330,ls),
(860,1350,o),
(849,1360,o),
(830,1360,cs),
(714,1360,ls),
(695,1360,o),
(684,1350,o),
(684,1330,cs),
(684,80,l),
(694,80,l),
(714,80,l),
(728,26,ls),
(732,8,o),
(743,0,o),
(761,0,cs)
);
},
{
closed = 1;
nodes = (
(651,-24,o),
(768,108,o),
(772,338,c),
(684,338,l),
(677,204,o),
(600,126,o),
(474,126,cs),
(330,126,o),
(250,211,o),
(250,364,cs),
(250,572,ls),
(250,711,o),
(340,804,o),
(474,804,cs),
(601,804,o),
(684,722,o),
(684,586,c),
(762,586,l),
(755,827,o),
(644,954,o),
(442,954,cs),
(227,954,o),
(80,787,o),
(80,542,cs),
(80,384,ls),
(80,136,o),
(226,-24,o),
(452,-24,cs)
);
}
);
width = 962;
}
);
metricLeft = "=|b";
metricRight = "=|b";
unicode = 100;
},
{
glyphname = e;
lastChange = "2025-11-23 11:09:43 +0000";
layers = (
{
anchors = (
{
name = bottom;
pos = (448,0);
},
{
name = ogonek;
pos = (806,10);
},
{
name = top;
pos = (448,930);
}
);
layerId = m004;
shapes = (
{
closed = 1;
nodes = (
(793,429,ls),
(802,429,o),
(808,434,o),
(808,444,cs),
(808,501,l),
(728,501,l),
(102,501,l),
(102,429,l)
);
},
{
closed = 1;
nodes = (
(652,-24,o),
(795,96,o),
(807,268,cs),
(808,277,o),
(803,282,o),
(793,282,cs),
(743,282,ls),
(734,282,o),
(728,277,o),
(727,267,cs),
(716,132,o),
(613,48,o),
(458,48,cs),
(274,48,o),
(166,166,o),
(168,364,cs),
(170,536,ls),
(172,769,o),
(267,882,o),
(458,882,cs),
(644,882,o),
(728,774,o),
(728,536,cs),
(728,491,l),
(808,491,l),
(808,536,ls),
(808,806,o),
(684,954,o),
(458,954,cs),
(228,954,o),
(92,800,o),
(90,538,cs),
(88,362,ls),
(86,133,o),
(236,-24,o),
(458,-24,cs)
);
}
);
width = 896;
},
{
anchors = (
{
name = bottom;
pos = (454,0);
},
{
name = ogonek;
pos = (817,10);
},
{
name = top;
pos = (454,930);
}
);
layerId = m005;
shapes = (
{
closed = 1;
nodes = (
(840,408,ls),
(866,408,o),
(880,422,o),
(880,448,cs),
(880,492,l),
(792,586,l),
(88,586,l),
(88,408,l)
);
},
{
closed = 1;
nodes = (
(683,-24,o),
(848,107,o),
(871,282,cs),
(874,304,o),
(858,316,o),
(832,316,cs),
(649,316,ls),
(626,316,o),
(613,305,o),
(604,283,cs),
(583,236,o),
(536,203,o),
(453,203,cs),
(359,203,o),
(286,286,o),
(286,408,cs),
(286,587,ls),
(286,676,o),
(350,730,o),
(453,730,cs),
(554,730,o),
(620,673,o),
(620,587,c),
(620,439,l),
(880,439,l),
(880,492,l),
(889,769,o),
(712,954,o),
(453,954,cs),
(196,954,o),
(28,775,o),
(28,516,cs),
(28,414,ls),
(28,78,o),
(273,-24,o),
(453,-24,cs)
);
}
);
width = 908;
},
{
anchors = (
{
name = bottom;
pos = (475,0);
},
{
name = ogonek;
pos = (855,10);
},
{
name = top;
pos = (475,930);
}
);
background = {
shapes = (
{
closed = 0;
nodes = (
(700,493,l)
);
}
);
};
layerId = "1B8EDE0E-D46F-48F9-B9C6-2CD34FEA95FD";
shapes = (
{
closed = 1;
nodes = (
(840,382,ls),
(859,382,o),
(870,393,o),
(870,412,cs),
(870,534,l),
(800,538,l),
(222,538,l),
(222,382,l)
);
},
{
closed = 1;
nodes = (
(670,-24,o),
(822,86,o),
(847,240,cs),
(850,258,o),
(838,268,o),
(818,268,cs),
(711,268,ls),
(693,268,o),
(683,259,o),
(677,242,cs),
(648,161,o),
(566,126,o),
(488,126,cs),
(380,126,o),
(240,172,o),
(240,384,cs),
(240,542,ls),
(240,752,o),
(380,804,o),
(478,804,cs),
(584,804,o),
(700,742,o),
(700,534,c),
(700,493,l),
(870,493,l),
(870,534,l),
(868,790,o),
(715,954,o),
(478,954,cs),
(241,954,o),
(80,788,o),
(80,542,cs),
(80,384,ls),
(80,74,o),
(298,-24,o),
(492,-24,cs)
);
}
);
width = 950;
}
);
metricLeft = o;
metricRight = "=o";
unicode = 101;
},
{
glyphname = f;
lastChange = "2025-11-23 11:09:51 +0000";
layers = (
{
anchors = (
{
name = bottom;
pos = (274,0);
},
{
name = top;
pos = (274,1360);
}
);
layerId = m004;
shapes = (
{
closed = 1;
nodes = (
(260,0,ls),
(269,0,o),
(275,5,o),
(275,15,cs),
(275,843,ls),
(275,853,o),
(281,858,o),
(290,858,cs),
(478,858,ls),
(487,858,o),
(493,863,o),
(493,873,cs),
(493,915,ls),
(493,925,o),
(487,930,o),
(478,930,cs),
(290,930,ls),
(281,930,o),
(275,935,o),
(275,945,cs),
(275,1172,ls),
(275,1276,o),
(313,1288,o),
(373,1288,cs),
(478,1288,ls),
(487,1288,o),
(493,1293,o),
(493,1303,cs),
(493,1344,ls),
(493,1354,o),
(487,1359,o),
(478,1359,cs),
(373,1359,ls),
(259,1359,o),
(195,1319,o),
(195,1193,cs),
(195,945,ls),
(195,935,o),
(189,930,o),
(180,930,cs),
(80,930,ls),
(71,930,o),
(65,925,o),
(65,915,cs),
(65,873,ls),
(65,863,o),
(71,858,o),
(80,858,cs),
(180,858,ls),
(189,858,o),
(195,853,o),
(195,843,cs),
(195,15,ls),
(195,5,o),
(201,0,o),
(210,0,cs)
);
}
);
width = 518;
},
{
anchors = (
{
name = bottom;
pos = (318,0);
},
{
name = top;
pos = (318,1360);
}
);
layerId = m005;
shapes = (
{
closed = 1;
nodes = (
(384,0,ls),
(410,0,o),
(424,14,o),
(424,40,cs),
(424,710,l),
(586,710,ls),
(612,710,o),
(626,724,o),
(626,750,cs),
(626,890,ls),
(626,916,o),
(612,930,o),
(586,930,cs),
(424,930,l),
(424,1031,ls),
(424,1095,o),
(450,1123,o),
(505,1123,cs),
(586,1123,ls),
(612,1123,o),
(626,1137,o),
(626,1163,cs),
(626,1324,ls),
(626,1350,o),
(612,1364,o),
(586,1364,cs),
(409,1364,ls),
(271,1364,o),
(160,1276,o),
(160,1100,cs),
(160,930,l),
(60,930,ls),
(34,930,o),
(20,916,o),
(20,890,cs),
(20,750,ls),
(20,724,o),
(34,710,o),
(60,710,cs),
(160,710,l),
(160,40,ls),
(160,14,o),
(174,0,o),
(200,0,cs)
);
}
);
width = 636;
},
{
anchors = (
{
name = bottom;
pos = (332,2);
},
{
name = top;
pos = (332,1362);
}
);
layerId = "1B8EDE0E-D46F-48F9-B9C6-2CD34FEA95FD";
shapes = (
{
closed = 1;
nodes = (
(354,-2,ls),
(373,-2,o),
(384,9,o),
(384,28,cs),
(384,756,ls),
(384,776,o),
(395,786,o),
(414,786,cs),
(586,786,ls),
(605,786,o),
(616,796,o),
(616,816,cs),
(616,902,ls),
(616,922,o),
(605,932,o),
(586,932,cs),
(412,932,ls),
(393,932,o),
(382,943,o),
(382,962,cs),
(382,1108,ls),
(382,1168,o),
(410,1212,o),
(474,1212,cs),
(586,1212,ls),
(605,1212,o),
(616,1223,o),
(616,1242,cs),
(616,1332,ls),
(616,1352,o),
(605,1362,o),
(586,1362,cs),
(442,1362,ls),
(306,1362,o),
(204,1264,o),
(204,1110,cs),
(204,962,ls),
(204,943,o),
(193,932,o),
(174,932,cs),
(102,932,ls),
(83,932,o),
(72,922,o),
(72,902,cs),
(72,816,ls),
(72,797,o),
(83,786,o),
(102,786,cs),
(176,786,ls),
(195,786,o),
(206,775,o),
(206,756,cs),
(206,28,ls),
(206,9,o),
(217,-2,o),
(236,-2,cs)
);
}
);
width = 686;
}
);
unicode = 102;
},
{
glyphname = g;
lastChange = "2025-11-23 11:10:08 +0000";
layers = (
{
anchors = (
{
name = bottom;
pos = (484,-400);
},
{
name = top;
pos = (484,900);
}
);
layerId = m004;
shapes = (
{
closed = 1;
nodes = (
(676,303,o),
(842,395,o),
(843,627,cs),
(844,841,o),
(676,953,o),
(490,953,cs),
(306,953,o),
(140,843,o),
(140,627,cs),
(140,395,o),
(306,303,o),
(490,303,cs)
);
},
{
closed = 1;
nodes = (
(310,373,o),
(218,465,o),
(218,627,cs),
(218,767,o),
(310,883,o),
(490,883,cs),
(670,883,o),
(764,767,o),
(764,627,cs),
(764,465,o),
(670,373,o),
(490,373,cs)
);
},
{
closed = 1;
nodes = (
(562,24,l),
(562,72,l),
(372,72,ls),
(244,72,o),
(170,129,o),
(170,215,cs),
(170,318,o),
(212,346,o),
(292,424,c),
(240,472,l),
(174,394,o),
(92,334,o),
(92,209,cs),
(92,101,o),
(158,24,o),
(358,24,cs)
);
},
{
closed = 1;
nodes = (
(584,-400,ls),
(790,-400,o),
(862,-288,o),
(862,-164,cs),
(862,-40,o),
(790,72,o),
(584,72,cs),
(308,72,ls),
(102,72,o),
(30,-40,o),
(30,-164,cs),
(30,-288,o),
(102,-400,o),
(308,-400,cs)
);
},
{
closed = 1;
nodes = (
(180,-328,o),
(110,-280,o),
(110,-162,cs),
(110,-48,o),
(180,0,o),
(306,0,cs),
(586,0,ls),
(718,0,o),
(782,-52,o),
(782,-162,cs),
(782,-276,o),
(718,-328,o),
(586,-328,cs),
(306,-328,ls)
);
},
{
closed = 1;
nodes = (
(762,839,l),
(762,919,o),
(758,937,o),
(826,937,c),
(861,937,ls),
(870,937,o),
(876,942,o),
(876,952,cs),
(876,994,ls),
(876,1004,o),
(870,1009,o),
(861,1009,cs),
(794,1009,l),
(714,1009,o),
(676,969,o),
(676,839,c)
);
}
);
width = 964;
},
{
anchors = (
{
name = bottom;
pos = (486,-198);
},
{
name = top;
pos = (486,1102);
}
);
layerId = m005;
shapes = (
{
closed = 1;
nodes = (
(688,285,o),
(884,359,o),
(884,617,cs),
(884,875,o),
(674,951,o),
(500,951,cs),
(326,951,o),
(118,857,o),
(118,617,cs),
(118,359,o),
(314,285,o),
(500,285,cs)
);
},
{
closed = 1;
nodes = (
(422,483,o),
(364,525,o),
(364,619,cs),
(364,695,o),
(424,753,o),
(500,753,cs),
(576,753,o),
(638,695,o),
(638,619,cs),
(638,523,o),
(580,483,o),
(500,483,cs)
);
},
{
closed = 1;
nodes = (
(620,34,l),
(620,228,l),
(422,228,ls),
(342,228,o),
(276,267,o),
(276,307,cs),
(276,343,o),
(342,383,o),
(392,431,c),
(232,587,l),
(167,541,o),
(52,465,o),
(52,328,cs),
(52,185,o),
(144,94,o),
(362,66,cs)
);
},
{
closed = 1;
nodes = (
(560,-382,ls),
(844,-382,o),
(942,-224,o),
(942,-76,cs),
(942,94,o),
(842,230,o),
(560,230,cs),
(412,230,ls),
(152,230,o),
(30,96,o),
(30,-76,cs),
(30,-224,o),
(128,-382,o),
(412,-382,cs)
);
},
{
closed = 1;
nodes = (
(288,-152,o),
(264,-124,o),
(264,-76,cs),
(264,-28,o),
(288,0,o),
(344,0,cs),
(628,0,ls),
(676,0,o),
(708,-28,o),
(708,-76,cs),
(708,-124,o),
(676,-152,o),
(628,-152,cs),
(344,-152,ls)
);
},
{
closed = 1;
nodes = (
(798,757,l),
(789,802,o),
(800,842,o),
(887,844,cs),
(915,845,o),
(930,857,o),
(930,884,cs),
(930,923,l),
(930,997,l),
(930,1025,ls),
(930,1051,o),
(916,1066,o),
(889,1066,cs),
(666,1060,o),
(567,884,o),
(582,757,c)
);
}
);
width = 970;
},
{
anchors = (
{
name = bottom;
pos = (335,-471);
},
{
name = top;
pos = (335,829);
}
);
layerId = "1B8EDE0E-D46F-48F9-B9C6-2CD34FEA95FD";
shapes = (
{
closed = 1;
nodes = (
(653,304,o),
(821,382,o),
(821,628,cs),
(821,870,o),
(641,954,o),
(467,954,cs),
(293,954,o),
(113,860,o),
(113,628,cs),
(113,382,o),
(283,304,o),
(467,304,cs)
);
},
{
closed = 1;
nodes = (
(345,440,o),
(275,498,o),
(275,630,cs),
(275,740,o),
(345,818,o),
(467,818,cs),
(589,818,o),
(659,740,o),
(659,630,cs),
(659,498,o),
(589,440,o),
(467,440,cs)
);
},
{
closed = 1;
nodes = (
(587,20,l),
(587,138,l),
(403,138,ls),
(297,138,o),
(219,218,o),
(219,278,cs),
(219,344,o),
(283,380,o),
(329,408,c),
(235,508,l),
(162,459,o),
(63,376,o),
(63,278,cs),
(63,184,o),
(137,42,o),
(347,30,cs)
);
},
{
closed = 1;
nodes = (
(581,-404,ls),
(809,-404,o),
(901,-270,o),
(901,-136,cs),
(901,14,o),
(809,140,o),
(581,140,cs),
(361,140,ls),
(147,140,o),
(41,14,o),
(41,-136,cs),
(41,-270,o),
(133,-404,o),
(361,-404,cs)
);
},
{
closed = 1;
nodes = (
(275,-258,o),
(210,-214,o),
(210,-132,cs),
(210,-37,o),
(275,-6,o),
(355,-6,cs),
(585,-6,ls),
(667,-6,o),
(732,-52,o),
(732,-132,cs),
(732,-199,o),
(667,-258,o),
(585,-258,cs),
(355,-258,ls)
);
},
{
closed = 1;
nodes = (
(705,842,l),
(705,894,o),
(718,929,o),
(806,935,cs),
(826,936,o),
(837,946,o),
(837,966,cs),
(837,1010,l),
(837,1038,l),
(837,1063,ls),
(837,1083,o),
(826,1094,o),
(806,1093,cs),
(639,1079,o),
(571,955,o),
(571,842,c)
);
}
);
width = 981;
}
);
metricRight = o;
unicode = 103;
},
{
glyphname = h;
lastChange = "2025-11-23 11:10:27 +0000";
layers = (
{
anchors = (
{
name = bottom;
pos = (458,0);
},
{
name = center;
pos = (245,1088);
},
{
name = top;
pos = (458,1360);
}
);
layerId = m004;
shapes = (
{
closed = 1;
nodes = (
(180,0,ls),
(189,0,o),
(195,5,o),
(195,15,cs),
(195,1345,ls),
(195,1355,o),
(189,1360,o),
(180,1360,cs),
(130,1360,ls),
(121,1360,o),
(115,1355,o),
(115,1345,cs),
(115,15,ls),
(115,5,o),
(121,0,o),
(130,0,cs)
);
},
{
closed = 1;
nodes = (
(195,536,l),
(195,758,o),
(303,882,o),
(485,882,cs),
(637,882,o),
(731,776,o),
(731,600,cs),
(731,15,ls),
(731,5,o),
(737,0,o),
(746,0,cs),
(796,0,ls),
(805,0,o),
(811,5,o),
(811,15,cs),
(811,614,ls),
(811,846,o),
(675,954,o),
(485,954,cs),
(251,954,o),
(159,802,o),
(159,536,c)
);
}
);
width = 916;
},
{
anchors = (
{
name = bottom;
pos = (520,-662);
},
{
name = center;
pos = (262,426);
},
{
name = top;
pos = (520,698);
}
);
layerId = m005;
shapes = (
{
closed = 1;
nodes = (
(328,0,ls),
(354,0,o),
(368,14,o),
(368,40,cs),
(368,1320,ls),
(368,1346,o),
(354,1360,o),
(328,1360,cs),
(140,1360,ls),
(114,1360,o),
(100,1346,o),
(100,1320,cs),
(100,40,ls),
(100,14,o),
(114,0,o),
(140,0,cs)
);
},
{
closed = 1;
nodes = (
(368,552,l),
(364,682,o),
(464,730,o),
(544,730,cs),
(618,730,o),
(700,688,o),
(700,516,cs),
(700,40,ls),
(700,14,o),
(714,0,o),
(740,0,cs),
(920,0,ls),
(946,0,o),
(960,14,o),
(960,40,cs),
(960,516,ls),
(960,854,o),
(759,954,o),
(580,954,cs),
(356,954,o),
(310,796,o),
(308,552,c)
);
}
);
width = 1050;
},
{
anchors = (
{
name = bottom;
pos = (480,-263);
},
{
name = center;
pos = (228,825);
},
{
name = top;
pos = (480,1097);
}
);
layerId = "1B8EDE0E-D46F-48F9-B9C6-2CD34FEA95FD";
shapes = (
{
closed = 1;
nodes = (
(248,0,ls),
(267,0,o),
(278,10,o),
(278,30,cs),
(278,1330,ls),
(278,1350,o),
(267,1360,o),
(248,1360,cs),
(132,1360,ls),
(113,1360,o),
(102,1350,o),
(102,1330,cs),
(102,30,ls),
(102,11,o),
(113,0,o),
(132,0,cs)
);
},
{
closed = 1;
nodes = (
(278,554,l),
(284,713,o),
(362,804,o),
(492,804,cs),
(625,804,o),
(706,709,o),
(706,554,cs),
(706,30,ls),
(706,11,o),
(717,0,o),
(736,0,cs),
(846,0,ls),
(865,0,o),
(876,11,o),
(876,30,cs),
(876,558,ls),
(876,800,o),
(735,954,o),
(512,954,cs),
(305,954,o),
(202,821,o),
(202,554,c)
);
}
);
width = 968;
}
);
metricLeft = n;
metricRight = "=n-10";
unicode = 104;
},
{
glyphname = i;
lastChange = "2025-11-23 11:10:46 +0000";
layers = (
{
anchors = (
{
name = bottom;
pos = (176,0);
}
);
layerId = m004;
shapes = (
{
closed = 1;
nodes = (
(317,-24,ls),
(326,-24,o),
(332,-19,o),
(332,-9,cs),
(332,33,ls),
(332,43,o),
(326,48,o),
(317,48,cs),
(306,48,ls),
(246,48,o),
(208,60,o),
(208,164,c),
(208,915,ls),
(208,925,o),
(202,930,o),
(193,930,cs),
(143,930,ls),
(134,930,o),
(128,925,o),
(128,915,cs),
(128,142,l),
(128,16,o),
(192,-24,o),
(306,-24,cs)
);
},
{
closed = 1;
nodes = (
(207,1059,o),
(232,1084,o),
(232,1125,cs),
(232,1166,o),
(207,1191,o),
(166,1191,cs),
(125,1191,o),
(100,1166,o),
(100,1125,cs),
(100,1084,o),
(125,1059,o),
(166,1059,cs)
);
}
);
width = 360;
},
{
anchors = (
{
name = bottom;
pos = (272,0);
}
);
background = {
shapes = (
{
closed = 0;
nodes = (
(267,92,ls),
(227,92,o),
(214,109,o),
(214,138,cs)
);
}
);
};
layerId = m005;
shapes = (
{
closed = 1;
nodes = (
(428,0,ls),
(454,0,o),
(468,14,o),
(468,40,cs),
(468,206,ls),
(468,232,o),
(456,246,o),
(434,246,cs),
(434,246,ls),
(390,246,o),
(372,264,o),
(372,316,cs),
(374,930,l),
(106,930,l),
(104,260,ls),
(103,78,o),
(218,0,o),
(354,0,cs)
);
},
{
closed = 1;
nodes = (
(338,1008,o),
(390,1066,o),
(390,1156,cs),
(390,1244,o),
(336,1300,o),
(238,1300,cs),
(140,1300,o),
(86,1244,o),
(86,1156,cs),
(86,1066,o),
(138,1008,o),
(238,1008,cs)
);
}
);
width = 568;
},
{
anchors = (
{
name = bottom;
pos = (222,-533);
}
);
layerId = "1B8EDE0E-D46F-48F9-B9C6-2CD34FEA95FD";
shapes = (
{
closed = 1;
nodes = (
(382,0,ls),
(401,0,o),
(412,11,o),
(412,30,cs),
(412,128,ls),
(412,148,o),
(402,158,o),
(384,158,cs),
(384,158,ls),
(324,158,o),
(288,192,o),
(288,258,c),
(290,900,ls),
(290,919,o),
(279,930,o),
(260,930,cs),
(146,930,ls),
(127,930,o),
(116,920,o),
(116,900,cs),
(114,272,l),
(114,76,o),
(226,0,o),
(374,0,cs)
);
},
{
closed = 1;
nodes = (
(272,1080,o),
(312,1120,o),
(312,1190,cs),
(312,1260,o),
(272,1300,o),
(200,1300,cs),
(128,1300,o),
(90,1260,o),
(90,1190,cs),
(90,1120,o),
(128,1080,o),
(200,1080,cs)
);
}
);
width = 477;
}
);
unicode = 105;
},
{
glyphname = idotless;
lastChange = "2025-11-21 21:37:28 +0000";
layers = (
{
anchors = (
{
name = bottom;
pos = (138,0);
},
{
name = ogonek;
pos = (322,0);
},
{
name = top;
pos = (138,900);
}
);
layerId = m004;
shapes = (
{
closed = 1;
nodes = (
(322,-10,l),
(322,62,l),
(296,62,ls),
(236,62,o),
(198,74,o),
(198,178,c),
(198,910,l),
(118,910,l),
(118,156,l),
(118,30,o),
(182,-10,o),
(296,-10,cs)
);
}
);
width = 350;
},
{
anchors = (
{
name = bottom;
pos = (190,0);
},
{
name = ogonek;
pos = (398,0);
},
{
name = top;
pos = (190,900);
}
);
layerId = "1B8EDE0E-D46F-48F9-B9C6-2CD34FEA95FD";
shapes = (
{
closed = 1;
nodes = (
(398,0,l),
(398,158,l),
(370,158,ls),
(310,158,o),
(274,192,o),
(274,258,c),
(276,900,l),
(102,900,l),
(100,272,l),
(100,76,o),
(212,0,o),
(360,0,cs)
);
}
);
width = 463;
},
{
anchors = (
{
name = bottom;
pos = (212,0);
},
{
name = ogonek;
pos = (488,0);
},
{
name = top;
pos = (212,900);
}
);
layerId = m005;
shapes = (
{
closed = 1;
nodes = (
(488,0,l),
(488,228,l),
(374,228,ls),
(330,228,o),
(312,246,o),
(312,298,cs),
(314,900,l),
(46,900,l),
(44,332,ls),
(44,100,o),
(190,0,o),
(362,0,cs)
);
}
);
width = 588;
}
);
metricRight = i;
unicode = 305;
},
{
glyphname = j;
lastChange = "2025-11-23 11:10:57 +0000";
layers = (
{
layerId = m004;
shapes = (
{
closed = 1;
nodes = (
(172,-400,o),
(236,-360,o),
(236,-234,c),
(236,915,ls),
(236,925,o),
(230,930,o),
(221,930,cs),
(171,930,ls),
(162,930,o),
(156,925,o),
(156,915,cs),
(156,-212,l),
(156,-316,o),
(118,-328,o),
(58,-328,cs),
(-39,-328,ls),
(-48,-328,o),
(-54,-333,o),
(-54,-343,cs),
(-54,-385,ls),
(-54,-395,o),
(-48,-400,o),
(-39,-400,cs),
(58,-400,ls)
);
},
{
closed = 1;
nodes = (
(234,1059,o),
(259,1084,o),
(259,1125,cs),
(259,1166,o),
(234,1191,o),
(193,1191,cs),
(152,1191,o),
(127,1166,o),
(127,1125,cs),
(127,1084,o),
(152,1059,o),
(193,1059,cs)
);
}
);
width = 359;
},
{
background = {
shapes = (
{
closed = 0;
nodes = (
(159,-70,ls),
(159,-161,o),
(102,-200,o),
(34,-200,cs)
);
}
);
};
layerId = m005;
shapes = (
{
closed = 1;
nodes = (
(270,-400,o),
(382,-322,o),
(382,-140,cs),
(380,890,ls),
(380,916,o),
(366,930,o),
(340,930,cs),
(150,930,ls),
(124,930,o),
(110,916,o),
(110,890,cs),
(112,-74,ls),
(112,-130,o),
(94,-154,o),
(36,-154,cs),
(-24,-154,ls),
(-50,-154,o),
(-64,-168,o),
(-64,-194,cs),
(-64,-360,ls),
(-64,-386,o),
(-50,-400,o),
(-24,-400,cs),
(132,-400,ls)
);
},
{
closed = 1;
nodes = (
(346,1009,o),
(398,1067,o),
(398,1157,cs),
(398,1245,o),
(344,1301,o),
(246,1301,cs),
(148,1301,o),
(94,1245,o),
(94,1157,cs),
(94,1067,o),
(146,1009,o),
(246,1009,cs)
);
}
);
width = 484;
},
{
background = {
shapes = (
{
closed = 1;
nodes = (
(171,-390,o),
(283,-314,o),
(283,-118,c),
(281,540,l),
(107,540,l),
(109,-132,l),
(109,-198,o),
(73,-232,o),
(13,-232,cs),
(-15,-232,l),
(-15,-390,l),
(23,-390,ls)
);
}
);
};
layerId = "1B8EDE0E-D46F-48F9-B9C6-2CD34FEA95FD";
shapes = (
{
closed = 1;
nodes = (
(171,-390,o),
(283,-314,o),
(284,-118,c),
(282,902,ls),
(282,922,o),
(271,932,o),
(252,932,cs),
(136,932,ls),
(117,932,o),
(106,921,o),
(106,902,cs),
(108,-132,l),
(108,-190,o),
(76,-228,o),
(23,-228,cs),
(-42,-228,ls),
(-61,-228,o),
(-72,-239,o),
(-72,-258,cs),
(-72,-360,ls),
(-72,-380,o),
(-61,-390,o),
(-42,-390,cs),
(23,-390,ls)
);
},
{
closed = 1;
nodes = (
(266,1076,o),
(306,1116,o),
(306,1186,cs),
(306,1256,o),
(266,1296,o),
(194,1296,cs),
(122,1296,o),
(84,1256,o),
(84,1186,cs),
(84,1116,o),
(122,1076,o),
(194,1076,cs)
);
}
);
width = 396;
}
);
metricRight = "=|i";
unicode = 106;
},
{
glyphname = k;
lastChange = "2025-11-23 11:11:09 +0000";
layers = (
{
anchors = (
{
name = bottom;
pos = (422,0);
},
{
name = top;
pos = (422,1360);
}
);
layerId = m004;
shapes = (
{
closed = 1;
nodes = (
(115,15,ls),
(115,5,o),
(121,0,o),
(130,0,cs),
(180,0,ls),
(189,0,o),
(195,5,o),
(195,15,cs),
(195,1345,ls),
(195,1355,o),
(189,1360,o),
(180,1360,cs),
(130,1360,ls),
(121,1360,o),
(115,1355,o),
(115,1345,cs)
);
},
{
closed = 1;
nodes = (
(408,670,l),
(343,615,l),
(683,10,ls),
(687,2,o),
(693,0,o),
(701,0,cs),
(755,0,ls),
(766,0,o),
(770,8,o),
(765,18,cs)
);
},
{
closed = 1;
nodes = (
(171,389,l),
(689,912,ls),
(698,922,o),
(694,930,o),
(681,930,cs),
(610,930,ls),
(603,930,o),
(596,927,o),
(591,922,cs),
(123,449,l)
);
}
);
width = 843;
},
{
anchors = (
{
name = bottom;
pos = (480,0);
},
{
name = top;
pos = (480,1360);
}
);
layerId = m005;
shapes = (
{
closed = 1;
nodes = (
(100,40,ls),
(100,14,o),
(114,0,o),
(140,0,cs),
(328,0,ls),
(354,0,o),
(368,14,o),
(368,40,cs),
(368,1320,ls),
(368,1346,o),
(354,1360,o),
(328,1360,cs),
(140,1360,ls),
(114,1360,o),
(100,1346,o),
(100,1320,cs)
);
},
{
closed = 1;
nodes = (
(556,617,l),
(252,617,l),
(651,26,ls),
(663,8,o),
(678,0,o),
(699,0,cs),
(908,0,ls),
(940,0,o),
(952,20,o),
(934,48,cs)
);
},
{
closed = 1;
nodes = (
(320,323,l),
(879,881,ls),
(905,907,o),
(893,930,o),
(858,930,cs),
(633,930,ls),
(613,930,o),
(598,924,o),
(584,909,cs),
(142,445,l)
);
}
);
width = 1066;
},
{
anchors = (
{
name = bottom;
pos = (424,0);
},
{
name = top;
pos = (424,1360);
}
);
layerId = "1B8EDE0E-D46F-48F9-B9C6-2CD34FEA95FD";
shapes = (
{
closed = 1;
nodes = (
(102,30,ls),
(102,11,o),
(113,0,o),
(132,0,cs),
(248,0,ls),
(267,0,o),
(278,10,o),
(278,30,cs),
(278,1330,ls),
(278,1350,o),
(267,1360,o),
(248,1360,cs),
(132,1360,ls),
(113,1360,o),
(102,1349,o),
(102,1330,cs)
);
},
{
closed = 1;
nodes = (
(494,620,l),
(314,608,l),
(660,20,ls),
(668,6,o),
(680,0,o),
(696,0,cs),
(816,0,ls),
(840,0,o),
(849,16,o),
(837,36,cs)
);
},
{
closed = 1;
nodes = (
(256,348,l),
(779,893,ls),
(797,912,o),
(789,930,o),
(763,930,cs),
(620,930,ls),
(605,930,o),
(593,925,o),
(583,914,cs),
(136,432,l)
);
}
);
width = 905;
}
);
metricLeft = n;
unicode = 107;
},
{
glyphname = l;
lastChange = "2025-11-23 11:11:16 +0000";
layers = (
{
anchors = (
{
name = bottom;
pos = (174,0);
},
{
name = center;
pos = (174,450);
},
{
name = top;
pos = (174,1360);
},
{
name = topright;
pos = (319,1360);
}
);
background = {
shapes = (
{
closed = 1;
nodes = (
(187,-10,l),
(187,20,l),
(168,20,ls),
(138,20,o),
(119,26,o),
(119,83,cs),
(119,680,l),
(85,680,l),
(85,73,ls),
(85,10,o),
(111,-10,o),
(168,-10,cs)
);
}
);
};
layerId = m004;
shapes = (
{
closed = 1;
nodes = (
(304,-24,ls),
(313,-24,o),
(319,-19,o),
(319,-9,cs),
(319,33,ls),
(319,43,o),
(313,48,o),
(304,48,cs),
(293,48,ls),
(233,48,o),
(195,60,o),
(195,164,c),
(195,1344,ls),
(195,1354,o),
(189,1359,o),
(180,1359,cs),
(130,1359,ls),
(121,1359,o),
(115,1354,o),
(115,1344,cs),
(115,142,l),
(115,16,o),
(179,-24,o),
(293,-24,cs)
);
}
);
width = 347;
},
{
anchors = (
{
name = bottom;
pos = (264,0);
},
{
name = center;
pos = (264,450);
},
{
name = top;
pos = (264,1360);
},
{
name = topright;
pos = (464,1360);
}
);
background = {
shapes = (
{
closed = 0;
nodes = (
(105,130,ls),
(105,39,o),
(162,0,o),
(230,0,cs)
);
}
);
};
layerId = m005;
shapes = (
{
closed = 1;
nodes = (
(424,0,ls),
(450,0,o),
(464,14,o),
(464,40,cs),
(464,206,ls),
(464,232,o),
(452,246,o),
(430,246,cs),
(430,246,ls),
(386,246,o),
(368,264,o),
(368,316,cs),
(370,1260,ls),
(370,1286,o),
(356,1300,o),
(330,1300,cs),
(142,1300,ls),
(116,1300,o),
(102,1286,o),
(102,1260,cs),
(100,260,ls),
(100,78,o),
(214,0,o),
(350,0,cs)
);
}
);
width = 564;
},
{
anchors = (
{
name = bottom;
pos = (208,-667);
},
{
name = center;
pos = (208,-217);
},
{
name = top;
pos = (208,693);
},
{
name = topright;
pos = (402,693);
}
);
layerId = "1B8EDE0E-D46F-48F9-B9C6-2CD34FEA95FD";
shapes = (
{
closed = 1;
nodes = (
(372,0,ls),
(391,0,o),
(402,11,o),
(402,30,cs),
(402,128,ls),
(402,148,o),
(391,158,o),
(372,158,cs),
(372,158,ls),
(312,158,o),
(278,192,o),
(278,258,c),
(280,1316,ls),
(280,1335,o),
(269,1346,o),
(250,1346,cs),
(134,1346,ls),
(115,1346,o),
(104,1336,o),
(104,1316,cs),
(102,274,l),
(102,78,o),
(214,0,o),
(362,0,cs)
);
}
);
width = 467;
}
);
metricLeft = "=n";
metricRight = i;
unicode = 108;
},
{
glyphname = lslash;
lastChange = "2025-11-21 20:58:09 +0000";
layers = (
{
layerId = m004;
shapes = (
{
ref = l;
},
{
closed = 1;
nodes = (
(74,598,l),
(398,712,l),
(398,788,l),
(74,674,l)
);
}
);
width = 277;
},
{
layerId = "1B8EDE0E-D46F-48F9-B9C6-2CD34FEA95FD";
shapes = (
{
ref = l;
},
{
closed = 1;
nodes = (
(57,1247,l),
(461,1381,l),
(461,1561,l),
(57,1427,l)
);
}
);
width = 310;
},
{
layerId = m005;
shapes = (
{
ref = l;
},
{
closed = 1;
nodes = (
(12,528,l),
(456,662,l),
(456,902,l),
(12,768,l)
);
}
);
width = 261;
}
);
unicode = 322;
},
{
glyphname = m;
lastChange = "2025-11-23 11:12:46 +0000";
layers = (
{
anchors = (
{
name = bottom;
pos = (730,0);
},
{
name = top;
pos = (730,930);
}
);
background = {
shapes = (
{
closed = 0;
nodes = (
(135,450,l),
(148,404,l),
(171,404,l)
);
}
);
};
layerId = m004;
shapes = (
{
closed = 1;
nodes = (
(180,0,ls),
(189,0,o),
(195,5,o),
(195,15,cs),
(195,762,l),
(215,830,l),
(195,830,l),
(178,917,ls),
(176,926,o),
(170,930,o),
(161,930,cs),
(130,930,ls),
(121,930,o),
(115,925,o),
(115,915,cs),
(115,15,ls),
(115,5,o),
(121,0,o),
(130,0,cs)
);
},
{
closed = 1;
nodes = (
(755,0,ls),
(764,0,o),
(770,5,o),
(770,15,cs),
(770,614,ls),
(770,846,o),
(634,954,o),
(464,954,cs),
(250,954,o),
(141,802,o),
(158,536,c),
(194,536,l),
(194,758,o),
(302,882,o),
(464,882,cs),
(596,882,o),
(690,776,o),
(690,600,cs),
(690,15,ls),
(690,5,o),
(696,0,o),
(705,0,cs)
);
},
{
closed = 1;
nodes = (
(1331,0,ls),
(1340,0,o),
(1346,5,o),
(1346,15,cs),
(1346,614,ls),
(1346,846,o),
(1210,954,o),
(1040,954,cs),
(836,954,o),
(734,802,o),
(734,536,c),
(770,536,l),
(770,758,o),
(878,882,o),
(1040,882,cs),
(1172,882,o),
(1266,776,o),
(1266,600,cs),
(1266,15,ls),
(1266,5,o),
(1272,0,o),
(1281,0,cs)
);
}
);
width = 1461;
},
{
anchors = (
{
name = bottom;
pos = (801,0);
},
{
name = top;
pos = (801,930);
}
);
background = {
shapes = (
{
closed = 1;
nodes = (
(938,0,l),
(938,486,ls),
(938,824,o),
(758,924,o),
(566,924,cs),
(336,924,o),
(270,766,o),
(268,522,c),
(368,522,l),
(366,658,o),
(439,700,o),
(519,700,cs),
(599,700,o),
(672,654,o),
(672,522,cs),
(672,0,l)
);
}
);
};
layerId = m005;
shapes = (
{
closed = 1;
nodes = (
(328,0,ls),
(354,0,o),
(368,14,o),
(368,40,cs),
(368,828,l),
(354,828,l),
(334,828,l),
(314,895,ls),
(307,917,o),
(292,928,o),
(269,928,cs),
(140,928,ls),
(114,928,o),
(100,914,o),
(100,888,cs),
(100,40,ls),
(100,14,o),
(114,0,o),
(140,0,cs)
);
},
{
closed = 1;
nodes = (
(912,0,ls),
(938,0,o),
(952,14,o),
(952,40,cs),
(952,554,ls),
(952,804,o),
(808,952,o),
(600,952,cs),
(386,952,o),
(286,794,o),
(268,550,c),
(368,550,l),
(366,686,o),
(449,728,o),
(529,728,cs),
(609,728,o),
(692,682,o),
(692,551,cs),
(692,40,ls),
(692,14,o),
(706,0,o),
(732,0,cs)
);
},
{
closed = 1;
nodes = (
(1482,0,ls),
(1508,0,o),
(1522,14,o),
(1522,40,cs),
(1522,514,ls),
(1522,852,o),
(1352,952,o),
(1160,952,cs),
(930,952,o),
(854,794,o),
(852,550,c),
(952,550,l),
(950,686,o),
(1023,728,o),
(1103,728,cs),
(1183,728,o),
(1256,682,o),
(1256,550,cs),
(1256,40,ls),
(1256,14,o),
(1270,0,o),
(1296,0,cs)
);
}
);
width = 1622;
},
{
anchors = (
{
name = bottom;
pos = (748,0);
},
{
name = top;
pos = (748,930);
}
);
layerId = "1B8EDE0E-D46F-48F9-B9C6-2CD34FEA95FD";
shapes = (
{
closed = 1;
nodes = (
(248,0,ls),
(267,0,o),
(278,11,o),
(278,30,cs),
(278,850,l),
(268,850,l),
(248,850,l),
(234,904,ls),
(230,922,o),
(219,930,o),
(201,930,cs),
(132,930,ls),
(113,930,o),
(102,919,o),
(102,900,cs),
(102,30,ls),
(102,11,o),
(113,0,o),
(132,0,cs)
);
},
{
closed = 1;
nodes = (
(806,0,ls),
(825,0,o),
(836,11,o),
(836,30,cs),
(836,584,ls),
(836,802,o),
(704,954,o),
(514,954,cs),
(317,954,o),
(183,794,o),
(206,584,c),
(278,564,l),
(278,742,o),
(384,804,o),
(472,804,cs),
(560,804,o),
(666,742,o),
(666,564,cs),
(666,30,ls),
(666,11,o),
(677,0,o),
(696,0,cs)
);
},
{
closed = 1;
nodes = (
(1364,0,ls),
(1383,0,o),
(1394,10,o),
(1394,30,cs),
(1394,568,ls),
(1394,856,o),
(1216,954,o),
(1058,954,cs),
(892,954,o),
(758,844,o),
(752,584,c),
(836,584,l),
(842,742,o),
(942,804,o),
(1030,804,cs),
(1118,804,o),
(1224,742,o),
(1224,564,cs),
(1224,30,ls),
(1224,11,o),
(1235,0,o),
(1254,0,cs)
);
}
);
width = 1496;
}
);
metricLeft = "=n";
metricRight = "=n";
unicode = 109;
},
{
glyphname = n;
lastChange = "2025-11-23 11:13:05 +0000";
layers = (
{
anchors = (
{
name = bottom;
pos = (462,0);
},
{
name = top;
pos = (462,900);
}
);
background = {
shapes = (
{
closed = 0;
nodes = (
(282,466,ls),
(142,466,o),
(92,323,o),
(86,213,c)
);
}
);
};
layerId = m004;
shapes = (
{
closed = 1;
nodes = (
(180,0,ls),
(189,0,o),
(195,5,o),
(195,15,cs),
(195,762,l),
(215,830,l),
(195,830,l),
(178,917,ls),
(176,926,o),
(170,930,o),
(161,930,cs),
(130,930,ls),
(121,930,o),
(115,925,o),
(115,915,cs),
(115,15,ls),
(115,5,o),
(121,0,o),
(130,0,cs)
);
},
{
closed = 1;
nodes = (
(756,0,ls),
(765,0,o),
(771,5,o),
(771,15,cs),
(771,614,ls),
(771,846,o),
(635,954,o),
(465,954,cs),
(251,954,o),
(143,802,o),
(159,536,c),
(195,536,l),
(195,758,o),
(303,882,o),
(465,882,cs),
(597,882,o),
(691,776,o),
(691,600,cs),
(691,15,ls),
(691,5,o),
(697,0,o),
(706,0,cs)
);
}
);
width = 925;
},
{
anchors = (
{
name = bottom;
pos = (532,0);
},
{
name = top;
pos = (580,954);
}
);
background = {
shapes = (
{
closed = 0;
nodes = (
(811,306,ls),
(811,432,o),
(751,466,o),
(646,466,cs)
);
}
);
};
layerId = m005;
shapes = (
{
closed = 1;
nodes = (
(368,541,l),
(368,686,o),
(452,732,o),
(532,732,cs),
(612,732,o),
(700,686,o),
(700,541,cs),
(700,40,ls),
(700,14,o),
(714,0,o),
(740,0,cs),
(924,0,ls),
(950,0,o),
(964,14,o),
(964,40,cs),
(964,516,ls),
(964,854,o),
(766,954,o),
(580,954,cs),
(345,954,o),
(320,795,o),
(308,541,c)
);
},
{
closed = 1;
nodes = (
(328,0,ls),
(354,0,o),
(368,14,o),
(368,40,cs),
(368,830,l),
(354,830,l),
(334,830,l),
(314,897,ls),
(307,919,o),
(292,930,o),
(269,930,cs),
(140,930,ls),
(114,930,o),
(100,916,o),
(100,890,cs),
(100,40,ls),
(100,14,o),
(114,0,o),
(140,0,cs)
);
}
);
width = 1064;
},
{
anchors = (
{
name = bottom;
pos = (490,0);
},
{
name = top;
pos = (490,900);
}
);
layerId = "1B8EDE0E-D46F-48F9-B9C6-2CD34FEA95FD";
shapes = (
{
closed = 1;
nodes = (
(278,554,l),
(284,708,o),
(372,804,o),
(492,804,cs),
(612,804,o),
(706,742,o),
(706,554,cs),
(706,30,ls),
(706,11,o),
(717,0,o),
(736,0,cs),
(846,0,ls),
(865,0,o),
(876,11,o),
(876,30,cs),
(876,558,ls),
(876,856,o),
(698,954,o),
(520,954,cs),
(316,954,o),
(162,814,o),
(202,554,c)
);
},
{
closed = 1;
nodes = (
(248,0,ls),
(267,0,o),
(278,11,o),
(278,30,cs),
(278,850,l),
(268,850,l),
(248,850,l),
(234,904,ls),
(230,922,o),
(219,930,o),
(201,930,cs),
(132,930,ls),
(113,930,o),
(102,919,o),
(102,900,cs),
(102,30,ls),
(102,11,o),
(113,0,o),
(132,0,cs)
);
}
);
width = 978;
}
);
metricRight = "=|";
unicode = 110;
},
{
glyphname = o;
lastChange = "2025-11-21 20:58:09 +0000";
layers = (
{
anchors = (
{
name = bottom;
pos = (455,0);
},
{
name = center;
pos = (455,450);
},
{
name = ogonek;
pos = (801,10);
},
{
name = top;
pos = (455,900);
},
{
name = topright;
pos = (867,900);
}
);
layerId = m004;
shapes = (
{
closed = 1;
nodes = (
(325,48,o),
(171,110,o),
(169,344,cs),
(168,566,ls),
(171,820,o),
(325,882,o),
(455,882,cs),
(575,882,o),
(739,820,o),
(742,566,cs),
(741,344,ls),
(739,110,o),
(575,48,o),
(455,48,cs)
);
},
{
closed = 1;
nodes = (
(615,-24,o),
(819,80,o),
(821,342,cs),
(822,568,ls),
(819,850,o),
(615,954,o),
(455,954,cs),
(285,954,o),
(91,854,o),
(88,568,cs),
(89,342,ls),
(91,76,o),
(285,-24,o),
(455,-24,cs)
);
}
);
width = 910;
},
{
anchors = (
{
name = bottom;
pos = (468,12);
},
{
name = center;
pos = (468,462);
},
{
name = ogonek;
pos = (864,32);
},
{
name = top;
pos = (468,912);
},
{
name = topright;
pos = (924,912);
}
);
layerId = m005;
shapes = (
{
closed = 1;
nodes = (
(392,215,o),
(290,255,o),
(290,393,cs),
(290,537,ls),
(290,673,o),
(392,715,o),
(468,715,cs),
(544,715,o),
(646,673,o),
(646,537,cs),
(646,393,ls),
(646,255,o),
(544,215,o),
(468,215,cs)
);
},
{
closed = 1;
nodes = (
(660,-24,o),
(908,72,o),
(908,394,cs),
(908,536,ls),
(908,858,o),
(640,954,o),
(468,954,cs),
(276,954,o),
(28,862,o),
(28,536,cs),
(28,394,ls),
(28,72,o),
(276,-24,o),
(468,-24,cs)
);
}
);
width = 936;
},
{
anchors = (
{
name = bottom;
pos = (478,12);
},
{
name = center;
pos = (478,462);
},
{
name = ogonek;
pos = (858,32);
},
{
name = top;
pos = (478,912);
},
{
name = topright;
pos = (914,912);
}
);
layerId = "1B8EDE0E-D46F-48F9-B9C6-2CD34FEA95FD";
shapes = (
{
closed = 1;
nodes = (
(339,138,o),
(250,238,o),
(250,366,cs),
(250,564,ls),
(250,693,o),
(339,796,o),
(478,796,cs),
(616,796,o),
(704,694,o),
(704,564,cs),
(704,366,ls),
(704,238,o),
(617,138,o),
(478,138,cs)
);
},
{
closed = 1;
nodes = (
(717,-22,o),
(874,140,o),
(874,366,cs),
(874,564,ls),
(874,789,o),
(713,956,o),
(478,956,cs),
(241,956,o),
(80,790,o),
(80,564,cs),
(80,366,ls),
(80,141,o),
(239,-22,o),
(478,-22,cs)
);
}
);
width = 954;
}
);
metricRight = "=|";
unicode = 111;
},
{
glyphname = oslash;
lastChange = "2025-11-21 20:58:09 +0000";
layers = (
{
anchors = (
{
name = top;
pos = (277,900);
}
);
layerId = m004;
shapes = (
{
ref = o;
},
{
closed = 1;
nodes = (
(196,12,l),
(832,912,l),
(728,910,l),
(92,12,l)
);
}
);
width = 920;
},
{
anchors = (
{
name = top;
pos = (478,912);
}
);
layerId = "1B8EDE0E-D46F-48F9-B9C6-2CD34FEA95FD";
shapes = (
{
ref = o;
},
{
closed = 1;
nodes = (
(286,12,l),
(874,912,l),
(668,912,l),
(80,12,l)
);
}
);
width = 954;
},
{
anchors = (
{
name = top;
pos = (478,912);
}
);
layerId = m005;
shapes = (
{
ref = o;
},
{
closed = 1;
nodes = (
(272,12,l),
(958,912,l),
(704,912,l),
(18,12,l)
);
}
);
width = 976;
}
);
metricRight = "=|";
unicode = 248;
},
{
glyphname = p;
lastChange = "2025-11-23 11:13:09 +0000";
layers = (
{
anchors = (
{
name = bottom;
pos = (462,0);
},
{
name = top;
pos = (462,930);
}
);
background = {
shapes = (
{
closed = 1;
nodes = (
(124,304,l),
(124,379,l),
(124,386,l),
(114,450,l),
(85,450,l),
(85,304,l)
);
}
);
};
layerId = m004;
shapes = (
{
closed = 1;
nodes = (
(180,-400,ls),
(189,-400,o),
(195,-395,o),
(195,-385,cs),
(195,762,l),
(215,830,l),
(195,830,l),
(178,917,ls),
(176,926,o),
(170,930,o),
(161,930,cs),
(130,930,ls),
(121,930,o),
(115,925,o),
(115,915,cs),
(115,-385,ls),
(115,-395,o),
(121,-400,o),
(130,-400,cs)
);
},
{
closed = 1;
nodes = (
(256,954,o),
(148,814,o),
(142,528,c),
(196,526,l),
(202,780,o),
(300,882,o),
(480,882,cs),
(594,882,o),
(761,820,o),
(760,566,cs),
(759,364,ls),
(758,174,o),
(654,48,o),
(500,48,cs),
(323,48,o),
(201,182,o),
(196,384,c),
(144,382,l),
(149,138,o),
(297,-24,o),
(500,-24,cs),
(704,-24,o),
(837,134,o),
(839,362,cs),
(840,568,ls),
(842,850,o),
(634,954,o),
(480,954,cs)
);
}
);
width = 928;
},
{
anchors = (
{
name = bottom;
pos = (494,0);
},
{
name = top;
pos = (494,930);
}
);
background = {
shapes = (
{
closed = 1;
nodes = (
(431,-12,o),
(530,38,o),
(530,207,cs),
(530,243,ls),
(530,411,o),
(429,462,o),
(333,462,cs),
(229,462,o),
(184,387,o),
(184,261,c),
(234,261,l),
(233,329,o),
(273,350,o),
(312,350,cs),
(350,350,o),
(400,330,o),
(400,243,cs),
(400,207,ls),
(400,121,o),
(350,100,o),
(312,100,cs),
(273,100,o),
(233,122,o),
(234,189,c),
(194,189,l),
(194,66,o),
(244,-12,o),
(333,-12,cs)
);
}
);
};
layerId = m005;
shapes = (
{
closed = 1;
nodes = (
(328,-424,ls),
(354,-424,o),
(368,-410,o),
(368,-384,cs),
(368,830,l),
(354,830,l),
(334,830,l),
(314,897,ls),
(307,919,o),
(292,930,o),
(269,930,cs),
(140,930,ls),
(114,930,o),
(100,916,o),
(100,890,cs),
(100,-384,ls),
(100,-410,o),
(114,-424,o),
(140,-424,cs)
);
},
{
closed = 1;
nodes = (
(371,954,o),
(305,804,o),
(273,536,c),
(368,536,l),
(366,688,o),
(465,730,o),
(543,730,cs),
(619,730,o),
(700,680,o),
(700,536,cs),
(700,394,ls),
(700,252,o),
(619,200,o),
(543,200,cs),
(465,200,o),
(366,244,o),
(368,394,c),
(288,394,l),
(288,132,o),
(366,-24,o),
(583,-24,cs),
(759,-24,o),
(960,76,o),
(960,414,cs),
(960,516,ls),
(960,852,o),
(767,954,o),
(588,954,cs)
);
}
);
width = 988;
},
{
anchors = (
{
name = bottom;
pos = (481,0);
},
{
name = top;
pos = (481,930);
}
);
layerId = "1B8EDE0E-D46F-48F9-B9C6-2CD34FEA95FD";
shapes = (
{
closed = 1;
nodes = (
(248,-400,ls),
(267,-400,o),
(278,-389,o),
(278,-370,cs),
(278,850,l),
(268,850,l),
(248,850,l),
(234,904,ls),
(230,922,o),
(219,930,o),
(201,930,cs),
(132,930,ls),
(113,930,o),
(102,919,o),
(102,900,cs),
(102,-370,ls),
(102,-390,o),
(113,-400,o),
(132,-400,cs)
);
},
{
closed = 1;
nodes = (
(736,-24,o),
(882,136,o),
(882,384,cs),
(882,542,ls),
(882,787,o),
(735,954,o),
(520,954,cs),
(318,954,o),
(207,827,o),
(200,586,c),
(278,586,l),
(278,722,o),
(361,804,o),
(488,804,cs),
(622,804,o),
(712,711,o),
(712,572,cs),
(712,364,ls),
(712,211,o),
(632,126,o),
(488,126,cs),
(362,126,o),
(285,204,o),
(278,338,c),
(190,338,l),
(194,108,o),
(311,-24,o),
(510,-24,cs)
);
}
);
width = 962;
}
);
metricLeft = "=n";
metricRight = o;
unicode = 112;
},
{
glyphname = q;
lastChange = "2025-11-23 11:13:22 +0000";
layers = (
{
anchors = (
{
name = bottom;
pos = (465,0);
},
{
name = top;
pos = (465,930);
}
);
layerId = m004;
shapes = (
{
closed = 1;
nodes = (
(797,-400,ls),
(806,-400,o),
(812,-395,o),
(812,-385,cs),
(812,915,ls),
(812,925,o),
(806,930,o),
(797,930,cs),
(766,930,ls),
(757,930,o),
(751,926,o),
(749,917,cs),
(732,830,l),
(712,830,l),
(732,762,l),
(732,-385,ls),
(732,-395,o),
(738,-400,o),
(747,-400,cs)
);
},
{
closed = 1;
nodes = (
(294,954,o),
(86,850,o),
(88,568,cs),
(89,362,ls),
(91,134,o),
(224,-24,o),
(428,-24,cs),
(631,-24,o),
(779,138,o),
(784,382,c),
(732,384,l),
(727,182,o),
(605,48,o),
(428,48,cs),
(274,48,o),
(170,174,o),
(169,364,cs),
(168,566,ls),
(167,820,o),
(334,882,o),
(448,882,cs),
(628,882,o),
(726,780,o),
(732,526,c),
(786,528,l),
(780,814,o),
(672,954,o),
(448,954,cs)
);
}
);
width = 927;
},
{
anchors = (
{
name = bottom;
pos = (494,0);
},
{
name = top;
pos = (494,930);
}
);
layerId = m005;
shapes = (
{
closed = 1;
nodes = (
(848,-400,ls),
(874,-400,o),
(888,-386,o),
(888,-360,cs),
(888,890,ls),
(888,916,o),
(874,930,o),
(848,930,cs),
(719,930,ls),
(696,930,o),
(681,919,o),
(674,897,cs),
(654,830,l),
(634,830,l),
(620,830,l),
(620,-360,ls),
(620,-386,o),
(634,-400,o),
(660,-400,cs)
);
},
{
closed = 1;
nodes = (
(221,954,o),
(28,852,o),
(28,516,cs),
(28,414,ls),
(28,76,o),
(229,-24,o),
(405,-24,cs),
(622,-24,o),
(700,132,o),
(700,394,c),
(620,394,l),
(622,244,o),
(523,200,o),
(445,200,cs),
(369,200,o),
(288,252,o),
(288,394,cs),
(288,536,ls),
(288,680,o),
(369,730,o),
(445,730,cs),
(523,730,o),
(622,688,o),
(620,536,c),
(715,536,l),
(683,804,o),
(617,954,o),
(400,954,cs)
);
}
);
width = 988;
},
{
anchors = (
{
name = bottom;
pos = (482,0);
},
{
name = top;
pos = (482,930);
}
);
layerId = "1B8EDE0E-D46F-48F9-B9C6-2CD34FEA95FD";
shapes = (
{
closed = 1;
nodes = (
(832,-400,ls),
(851,-400,o),
(862,-389,o),
(862,-370,cs),
(862,900,ls),
(862,920,o),
(851,930,o),
(832,930,cs),
(763,930,ls),
(745,930,o),
(734,922,o),
(730,904,cs),
(716,850,l),
(696,850,l),
(686,850,l),
(686,-370,ls),
(686,-390,o),
(697,-400,o),
(716,-400,cs)
);
},
{
closed = 1;
nodes = (
(651,-24,o),
(768,108,o),
(772,338,c),
(684,338,l),
(677,204,o),
(600,126,o),
(474,126,cs),
(330,126,o),
(250,211,o),
(250,364,cs),
(250,572,ls),
(250,711,o),
(340,804,o),
(474,804,cs),
(601,804,o),
(684,722,o),
(684,586,c),
(762,586,l),
(755,827,o),
(644,954,o),
(442,954,cs),
(227,954,o),
(80,787,o),
(80,542,cs),
(80,384,ls),
(80,136,o),
(226,-24,o),
(452,-24,cs)
);
}
);
width = 964;
}
);
metricLeft = "=o";
metricRight = "=n";
unicode = 113;
},
{
glyphname = r;
lastChange = "2025-11-23 11:13:44 +0000";
layers = (
{
anchors = (
{
name = bottom;
pos = (249,0);
},
{
name = top;
pos = (249,900);
}
);
layerId = m004;
shapes = (
{
closed = 1;
nodes = (
(193,548,l),
(193,764,o),
(287,862,o),
(421,862,c),
(440,862,ls),
(449,862,o),
(455,867,o),
(455,877,cs),
(455,915,ls),
(455,925,o),
(449,930,o),
(440,930,cs),
(421,930,l),
(225,930,o),
(149,775,o),
(147,548,c)
);
},
{
closed = 1;
nodes = (
(180,0,ls),
(189,0,o),
(195,5,o),
(195,15,cs),
(195,762,l),
(215,830,l),
(195,830,l),
(178,917,ls),
(176,926,o),
(170,930,o),
(161,930,cs),
(130,930,ls),
(121,930,o),
(115,925,o),
(115,915,cs),
(115,15,ls),
(115,5,o),
(121,0,o),
(130,0,cs)
);
}
);
width = 497;
},
{
anchors = (
{
name = bottom;
pos = (348,0);
},
{
name = top;
pos = (348,900);
}
);
background = {
shapes = (
{
closed = 1;
nodes = (
(515,0,l),
(515,255,ls),
(515,415,o),
(413,462,o),
(326,462,cs),
(241,462,o),
(173,413,o),
(169,285,c),
(219,285,l),
(223,350,o),
(269,374,o),
(312,374,cs),
(355,374,o),
(415,350,o),
(415,255,cs),
(415,0,l)
);
}
);
};
layerId = m005;
shapes = (
{
closed = 1;
nodes = (
(369,438,l),
(369,666,o),
(432,690,o),
(578,690,cs),
(604,690,ls),
(630,690,o),
(644,704,o),
(644,730,cs),
(644,890,ls),
(644,916,o),
(630,930,o),
(604,930,cs),
(578,930,ls),
(306,930,o),
(343,722,o),
(286,440,c)
);
},
{
closed = 1;
nodes = (
(328,0,ls),
(354,0,o),
(368,14,o),
(368,40,cs),
(368,830,l),
(354,830,l),
(334,830,l),
(314,897,ls),
(307,919,o),
(292,930,o),
(269,930,cs),
(140,930,ls),
(114,930,o),
(100,916,o),
(100,890,cs),
(100,40,ls),
(100,14,o),
(114,0,o),
(140,0,cs)
);
}
);
width = 744;
},
{
anchors = (
{
name = bottom;
pos = (294,0);
},
{
name = top;
pos = (294,900);
}
);
layerId = "1B8EDE0E-D46F-48F9-B9C6-2CD34FEA95FD";
shapes = (
{
closed = 1;
nodes = (
(278,502,l),
(278,730,o),
(358,768,o),
(502,768,c),
(528,768,ls),
(547,768,o),
(558,779,o),
(558,798,cs),
(558,900,ls),
(558,920,o),
(547,930,o),
(528,930,cs),
(492,930,l),
(260,930,o),
(130,762,o),
(190,504,c)
);
},
{
closed = 1;
nodes = (
(248,0,ls),
(267,0,o),
(278,11,o),
(278,30,cs),
(278,850,l),
(268,850,l),
(248,850,l),
(234,904,ls),
(230,922,o),
(219,930,o),
(201,930,cs),
(132,930,ls),
(113,930,o),
(102,919,o),
(102,900,cs),
(102,30,ls),
(102,11,o),
(113,0,o),
(132,0,cs)
);
}
);
width = 616;
}
);
metricLeft = "=n";
unicode = 114;
},
{
glyphname = s;
lastChange = "2025-11-23 11:13:50 +0000";
layers = (
{
anchors = (
{
name = bottom;
pos = (333,0);
},
{
name = top;
pos = (333,900);
}
);
layerId = m004;
shapes = (
{
closed = 1;
nodes = (
(536,-24,o),
(656,52,o),
(656,216,cs),
(656,379,o),
(511,462,o),
(348,524,cs),
(213,575,o),
(150,625,o),
(150,734,cs),
(150,832,o),
(214,882,o),
(334,882,cs),
(449,882,o),
(541,841,o),
(548,719,cs),
(548,709,o),
(554,704,o),
(563,704,cs),
(613,704,ls),
(622,704,o),
(628,709,o),
(628,719,cs),
(620,897,o),
(472,954,o),
(334,954,cs),
(182,954,o),
(70,868,o),
(70,726,cs),
(70,591,o),
(135,518,o),
(315,454,cs),
(463,401,o),
(576,328,o),
(576,212,cs),
(576,62,o),
(442,48,o),
(354,48,cs),
(237,48,o),
(125,112,o),
(111,257,cs),
(110,267,o),
(105,272,o),
(96,272,cs),
(45,272,ls),
(35,272,o),
(30,266,o),
(31,256,cs),
(45,71,o),
(199,-24,o),
(354,-24,cs)
);
}
);
width = 686;
},
{
anchors = (
{
name = bottom;
pos = (394,12);
},
{
name = top;
pos = (394,912);
}
);
layerId = m005;
shapes = (
{
closed = 1;
nodes = (
(638,-24,o),
(756,104,o),
(756,232,cs),
(756,406,o),
(654,466,o),
(472,541,cs),
(343,595,o),
(308,617,o),
(308,688,cs),
(308,748,o),
(344,768,o),
(402,768,cs),
(460,768,o),
(498,735,o),
(503,671,cs),
(505,644,o),
(516,630,o),
(542,630,cs),
(718,630,ls),
(744,630,o),
(759,644,o),
(758,671,cs),
(747,904,o),
(531,954,o),
(402,954,cs),
(270,954,o),
(60,900,o),
(60,694,cs),
(60,554,o),
(125,472,o),
(304,389,cs),
(432,329,o),
(492,306,o),
(492,260,cs),
(492,228,o),
(472,190,o),
(408,190,cs),
(331,190,o),
(290,220,o),
(284,305,cs),
(282,332,o),
(270,346,o),
(244,346,cs),
(70,346,ls),
(44,346,o),
(29,332,o),
(30,306,cs),
(35,100,o),
(145,-24,o),
(414,-24,cs)
);
}
);
width = 789;
},
{
anchors = (
{
name = bottom;
pos = (372,0);
},
{
name = top;
pos = (372,890);
}
);
layerId = "1B8EDE0E-D46F-48F9-B9C6-2CD34FEA95FD";
shapes = (
{
closed = 1;
nodes = (
(586,-24,o),
(714,74,o),
(714,243,cs),
(714,406,o),
(525,479,o),
(416,518,cs),
(287,564,o),
(223,605,o),
(223,676,cs),
(223,751,o),
(285,799,o),
(377,799,cs),
(463,799,o),
(517,760,o),
(529,695,cs),
(532,676,o),
(541,666,o),
(560,666,cs),
(670,666,ls),
(689,666,o),
(701,677,o),
(699,697,cs),
(684,844,o),
(560,954,o),
(373,954,cs),
(172,954,o),
(53,823,o),
(53,678,cs),
(53,476,o),
(247,412,o),
(343,375,cs),
(423,344,o),
(546,313,o),
(546,226,cs),
(546,146,o),
(470,118,o),
(374,118,cs),
(273,118,o),
(209,160,o),
(198,262,cs),
(196,282,o),
(186,292,o),
(167,292,cs),
(61,292,ls),
(42,292,o),
(30,281,o),
(31,261,cs),
(44,77,o),
(154,-24,o),
(378,-24,cs)
);
}
);
width = 744;
}
);
metricLeft = "=30";
metricRight = "=|";
unicode = 115;
},
{
glyphname = t;
lastChange = "2025-11-23 11:14:06 +0000";
layers = (
{
anchors = (
{
name = bottom;
pos = (284,0);
},
{
name = center;
pos = (284,450);
},
{
name = top;
pos = (284,1094);
},
{
name = topright;
pos = (517,1360);
}
);
layerId = m004;
shapes = (
{
closed = 1;
nodes = (
(438,0,ls),
(447,0,o),
(453,5,o),
(453,15,cs),
(453,57,ls),
(453,67,o),
(447,72,o),
(438,72,cs),
(353,72,ls),
(293,72,o),
(255,84,o),
(255,188,c),
(255,1109,ls),
(255,1119,o),
(249,1124,o),
(240,1124,cs),
(190,1124,ls),
(181,1124,o),
(175,1119,o),
(175,1109,cs),
(175,166,l),
(175,40,o),
(239,0,o),
(353,0,cs)
);
},
{
closed = 1;
nodes = (
(438,858,ls),
(447,858,o),
(453,863,o),
(453,873,cs),
(453,915,ls),
(453,925,o),
(447,930,o),
(438,930,cs),
(80,930,ls),
(71,930,o),
(65,925,o),
(65,915,cs),
(65,873,ls),
(65,863,o),
(71,858,o),
(80,858,cs)
);
}
);
width = 513;
},
{
anchors = (
{
name = bottom;
pos = (366,0);
},
{
name = center;
pos = (366,450);
},
{
name = top;
pos = (366,1124);
},
{
name = topright;
pos = (712,1360);
}
);
layerId = m005;
shapes = (
{
closed = 1;
nodes = (
(614,0,ls),
(640,0,o),
(654,14,o),
(654,40,cs),
(654,206,ls),
(654,232,o),
(640,246,o),
(614,246,cs),
(498,246,ls),
(454,246,o),
(436,264,o),
(436,316,cs),
(438,1114,ls),
(438,1140,o),
(424,1154,o),
(398,1154,cs),
(210,1154,ls),
(184,1154,o),
(170,1140,o),
(170,1114,cs),
(168,264,ls),
(168,78,o),
(282,0,o),
(418,0,cs)
);
},
{
closed = 1;
nodes = (
(614,710,ls),
(640,710,o),
(654,724,o),
(654,750,cs),
(654,890,ls),
(654,916,o),
(640,930,o),
(614,930,cs),
(60,930,ls),
(34,930,o),
(20,916,o),
(20,890,cs),
(20,748,ls),
(20,722,o),
(34,708,o),
(60,708,cs)
);
}
);
width = 754;
},
{
anchors = (
{
name = bottom;
pos = (366,0);
},
{
name = center;
pos = (366,450);
},
{
name = top;
pos = (366,1114);
},
{
name = topright;
pos = (684,1360);
}
);
layerId = "1B8EDE0E-D46F-48F9-B9C6-2CD34FEA95FD";
shapes = (
{
closed = 1;
nodes = (
(570,0,ls),
(589,0,o),
(600,11,o),
(600,30,cs),
(600,128,ls),
(600,148,o),
(589,158,o),
(570,158,cs),
(480,158,ls),
(420,158,o),
(386,192,o),
(386,258,c),
(388,1114,ls),
(388,1133,o),
(377,1144,o),
(358,1144,cs),
(242,1144,ls),
(223,1144,o),
(212,1134,o),
(212,1114,cs),
(210,272,l),
(210,76,o),
(324,0,o),
(470,0,cs)
);
},
{
closed = 1;
nodes = (
(570,784,ls),
(589,784,o),
(600,794,o),
(600,814,cs),
(600,900,ls),
(600,920,o),
(589,930,o),
(570,930,cs),
(102,930,ls),
(83,930,o),
(72,919,o),
(72,900,cs),
(72,812,ls),
(72,793,o),
(83,782,o),
(102,782,cs)
);
}
);
width = 680;
}
);
metricLeft = "=f";
unicode = 116;
},
{
glyphname = u;
lastChange = "2025-11-23 11:14:19 +0000";
layers = (
{
anchors = (
{
name = bottom;
pos = (463,0);
},
{
name = ogonek;
pos = (817,10);
},
{
name = top;
pos = (463,930);
},
{
name = topright;
pos = (885,930);
}
);
layerId = m004;
shapes = (
{
closed = 1;
nodes = (
(731,354,l),
(731,132,o),
(623,48,o),
(441,48,cs),
(257,48,o),
(195,188,o),
(195,350,cs),
(195,915,ls),
(195,925,o),
(189,930,o),
(180,930,cs),
(130,930,ls),
(121,930,o),
(115,925,o),
(115,915,cs),
(115,358,ls),
(115,168,o),
(187,-24,o),
(441,-24,cs),
(675,-24,o),
(767,88,o),
(767,354,c)
);
},
{
closed = 1;
nodes = (
(795,0,ls),
(804,0,o),
(810,5,o),
(810,15,cs),
(810,915,ls),
(810,925,o),
(804,930,o),
(795,930,cs),
(745,930,ls),
(736,930,o),
(730,925,o),
(730,915,cs),
(730,168,l),
(710,100,l),
(730,100,l),
(747,13,ls),
(749,4,o),
(755,0,o),
(764,0,cs)
);
}
);
width = 925;
},
{
anchors = (
{
name = bottom;
pos = (532,0);
},
{
name = ogonek;
pos = (958,10);
},
{
name = top;
pos = (532,930);
},
{
name = topright;
pos = (1044,930);
}
);
layerId = m005;
shapes = (
{
closed = 1;
nodes = (
(696,389,l),
(696,244,o),
(612,198,o),
(532,198,cs),
(452,198,o),
(364,244,o),
(364,389,cs),
(364,890,ls),
(364,916,o),
(350,930,o),
(324,930,cs),
(140,930,ls),
(114,930,o),
(100,916,o),
(100,890,cs),
(100,414,ls),
(100,76,o),
(298,-24,o),
(484,-24,cs),
(719,-24,o),
(744,135,o),
(756,389,c)
);
},
{
closed = 1;
nodes = (
(924,0,ls),
(950,0,o),
(964,14,o),
(964,40,cs),
(964,890,ls),
(964,916,o),
(950,930,o),
(924,930,cs),
(736,930,ls),
(710,930,o),
(696,916,o),
(696,890,cs),
(696,100,l),
(710,100,l),
(730,100,l),
(750,33,ls),
(757,11,o),
(772,0,o),
(795,0,cs)
);
}
);
width = 1064;
},
{
anchors = (
{
name = bottom;
pos = (489,0);
},
{
name = ogonek;
pos = (880,10);
},
{
name = top;
pos = (489,930);
},
{
name = topright;
pos = (958,930);
}
);
layerId = "1B8EDE0E-D46F-48F9-B9C6-2CD34FEA95FD";
shapes = (
{
closed = 1;
nodes = (
(700,376,l),
(694,222,o),
(606,126,o),
(486,126,cs),
(366,126,o),
(272,188,o),
(272,376,cs),
(272,900,ls),
(272,920,o),
(261,930,o),
(242,930,cs),
(132,930,ls),
(113,930,o),
(102,919,o),
(102,900,cs),
(102,372,ls),
(102,74,o),
(280,-24,o),
(458,-24,cs),
(662,-24,o),
(816,116,o),
(776,376,c)
);
},
{
closed = 1;
nodes = (
(846,0,ls),
(865,0,o),
(876,11,o),
(876,30,cs),
(876,900,ls),
(876,920,o),
(865,930,o),
(846,930,cs),
(730,930,ls),
(711,930,o),
(700,919,o),
(700,900,cs),
(700,80,l),
(710,80,l),
(730,80,l),
(744,26,ls),
(748,8,o),
(759,0,o),
(777,0,cs)
);
}
);
width = 978;
}
);
metricLeft = "=|n";
metricRight = "=|n";
unicode = 117;
},
{
glyphname = v;
lastChange = "2025-11-23 11:14:41 +0000";
layers = (
{
anchors = (
{
name = bottom;
pos = (406,0);
},
{
name = top;
pos = (406,900);
}
);
layerId = m004;
shapes = (
{
closed = 1;
nodes = (
(368,12,ls),
(371,3,o),
(377,0,o),
(385,0,cs),
(427,0,ls),
(435,0,o),
(441,3,o),
(444,12,cs),
(746,913,ls),
(749,923,o),
(745,930,o),
(734,930,cs),
(683,930,ls),
(675,930,o),
(669,927,o),
(666,918,cs),
(386,66,l),
(428,66,l),
(144,918,ls),
(141,927,o),
(135,930,o),
(127,930,cs),
(78,930,ls),
(67,930,o),
(63,923,o),
(66,913,cs)
);
}
);
width = 812;
},
{
anchors = (
{
name = bottom;
pos = (487,0);
},
{
name = top;
pos = (487,900);
}
);
layerId = m005;
shapes = (
{
closed = 1;
nodes = (
(361,31,ls),
(369,10,o),
(384,0,o),
(407,0,cs),
(567,0,ls),
(590,0,o),
(605,10,o),
(613,31,cs),
(951,884,ls),
(962,912,o),
(949,930,o),
(919,930,cs),
(735,930,ls),
(712,930,o),
(697,919,o),
(689,898,cs),
(399,116,l),
(571,116,l),
(300,898,ls),
(292,920,o),
(278,930,o),
(255,930,cs),
(55,930,ls),
(25,930,o),
(12,912,o),
(23,884,cs)
);
}
);
width = 974;
},
{
anchors = (
{
name = bottom;
pos = (468,-1);
},
{
name = top;
pos = (468,899);
}
);
layerId = "1B8EDE0E-D46F-48F9-B9C6-2CD34FEA95FD";
shapes = (
{
closed = 1;
nodes = (
(381,25,ls),
(387,8,o),
(399,1,o),
(416,1,cs),
(520,1,ls),
(537,1,o),
(549,8,o),
(555,25,cs),
(873,895,ls),
(881,916,o),
(871,929,o),
(849,929,cs),
(742,929,ls),
(725,929,o),
(713,922,o),
(707,905,cs),
(432,121,l),
(502,121,l),
(234,905,ls),
(228,921,o),
(217,929,o),
(200,929,cs),
(87,929,ls),
(65,929,o),
(55,916,o),
(63,895,cs)
);
}
);
width = 936;
}
);
metricRight = "=|";
unicode = 118;
},
{
glyphname = w;
lastChange = "2025-11-23 11:15:10 +0000";
layers = (
{
anchors = (
{
name = bottom;
pos = (676,0);
},
{
name = top;
pos = (676,900);
}
);
layerId = m004;
shapes = (
{
closed = 1;
nodes = (
(407,0,ls),
(415,0,o),
(422,4,o),
(424,12,cs),
(688,864,l),
(664,864,l),
(928,12,ls),
(930,4,o),
(937,0,o),
(945,0,cs),
(987,0,ls),
(995,0,o),
(1001,3,o),
(1004,12,cs),
(1287,913,ls),
(1290,924,o),
(1285,930,o),
(1274,930,cs),
(1225,930,ls),
(1217,930,o),
(1211,927,o),
(1208,918,cs),
(942,62,l),
(990,60,l),
(728,918,ls),
(726,926,o),
(719,930,o),
(711,930,cs),
(641,930,ls),
(633,930,o),
(626,926,o),
(624,918,cs),
(364,66,l),
(410,66,l),
(144,918,ls),
(141,927,o),
(135,930,o),
(127,930,cs),
(78,930,ls),
(67,930,o),
(62,924,o),
(65,913,cs),
(348,12,ls),
(351,3,o),
(357,0,o),
(365,0,cs)
);
}
);
width = 1352;
},
{
anchors = (
{
name = bottom;
pos = (709,0);
},
{
name = top;
pos = (709,900);
}
);
layerId = m005;
shapes = (
{
closed = 1;
nodes = (
(510,0,ls),
(533,0,o),
(548,11,o),
(555,33,cs),
(773,754,l),
(641,754,l),
(884,33,ls),
(891,11,o),
(906,0,o),
(929,0,cs),
(1108,0,ls),
(1131,0,o),
(1147,12,o),
(1153,34,cs),
(1400,885,ls),
(1408,912,o),
(1394,930,o),
(1366,930,cs),
(1191,930,ls),
(1167,930,o),
(1152,920,o),
(1146,896,cs),
(961,174,l),
(1067,174,l),
(841,897,ls),
(834,920,o),
(819,930,o),
(796,930,cs),
(622,930,ls),
(599,930,o),
(583,918,o),
(577,896,cs),
(369,174,l),
(483,174,l),
(277,896,ls),
(271,918,o),
(255,930,o),
(232,930,cs),
(52,930,ls),
(23,930,o),
(10,912,o),
(19,885,cs),
(285,33,ls),
(292,10,o),
(307,0,o),
(330,0,cs)
);
}
);
width = 1418;
},
{
anchors = (
{
name = bottom;
pos = (704,-1);
},
{
name = top;
pos = (704,899);
}
);
layerId = "1B8EDE0E-D46F-48F9-B9C6-2CD34FEA95FD";
shapes = (
{
closed = 1;
nodes = (
(472,1,ls),
(489,1,o),
(501,9,o),
(506,26,cs),
(726,763,l),
(680,763,l),
(916,26,ls),
(921,10,o),
(933,1,o),
(950,1,cs),
(1066,1,ls),
(1083,1,o),
(1094,9,o),
(1099,26,cs),
(1348,895,ls),
(1354,915,o),
(1344,929,o),
(1323,929,cs),
(1215,929,ls),
(1197,929,o),
(1185,920,o),
(1181,903,cs),
(986,163,l),
(1028,163,l),
(798,904,ls),
(793,920,o),
(781,929,o),
(764,929,cs),
(644,929,ls),
(627,929,o),
(616,921,o),
(611,904,cs),
(394,163,l),
(436,163,l),
(227,904,ls),
(222,922,o),
(211,929,o),
(194,929,cs),
(85,929,ls),
(64,929,o),
(54,915,o),
(60,895,cs),
(322,26,ls),
(327,9,o),
(339,1,o),
(356,1,cs)
);
}
);
width = 1408;
}
);
metricLeft = "=v";
metricRight = "=|";
unicode = 119;
},
{
glyphname = x;
lastChange = "2025-11-23 11:15:01 +0000";
layers = (
{
anchors = (
{
name = bottom;
pos = (419,0);
},
{
name = top;
pos = (419,900);
}
);
layerId = m004;
shapes = (
{
closed = 1;
nodes = (
(765,1,ls),
(777,1,o),
(782,8,o),
(775,19,cs),
(160,919,ls),
(156,925,o),
(149,929,o),
(141,929,cs),
(83,929,ls),
(71,929,o),
(66,922,o),
(73,911,cs),
(688,11,ls),
(692,5,o),
(699,1,o),
(707,1,cs)
);
},
{
closed = 1;
nodes = (
(445,436,l),
(753,911,ls),
(759,921,o),
(755,929,o),
(743,929,cs),
(685,929,ls),
(677,929,o),
(671,926,o),
(667,919,cs),
(397,500,l)
);
},
{
closed = 1;
nodes = (
(131,1,ls),
(139,1,o),
(145,5,o),
(149,11,cs),
(437,436,l),
(389,500,l),
(63,19,ls),
(56,8,o),
(61,1,o),
(73,1,cs)
);
}
);
width = 838;
},
{
anchors = (
{
name = bottom;
pos = (508,-1);
},
{
name = top;
pos = (508,899);
}
);
layerId = m005;
shapes = (
{
closed = 1;
nodes = (
(946,1,ls),
(979,1,o),
(990,23,o),
(970,50,cs),
(344,904,ls),
(332,921,o),
(316,929,o),
(295,929,cs),
(70,929,ls),
(37,929,o),
(26,907,o),
(46,880,cs),
(672,26,ls),
(684,9,o),
(700,1,o),
(721,1,cs)
);
},
{
closed = 1;
nodes = (
(590,357,l),
(960,880,ls),
(979,907,o),
(967,929,o),
(934,929,cs),
(721,929,ls),
(700,929,o),
(684,922,o),
(672,904,cs),
(424,549,l)
);
},
{
closed = 1;
nodes = (
(285,1,ls),
(306,1,o),
(322,9,o),
(334,26,cs),
(612,405,l),
(446,595,l),
(46,50,ls),
(26,23,o),
(37,1,o),
(70,1,cs)
);
}
);
width = 1016;
},
{
anchors = (
{
name = bottom;
pos = (481,-1);
},
{
name = top;
pos = (481,899);
}
);
layerId = "1B8EDE0E-D46F-48F9-B9C6-2CD34FEA95FD";
shapes = (
{
closed = 1;
nodes = (
(859,1,ls),
(883,1,o),
(892,16,o),
(878,37,cs),
(272,910,ls),
(263,924,o),
(252,929,o),
(236,929,cs),
(103,929,ls),
(79,929,o),
(70,914,o),
(84,893,cs),
(688,20,ls),
(697,6,o),
(708,1,o),
(724,1,cs)
);
},
{
closed = 1;
nodes = (
(546,409,l),
(880,893,ls),
(894,914,o),
(885,929,o),
(861,929,cs),
(728,929,ls),
(712,929,o),
(701,924,o),
(692,910,cs),
(442,551,l)
);
},
{
closed = 1;
nodes = (
(233,1,ls),
(249,1,o),
(260,6,o),
(269,20,cs),
(539,409,l),
(435,551,l),
(79,37,ls),
(65,16,o),
(74,1,o),
(98,1,cs)
);
}
);
width = 959;
}
);
metricRight = "=|";
unicode = 120;
},
{
glyphname = y;
lastChange = "2025-11-23 11:15:24 +0000";
layers = (
{
anchors = (
{
name = bottom;
pos = (376,0);
},
{
name = top;
pos = (376,900);
}
);
layerId = m004;
shapes = (
{
closed = 1;
nodes = (
(60,-400,l),
(222,-400,o),
(282,-352,o),
(330,-210,cs),
(687,913,ls),
(690,924,o),
(684,931,o),
(674,931,cs),
(625,932,ls),
(617,932,o),
(611,928,o),
(608,919,cs),
(342,66,l),
(384,66,l),
(120,918,ls),
(118,926,o),
(111,930,o),
(103,930,cs),
(54,930,ls),
(43,930,o),
(38,924,o),
(41,913,cs),
(328,0,l),
(330,36,l),
(256,-186,ls),
(230,-268,o),
(190,-326,o),
(90,-326,c),
(5,-326,ls),
(-4,-326,o),
(-10,-331,o),
(-10,-341,cs),
(-10,-385,ls),
(-10,-395,o),
(-4,-400,o),
(5,-400,cs)
);
}
);
width = 752;
},
{
anchors = (
{
name = bottom;
pos = (487,200);
},
{
name = top;
pos = (487,1100);
}
);
layerId = m005;
shapes = (
{
closed = 1;
nodes = (
(201,-400,l),
(359,-400,o),
(449,-312,o),
(495,-194,cs),
(919,884,ls),
(930,912,o),
(917,930,o),
(887,930,cs),
(691,930,ls),
(668,930,o),
(654,920,o),
(646,898,cs),
(375,118,l),
(539,118,l),
(270,898,ls),
(263,920,o),
(248,930,o),
(225,930,cs),
(25,930,ls),
(-4,930,o),
(-18,911,o),
(-7,884,cs),
(399,-170,l),
(409,210,l),
(297,-50,ls),
(267,-120,o),
(233,-166,o),
(179,-166,cs),
(35,-166,ls),
(9,-166,o),
(-5,-180,o),
(-5,-206,cs),
(-5,-358,ls),
(-5,-384,o),
(9,-398,o),
(35,-398,cs)
);
}
);
width = 942;
},
{
anchors = (
{
name = bottom;
pos = (467,199);
},
{
name = top;
pos = (467,1099);
}
);
layerId = "1B8EDE0E-D46F-48F9-B9C6-2CD34FEA95FD";
shapes = (
{
closed = 1;
nodes = (
(183,-400,l),
(321,-400,o),
(395,-332,o),
(441,-210,cs),
(854,895,ls),
(862,916,o),
(852,930,o),
(830,930,cs),
(709,930,ls),
(692,930,o),
(680,923,o),
(674,906,cs),
(399,122,l),
(493,122,l),
(233,905,ls),
(228,921,o),
(216,930,o),
(199,930,cs),
(75,930,ls),
(53,930,o),
(44,917,o),
(51,896,cs),
(381,-44,l),
(353,42,l),
(297,-108,ls),
(267,-188,o),
(223,-240,o),
(143,-240,c),
(65,-240,ls),
(46,-240,o),
(35,-251,o),
(35,-270,cs),
(35,-370,ls),
(35,-390,o),
(46,-400,o),
(65,-400,cs)
);
}
);
width = 917;
}
);
metricRight = "=v";
unicode = 121;
},
{
glyphname = z;
lastChange = "2025-11-23 11:15:44 +0000";
layers = (
{
anchors = (
{
name = bottom;
pos = (449,0);
},
{
name = center;
pos = (449,450);
},
{
name = top;
pos = (449,900);
}
);
layerId = m004;
shapes = (
{
closed = 1;
nodes = (
(111,68,ls),
(107,62,o),
(105,57,o),
(105,50,cs),
(105,15,ls),
(105,5,o),
(111,0,o),
(120,0,cs),
(748,0,ls),
(757,0,o),
(763,5,o),
(763,15,cs),
(763,57,ls),
(763,67,o),
(757,72,o),
(748,72,cs),
(211,72,l),
(757,862,ls),
(761,868,o),
(763,873,o),
(763,880,cs),
(763,915,ls),
(763,925,o),
(757,930,o),
(748,930,cs),
(120,930,ls),
(111,930,o),
(105,925,o),
(105,915,cs),
(105,873,ls),
(105,863,o),
(111,858,o),
(120,858,cs),
(659,858,l)
);
}
);
width = 868;
},
{
anchors = (
{
name = bottom;
pos = (462,0);
},
{
name = center;
pos = (462,450);
},
{
name = top;
pos = (462,900);
}
);
layerId = m005;
shapes = (
{
closed = 1;
nodes = (
(106,212,ls),
(94,196,o),
(90,182,o),
(90,162,cs),
(90,40,ls),
(90,14,o),
(104,0,o),
(130,0,cs),
(792,0,ls),
(818,0,o),
(832,14,o),
(832,40,cs),
(832,200,ls),
(832,226,o),
(818,240,o),
(792,240,cs),
(460,240,l),
(816,718,ls),
(828,734,o),
(832,748,o),
(832,768,cs),
(832,890,ls),
(832,916,o),
(818,930,o),
(792,930,cs),
(130,930,ls),
(104,930,o),
(90,916,o),
(90,890,cs),
(90,730,ls),
(90,704,o),
(104,690,o),
(130,690,cs),
(462,690,l)
);
}
);
width = 922;
},
{
anchors = (
{
name = bottom;
pos = (434,0);
},
{
name = center;
pos = (434,450);
},
{
name = top;
pos = (434,900);
}
);
layerId = "1B8EDE0E-D46F-48F9-B9C6-2CD34FEA95FD";
shapes = (
{
closed = 1;
nodes = (
(103,127,ls),
(95,115,o),
(92,104,o),
(92,90,cs),
(92,30,ls),
(92,10,o),
(103,0,o),
(122,0,cs),
(744,0,ls),
(763,0,o),
(774,11,o),
(774,30,cs),
(774,114,ls),
(774,134,o),
(763,144,o),
(744,144,cs),
(316,144,l),
(763,803,ls),
(771,816,o),
(774,826,o),
(774,840,cs),
(774,900,ls),
(774,920,o),
(763,930,o),
(744,930,cs),
(122,930,ls),
(103,930,o),
(92,919,o),
(92,900,cs),
(92,816,ls),
(92,797,o),
(103,786,o),
(122,786,cs),
(552,786,l)
);
}
);
width = 866;
}
);
metricLeft = "=n-10";
metricRight = "=|";
unicode = 122;
},
{
glyphname = zero;
lastChange = "2025-11-21 20:58:09 +0000";
layers = (
{
layerId = m004;
shapes = (
{
closed = 1;
nodes = (
(601,-12,o),
(775,86,o),
(775,332,cs),
(775,992,ls),
(775,1238,o),
(601,1336,o),
(455,1336,cs),
(291,1336,o),
(135,1238,o),
(135,992,cs),
(135,332,ls),
(135,86,o),
(291,-12,o),
(455,-12,cs)
);
},
{
closed = 1;
nodes = (
(303,60,o),
(219,164,o),
(219,340,cs),
(219,984,ls),
(219,1160,o),
(303,1264,o),
(455,1264,cs),
(587,1264,o),
(691,1160,o),
(691,984,cs),
(691,340,ls),
(691,164,o),
(587,60,o),
(455,60,cs)
);
}
);
width = 910;
},
{
layerId = m005;
shapes = (
{
closed = 1;
nodes = (
(736,-12,o),
(1052,104,o),
(1052,486,cs),
(1052,794,ls),
(1052,1196,o),
(736,1312,o),
(566,1312,cs),
(358,1312,o),
(80,1196,o),
(80,794,cs),
(80,486,ls),
(80,104,o),
(358,-12,o),
(566,-12,cs)
);
},
{
closed = 1;
nodes = (
(450,228,o),
(348,276,o),
(348,478,cs),
(348,802,ls),
(348,1024,o),
(450,1072,o),
(566,1072,cs),
(682,1072,o),
(784,1024,o),
(784,802,cs),
(784,478,ls),
(784,268,o),
(682,228,o),
(566,228,cs)
);
}
);
width = 1132;
},
{
layerId = "1B8EDE0E-D46F-48F9-B9C6-2CD34FEA95FD";
shapes = (
{
closed = 1;
nodes = (
(648,-12,o),
(876,92,o),
(876,446,cs),
(876,870,ls),
(876,1232,o),
(648,1336,o),
(468,1336,cs),
(288,1336,o),
(60,1232,o),
(60,870,cs),
(60,446,ls),
(60,92,o),
(288,-12,o),
(468,-12,cs)
);
},
{
closed = 1;
nodes = (
(344,138,o),
(236,208,o),
(236,434,cs),
(236,882,ls),
(236,1116,o),
(344,1186,o),
(468,1184,cs),
(592,1182,o),
(700,1116,o),
(700,882,cs),
(700,434,ls),
(700,208,o),
(592,142,o),
(468,140,cs)
);
}
);
width = 936;
}
);
unicode = 48;
},
{
glyphname = one;
lastChange = "2025-11-21 20:58:09 +0000";
layers = (
{
background = {
shapes = (
{
closed = 0;
nodes = (
(145,670,l),
(145,618,o),
(126,612,o),
(96,612,cs),
(40,612,l),
(40,576,l),
(96,576,ls),
(153,576,o),
(185,596,o),
(185,659,c)
);
}
);
};
layerId = m004;
shapes = (
{
closed = 1;
nodes = (
(409,1300,l),
(325,1300,l),
(325,1276,ls),
(325,1164,o),
(261,1152,o),
(149,1152,cs),
(53,1152,l),
(53,1080,l),
(325,1080,l),
(325,0,l),
(409,0,l)
);
}
);
width = 579;
},
{
layerId = m005;
shapes = (
{
closed = 1;
nodes = (
(640,1300,l),
(372,1300,l),
(372,1276,l),
(372,1150,o),
(288,1124,o),
(206,1124,c),
(80,1124,l),
(80,884,l),
(372,884,l),
(372,0,l),
(640,0,l)
);
}
);
width = 712;
},
{
layerId = "1B8EDE0E-D46F-48F9-B9C6-2CD34FEA95FD";
shapes = (
{
closed = 1;
nodes = (
(562,1300,l),
(384,1300,l),
(384,1276,l),
(384,1148,o),
(306,1122,o),
(192,1122,c),
(60,1122,l),
(60,976,l),
(384,976,l),
(384,0,l),
(562,0,l)
);
}
);
width = 622;
}
);
unicode = 49;
},
{
glyphname = two;
lastChange = "2025-11-21 20:58:09 +0000";
layers = (
{
background = {
shapes = (
{
closed = 0;
nodes = (
(59,450,l)
);
}
);
};
layerId = m004;
shapes = (
{
closed = 1;
nodes = (
(737,0,l),
(737,72,l),
(163,72,l),
(181,16,l),
(531,466,ls),
(685,664,o),
(751,760,o),
(751,960,cs),
(751,1178,o),
(599,1324,o),
(411,1324,cs),
(217,1324,o),
(59,1178,o),
(59,900,c),
(143,900,l),
(143,1178,o),
(287,1252,o),
(411,1252,cs),
(523,1252,o),
(669,1178,o),
(669,960,cs),
(669,782,o),
(603,688,o),
(435,478,cs),
(83,34,l),
(83,0,l)
);
}
);
width = 831;
},
{
layerId = m005;
shapes = (
{
closed = 1;
nodes = (
(984,0,l),
(984,240,l),
(330,240,l),
(410,98,l),
(752,430,ls),
(924,598,o),
(978,722,o),
(978,916,cs),
(978,1210,o),
(756,1324,o),
(536,1324,cs),
(302,1324,o),
(128,1182,o),
(126,892,c),
(394,892,l),
(394,1034,o),
(470,1084,o),
(546,1086,cs),
(624,1088,o),
(710,1024,o),
(710,908,cs),
(710,790,o),
(676,710,o),
(566,610,cs),
(80,164,l),
(80,0,l)
);
}
);
width = 1064;
},
{
layerId = "1B8EDE0E-D46F-48F9-B9C6-2CD34FEA95FD";
shapes = (
{
closed = 1;
nodes = (
(868,0,l),
(868,152,l),
(230,152,l),
(260,82,l),
(666,526,ls),
(790,662,o),
(864,774,o),
(864,938,cs),
(864,1208,o),
(680,1324,o),
(462,1324,cs),
(258,1324,o),
(72,1200,o),
(72,900,c),
(244,900,l),
(244,1116,o),
(352,1170,o),
(468,1172,cs),
(586,1174,o),
(696,1108,o),
(696,932,cs),
(696,830,o),
(640,754,o),
(550,654,cs),
(60,110,l),
(60,0,l)
);
}
);
width = 928;
}
);
unicode = 50;
},
{
glyphname = three;
lastChange = "2025-11-21 20:58:09 +0000";
layers = (
{
background = {
shapes = (
{
closed = 0;
nodes = (
(168,16,ls),
(96,16,o),
(20,57,o),
(20,196,c),
(-18,196,l),
(-18,57,o),
(56,-16,o),
(168,-16,cs)
);
}
);
};
layerId = m004;
shapes = (
{
closed = 1;
nodes = (
(569,-12,o),
(743,86,o),
(743,332,cs),
(743,392,ls),
(743,660,o),
(549,736,o),
(423,736,c),
(423,664,l),
(535,664,o),
(659,580,o),
(659,384,cs),
(659,340,ls),
(659,164,o),
(555,60,o),
(403,60,cs),
(233,60,o),
(149,162,o),
(147,332,c),
(147,340,l),
(63,340,l),
(63,332,l),
(63,86,o),
(219,-12,o),
(403,-12,cs)
);
},
{
closed = 1;
nodes = (
(423,664,l),
(549,664,o),
(723,742,o),
(723,962,cs),
(723,1014,ls),
(723,1214,o),
(549,1312,o),
(403,1312,cs),
(239,1312,o),
(83,1214,o),
(83,1014,cs),
(83,1006,l),
(167,1006,l),
(167,1014,l),
(167,1160,o),
(251,1240,o),
(403,1240,cs),
(535,1240,o),
(639,1156,o),
(639,1006,cs),
(639,970,ls),
(639,820,o),
(535,736,o),
(423,736,c)
);
},
{
closed = 1;
nodes = (
(397,664,l),
(423,664,l),
(423,736,l),
(397,736,l)
);
}
);
width = 878;
},
{
background = {
shapes = (
{
closed = 0;
nodes = (
(249,83,ls),
(190,84,o),
(152,114,o),
(152,200,c),
(49,200,l),
(49,31,o),
(147,-12,o),
(249,-12,cs)
);
}
);
};
layerId = m005;
shapes = (
{
closed = 1;
nodes = (
(738,-12,o),
(988,92,o),
(988,392,c),
(988,420,ls),
(988,712,o),
(694,808,o),
(522,808,c),
(522,576,l),
(620,576,o),
(720,510,o),
(720,418,cs),
(720,392,ls),
(720,278,o),
(624,226,o),
(532,226,cs),
(438,226,o),
(348,272,o),
(348,392,cs),
(348,430,l),
(80,430,l),
(80,390,l),
(80,92,o),
(324,-12,o),
(532,-12,cs)
);
},
{
closed = 1;
nodes = (
(522,576,l),
(640,578,o),
(946,640,o),
(946,938,cs),
(946,966,l),
(946,1232,o),
(698,1336,o),
(532,1336,cs),
(342,1336,o),
(114,1230,o),
(114,966,c),
(114,926,l),
(382,926,l),
(382,966,ls),
(382,1044,o),
(448,1098,o),
(532,1098,cs),
(616,1098,o),
(678,1044,o),
(678,966,cs),
(678,940,ls),
(678,860,o),
(604,808,o),
(522,808,c)
);
},
{
closed = 1;
nodes = (
(434,576,l),
(522,576,l),
(522,808,l),
(434,808,l)
);
}
);
width = 1068;
},
{
layerId = "1B8EDE0E-D46F-48F9-B9C6-2CD34FEA95FD";
shapes = (
{
closed = 1;
nodes = (
(642,-12,o),
(870,86,o),
(870,368,c),
(870,394,l),
(870,676,o),
(642,776,o),
(466,776,c),
(466,624,l),
(570,624,o),
(694,580,o),
(694,394,cs),
(694,368,ls),
(694,182,o),
(570,140,o),
(466,140,cs),
(340,140,o),
(236,182,o),
(236,368,cs),
(236,382,l),
(60,382,l),
(60,366,l),
(60,86,o),
(268,-12,o),
(466,-12,cs)
);
},
{
closed = 1;
nodes = (
(466,624,l),
(602,624,o),
(830,722,o),
(830,962,c),
(830,992,l),
(830,1238,o),
(622,1336,o),
(466,1336,cs),
(288,1336,o),
(100,1238,o),
(100,990,c),
(100,974,l),
(276,974,l),
(276,990,ls),
(276,1142,o),
(360,1184,o),
(466,1184,cs),
(550,1184,o),
(654,1142,o),
(654,990,cs),
(654,964,ls),
(654,838,o),
(550,776,o),
(466,776,c)
);
},
{
closed = 1;
nodes = (
(418,624,l),
(466,624,l),
(466,776,l),
(418,776,l)
);
}
);
width = 930;
}
);
unicode = 51;
},
{
glyphname = four;
lastChange = "2025-11-21 20:58:09 +0000";
layers = (
{
layerId = m004;
shapes = (
{
closed = 1;
nodes = (
(525,620,l),
(525,0,l),
(609,0,l),
(609,620,l)
);
},
{
closed = 1;
nodes = (
(45,274,l),
(759,274,l),
(759,346,l),
(133,346,l),
(615,1300,l),
(529,1300,l),
(45,346,l)
);
}
);
width = 810;
},
{
layerId = m005;
shapes = (
{
closed = 1;
nodes = (
(596,680,l),
(596,0,l),
(864,0,l),
(864,680,l)
);
},
{
closed = 1;
nodes = (
(80,226,l),
(994,226,l),
(994,466,l),
(422,466,l),
(876,1300,l),
(576,1300,l),
(80,418,l)
);
}
);
width = 1074;
},
{
layerId = "1B8EDE0E-D46F-48F9-B9C6-2CD34FEA95FD";
shapes = (
{
closed = 1;
nodes = (
(556,654,l),
(556,0,l),
(734,0,l),
(734,654,l)
);
},
{
closed = 1;
nodes = (
(60,226,l),
(882,226,l),
(882,378,l),
(272,378,l),
(726,1300,l),
(546,1300,l),
(60,340,l)
);
}
);
width = 942;
}
);
unicode = 52;
},
{
glyphname = five;
lastChange = "2025-11-21 20:58:09 +0000";
layers = (
{
background = {
shapes = (
{
closed = 1;
nodes = (
(304,-12,o),
(391,37,o),
(391,160,cs),
(391,290,ls),
(391,413,o),
(304,462,o),
(231,462,cs),
(149,462,o),
(71,413,o),
(71,290,cs),
(71,160,ls),
(71,37,o),
(149,-12,o),
(231,-12,cs)
);
},
{
closed = 1;
nodes = (
(155,24,o),
(113,76,o),
(113,164,cs),
(113,286,ls),
(113,374,o),
(155,426,o),
(231,426,cs),
(297,426,o),
(349,374,o),
(349,286,cs),
(349,164,ls),
(349,76,o),
(297,24,o),
(231,24,cs)
);
}
);
};
layerId = m004;
shapes = (
{
closed = 1;
nodes = (
(568,-12,o),
(742,86,o),
(742,332,cs),
(742,612,l),
(742,858,o),
(568,956,o),
(422,956,cs),
(258,956,o),
(102,858,o),
(102,612,c),
(186,612,l),
(186,780,o),
(270,884,o),
(422,884,cs),
(554,884,o),
(658,780,o),
(658,604,cs),
(658,340,ls),
(658,164,o),
(554,60,o),
(422,60,cs),
(270,60,o),
(186,164,o),
(186,340,cs),
(186,404,l),
(102,404,l),
(102,332,l),
(102,86,o),
(258,-12,o),
(422,-12,cs)
);
},
{
closed = 1;
nodes = (
(186,612,l),
(186,1240,l),
(684,1240,l),
(684,1312,l),
(100,1312,l),
(102,612,l)
);
}
);
width = 877;
},
{
background = {
shapes = (
{
closed = 0;
nodes = (
(294,342,ls),
(249,342,o),
(209,312,o),
(209,247,cs)
);
}
);
};
layerId = m005;
shapes = (
{
closed = 1;
nodes = (
(678,-12,o),
(946,72,o),
(946,370,cs),
(946,534,ls),
(946,852,o),
(682,936,o),
(508,936,cs),
(302,936,o),
(122,670,o),
(80,566,c),
(344,566,l),
(370,662,o),
(440,696,o),
(508,696,cs),
(598,696,o),
(678,636,o),
(678,506,cs),
(678,374,ls),
(678,244,o),
(598,188,o),
(508,188,cs),
(418,188,o),
(344,226,o),
(344,374,cs),
(344,392,l),
(80,392,l),
(80,372,l),
(80,72,o),
(338,-12,o),
(508,-12,cs)
);
},
{
closed = 1;
nodes = (
(352,634,l),
(352,1072,l),
(874,1072,l),
(874,1312,l),
(86,1312,l),
(80,566,l)
);
}
);
width = 1026;
},
{
background = {
shapes = (
{
closed = 1;
nodes = (
(329,-12,o),
(443,37,o),
(443,177,cs),
(443,282,ls),
(443,422,o),
(332,461,o),
(249,461,cs),
(156,461,o),
(101,413,o),
(101,323,c),
(61,310,l),
(145,310,l),
(145,363,o),
(191,385,o),
(249,385,cs),
(296,385,o),
(355,352,o),
(355,269,cs),
(355,189,ls),
(355,96,o),
(293,64,o),
(249,64,cs),
(188,64,o),
(144,86,o),
(144,189,cs),
(144,196,l),
(60,196,l),
(60,193,o),
(60,190,o),
(60,189,cs),
(60,188,o),
(60,188,o),
(60,188,c),
(60,38,o),
(152,-12,o),
(249,-12,cs)
);
}
);
};
layerId = "1B8EDE0E-D46F-48F9-B9C6-2CD34FEA95FD";
shapes = (
{
closed = 1;
nodes = (
(598,-12,o),
(822,106,o),
(822,366,cs),
(822,576,ls),
(822,836,o),
(604,934,o),
(438,934,cs),
(170,934,o),
(92,710,o),
(62,632,c),
(230,632,l),
(230,738,o),
(322,782,o),
(438,782,cs),
(532,782,o),
(650,716,o),
(650,550,cs),
(650,390,ls),
(650,204,o),
(526,140,o),
(438,140,cs),
(316,140,o),
(228,184,o),
(228,390,cs),
(228,404,l),
(60,404,l),
(60,388,l),
(60,108,o),
(244,-12,o),
(438,-12,cs)
);
},
{
closed = 1;
nodes = (
(240,690,l),
(240,1160,l),
(774,1160,l),
(774,1312,l),
(66,1312,l),
(62,632,l)
);
}
);
width = 882;
}
);
unicode = 53;
},
{
glyphname = six;
lastChange = "2025-11-21 20:58:09 +0000";
layers = (
{
background = {
shapes = (
{
closed = 1;
nodes = (
(360,207,ls),
(360,330,o),
(273,379,o),
(198,379,cs),
(118,379,o),
(40,330,o),
(40,207,cs),
(40,207,o),
(40,196,o),
(40,185,c),
(82,185,l),
(82,203,ls),
(82,291,o),
(124,343,o),
(198,343,cs),
(266,343,o),
(318,291,o),
(318,203,cs),
(318,185,l),
(360,185,l)
);
}
);
};
layerId = m004;
shapes = (
{
closed = 1;
nodes = (
(626,164,o),
(522,60,o),
(386,60,cs),
(238,60,o),
(154,164,o),
(154,340,cs),
(154,418,ls),
(154,594,o),
(238,698,o),
(386,698,cs),
(522,698,o),
(626,594,o),
(626,426,cs),
(626,340,ls)
);
},
{
closed = 1;
nodes = (
(536,-12,o),
(710,86,o),
(710,332,cs),
(710,422,ls),
(710,672,o),
(536,770,o),
(386,770,cs),
(226,770,o),
(184,660,o),
(108,628,c),
(152,622,l),
(634,1312,l),
(538,1312,l),
(310,990,ls),
(112,712,o),
(70,590,o),
(70,426,c),
(70,426,o),
(70,332,o),
(70,332,cs),
(70,86,o),
(226,-12,o),
(386,-12,cs)
);
}
);
width = 750;
},
{
layerId = m005;
shapes = (
{
closed = 1;
nodes = (
(738,304,o),
(652,226,o),
(544,226,cs),
(434,226,o),
(348,304,o),
(348,412,cs),
(348,440,ls),
(348,594,o),
(442,646,o),
(544,646,cs),
(648,646,o),
(736,578,o),
(738,442,cs),
(738,412,ls)
);
},
{
closed = 1;
nodes = (
(730,-12,o),
(1006,96,o),
(1006,410,cs),
(1006,438,ls),
(1006,786,o),
(712,882,o),
(544,882,cs),
(368,882,o),
(272,724,o),
(168,600,c),
(450,692,l),
(872,1312,l),
(562,1312,l),
(276,926,ls),
(196,818,o),
(80,634,o),
(80,438,c),
(80,438,o),
(80,410,o),
(80,410,cs),
(80,72,o),
(342,-12,o),
(544,-12,cs)
);
}
);
width = 1086;
},
{
layerId = "1B8EDE0E-D46F-48F9-B9C6-2CD34FEA95FD";
shapes = (
{
closed = 1;
nodes = (
(714,222,o),
(590,140,o),
(476,140,cs),
(340,140,o),
(236,222,o),
(236,368,c),
(236,416,l),
(236,566,o),
(354,642,o),
(476,642,cs),
(584,642,o),
(712,566,o),
(714,418,c),
(714,368,l)
);
},
{
closed = 1;
nodes = (
(662,-12,o),
(890,106,o),
(890,366,c),
(890,414,l),
(890,684,o),
(650,794,o),
(476,794,cs),
(332,794,o),
(264,736,o),
(176,626,c),
(336,706,l),
(730,1314,l),
(532,1314,l),
(244,868,ls),
(114,662,o),
(60,524,o),
(60,402,cs),
(60,402,o),
(60,366,o),
(60,366,cs),
(60,86,o),
(268,-12,o),
(476,-12,cs)
);
}
);
width = 950;
}
);
unicode = 54;
},
{
glyphname = seven;
lastChange = "2025-11-21 20:58:09 +0000";
layers = (
{
layerId = m004;
shapes = (
{
closed = 1;
nodes = (
(284,0,l),
(712,1268,l),
(712,1300,l),
(40,1300,l),
(40,1228,l),
(656,1228,l),
(626,1260,l),
(202,0,l)
);
}
);
width = 752;
},
{
layerId = m005;
shapes = (
{
closed = 1;
nodes = (
(452,0,l),
(900,1168,l),
(900,1300,l),
(80,1300,l),
(80,1060,l),
(772,1060,l),
(622,1210,l),
(160,0,l)
);
}
);
width = 1060;
},
{
layerId = "1B8EDE0E-D46F-48F9-B9C6-2CD34FEA95FD";
shapes = (
{
closed = 1;
nodes = (
(408,0,l),
(868,1194,l),
(868,1300,l),
(60,1300,l),
(60,1148,l),
(770,1148,l),
(704,1238,l),
(226,0,l)
);
}
);
width = 928;
}
);
unicode = 55;
},
{
glyphname = eight;
lastChange = "2025-11-21 20:58:09 +0000";
layers = (
{
layerId = m004;
shapes = (
{
closed = 1;
nodes = (
(546,-12,o),
(720,86,o),
(720,292,cs),
(720,412,ls),
(720,658,o),
(526,736,o),
(400,736,cs),
(256,736,o),
(80,658,o),
(80,412,c),
(80,292,l),
(80,86,o),
(236,-12,o),
(400,-12,cs)
);
},
{
closed = 1;
nodes = (
(248,60,o),
(164,164,o),
(164,300,cs),
(164,404,ls),
(164,580,o),
(268,664,o),
(400,664,cs),
(512,664,o),
(636,580,o),
(636,404,cs),
(636,300,ls),
(636,164,o),
(532,60,o),
(400,60,cs)
);
},
{
closed = 1;
nodes = (
(526,664,o),
(700,762,o),
(700,962,cs),
(700,1014,ls),
(700,1214,o),
(526,1312,o),
(400,1312,cs),
(256,1312,o),
(100,1214,o),
(100,1014,cs),
(100,962,ls),
(100,762,o),
(256,664,o),
(400,664,cs)
);
},
{
closed = 1;
nodes = (
(268,736,o),
(184,820,o),
(184,970,cs),
(184,1006,ls),
(184,1156,o),
(268,1240,o),
(400,1240,cs),
(512,1240,o),
(616,1156,o),
(616,1006,cs),
(616,970,ls),
(616,820,o),
(512,736,o),
(400,736,cs)
);
}
);
width = 800;
},
{
layerId = m005;
shapes = (
{
closed = 1;
nodes = (
(722,-12,o),
(970,82,o),
(970,368,c),
(970,396,ls),
(970,692,o),
(724,794,o),
(526,794,cs),
(306,794,o),
(80,692,o),
(80,396,c),
(80,368,l),
(80,118,o),
(262,-12,o),
(526,-12,cs)
);
},
{
closed = 1;
nodes = (
(408,226,o),
(348,290,o),
(348,368,cs),
(348,394,ls),
(348,516,o),
(410,566,o),
(526,566,cs),
(622,566,o),
(702,514,o),
(702,394,cs),
(702,368,ls),
(702,292,o),
(624,226,o),
(526,226,cs)
);
},
{
closed = 1;
nodes = (
(684,586,o),
(930,686,o),
(930,948,cs),
(930,978,ls),
(930,1232,o),
(704,1336,o),
(526,1336,cs),
(326,1336,o),
(120,1230,o),
(120,978,c),
(120,948,l),
(120,686,o),
(346,586,o),
(526,586,cs)
);
},
{
closed = 1;
nodes = (
(448,794,o),
(388,846,o),
(388,926,cs),
(388,968,ls),
(388,1044,o),
(448,1098,o),
(526,1098,cs),
(602,1098,o),
(662,1044,o),
(662,968,cs),
(662,926,ls),
(662,846,o),
(602,794,o),
(526,794,cs)
);
}
);
width = 1050;
},
{
layerId = "1B8EDE0E-D46F-48F9-B9C6-2CD34FEA95FD";
shapes = (
{
closed = 1;
nodes = (
(642,-12,o),
(850,76,o),
(850,346,cs),
(850,416,ls),
(850,636,o),
(622,770,o),
(456,770,cs),
(268,770,o),
(60,636,o),
(60,416,c),
(60,346,l),
(60,96,o),
(268,-12,o),
(456,-12,cs)
);
},
{
closed = 1;
nodes = (
(340,140,o),
(236,214,o),
(236,348,cs),
(236,414,ls),
(236,566,o),
(340,630,o),
(456,630,cs),
(550,630,o),
(674,566,o),
(674,414,cs),
(674,348,ls),
(674,194,o),
(550,140,o),
(456,140,cs)
);
},
{
closed = 1;
nodes = (
(602,630,o),
(810,722,o),
(810,962,cs),
(810,992,ls),
(810,1238,o),
(622,1336,o),
(456,1336,cs),
(268,1336,o),
(100,1238,o),
(100,992,c),
(100,962,l),
(100,722,o),
(288,630,o),
(456,630,cs)
);
},
{
closed = 1;
nodes = (
(340,770,o),
(276,834,o),
(276,964,cs),
(276,990,ls),
(276,1120,o),
(340,1184,o),
(456,1184,cs),
(550,1184,o),
(634,1120,o),
(634,990,cs),
(634,964,ls),
(634,834,o),
(550,770,o),
(456,770,cs)
);
}
);
width = 910;
}
);
unicode = 56;
},
{
glyphname = nine;
lastChange = "2025-11-21 20:58:09 +0000";
layers = (
{
layerId = m004;
shapes = (
{
closed = 1;
nodes = (
(154,1136,o),
(258,1240,o),
(394,1240,cs),
(542,1240,o),
(626,1136,o),
(626,960,cs),
(626,882,ls),
(626,706,o),
(542,602,o),
(394,602,cs),
(258,602,o),
(154,706,o),
(154,874,cs),
(154,960,ls)
);
},
{
closed = 1;
nodes = (
(244,1312,o),
(70,1214,o),
(70,968,cs),
(70,878,ls),
(70,628,o),
(244,530,o),
(394,530,cs),
(554,530,o),
(596,640,o),
(672,672,c),
(628,678,l),
(146,-12,l),
(242,-12,l),
(544,414,ls),
(668,588,o),
(710,730,o),
(710,874,c),
(710,874,o),
(710,968,o),
(710,968,cs),
(710,1214,o),
(554,1312,o),
(394,1312,cs)
);
}
);
width = 750;
},
{
layerId = m005;
shapes = (
{
closed = 1;
nodes = (
(348,1008,o),
(434,1086,o),
(542,1086,cs),
(652,1086,o),
(738,1008,o),
(738,900,cs),
(738,872,ls),
(738,718,o),
(644,666,o),
(542,666,cs),
(438,666,o),
(350,734,o),
(348,870,cs),
(348,900,ls)
);
},
{
closed = 1;
nodes = (
(356,1324,o),
(80,1216,o),
(80,902,cs),
(80,874,ls),
(80,526,o),
(374,430,o),
(542,430,cs),
(718,430,o),
(814,588,o),
(918,712,c),
(636,620,l),
(214,0,l),
(524,0,l),
(810,386,ls),
(890,494,o),
(1006,678,o),
(1006,874,c),
(1006,874,o),
(1006,902,o),
(1006,902,cs),
(1006,1240,o),
(744,1324,o),
(542,1324,cs)
);
}
);
width = 1086;
},
{
layerId = "1B8EDE0E-D46F-48F9-B9C6-2CD34FEA95FD";
shapes = (
{
closed = 1;
nodes = (
(236,1092,o),
(360,1174,o),
(474,1174,cs),
(610,1174,o),
(714,1092,o),
(714,946,c),
(714,898,l),
(714,748,o),
(596,672,o),
(474,672,cs),
(366,672,o),
(238,748,o),
(236,896,c),
(236,946,l)
);
},
{
closed = 1;
nodes = (
(288,1326,o),
(60,1208,o),
(60,948,c),
(60,900,l),
(60,630,o),
(300,520,o),
(474,520,cs),
(618,520,o),
(686,578,o),
(774,688,c),
(614,608,l),
(220,0,l),
(418,0,l),
(706,446,ls),
(836,652,o),
(890,790,o),
(890,912,cs),
(890,912,o),
(890,948,o),
(890,948,cs),
(890,1228,o),
(682,1326,o),
(474,1326,cs)
);
}
);
width = 950;
}
);
unicode = 57;
},
{
glyphname = period;
lastChange = "2025-11-21 21:40:00 +0000";
layers = (
{
layerId = m004;
shapes = (
{
closed = 1;
nodes = (
(175,-24,o),
(205,6,o),
(205,55,cs),
(205,103,o),
(175,133,o),
(126,133,cs),
(77,133,o),
(47,103,o),
(47,55,cs),
(47,6,o),
(77,-24,o),
(126,-24,cs)
);
}
);
width = 252;
},
{
layerId = m005;
shapes = (
{
closed = 1;
nodes = (
(246,-24,o),
(298,34,o),
(298,120,cs),
(298,202,o),
(246,258,o),
(158,258,cs),
(70,258,o),
(18,202,o),
(18,120,cs),
(18,34,o),
(70,-24,o),
(158,-24,cs)
);
}
);
width = 316;
},
{
layerId = "1B8EDE0E-D46F-48F9-B9C6-2CD34FEA95FD";
shapes = (
{
closed = 1;
nodes = (
(211,-24,o),
(249,18,o),
(249,90,cs),
(249,158,o),
(211,198,o),
(137,198,cs),
(63,198,o),
(25,158,o),
(25,90,cs),
(25,18,o),
(63,-24,o),
(137,-24,cs)
);
}
);
width = 274;
}
);
metricRight = "=|";
unicode = 46;
},
{
glyphname = comma;
lastChange = "2025-11-21 21:40:57 +0000";
layers = (
{
layerId = m004;
shapes = (
{
closed = 1;
nodes = (
(107,-200,l),
(203,200,l),
(90,200,l),
(30,-200,l)
);
}
);
width = 239;
},
{
layerId = m005;
shapes = (
{
closed = 1;
nodes = (
(197,-260,l),
(363,240,l),
(90,240,l),
(20,-260,l)
);
}
);
width = 180;
},
{
layerId = "1B8EDE0E-D46F-48F9-B9C6-2CD34FEA95FD";
shapes = (
{
closed = 1;
nodes = (
(187,-230,l),
(313,220,l),
(90,220,l),
(20,-230,l)
);
}
);
width = 333;
}
);
unicode = 44;
},
{
glyphname = colon;
lastChange = "2025-11-21 21:44:27 +0000";
layers = (
{
layerId = m004;
shapes = (
{
closed = 1;
nodes = (
(175,-24,o),
(205,6,o),
(205,55,cs),
(205,103,o),
(175,133,o),
(126,133,cs),
(77,133,o),
(47,103,o),
(47,55,cs),
(47,6,o),
(77,-24,o),
(126,-24,cs)
);
},
{
closed = 1;
nodes = (
(175,616,o),
(205,646,o),
(205,695,cs),
(205,743,o),
(175,773,o),
(126,773,cs),
(77,773,o),
(47,743,o),
(47,695,cs),
(47,646,o),
(77,616,o),
(126,616,cs)
);
}
);
width = 252;
},
{
layerId = m005;
shapes = (
{
closed = 1;
nodes = (
(239,556,o),
(291,614,o),
(291,700,cs),
(291,782,o),
(239,838,o),
(151,838,cs),
(63,838,o),
(11,782,o),
(11,700,cs),
(11,614,o),
(63,556,o),
(151,556,cs)
);
},
{
closed = 1;
nodes = (
(241,-24,o),
(293,34,o),
(293,120,cs),
(293,202,o),
(241,258,o),
(153,258,cs),
(65,258,o),
(13,202,o),
(13,120,cs),
(13,34,o),
(65,-24,o),
(153,-24,cs)
);
}
);
width = 304;
},
{
layerId = "1B8EDE0E-D46F-48F9-B9C6-2CD34FEA95FD";
shapes = (
{
closed = 1;
nodes = (
(211,-24,o),
(249,18,o),
(249,90,cs),
(249,158,o),
(211,198,o),
(137,198,cs),
(63,198,o),
(25,158,o),
(25,90,cs),
(25,18,o),
(63,-24,o),
(137,-24,cs)
);
},
{
closed = 1;
nodes = (
(211,587,o),
(249,629,o),
(249,701,cs),
(249,769,o),
(211,809,o),
(137,809,cs),
(63,809,o),
(25,769,o),
(25,701,cs),
(25,629,o),
(63,587,o),
(137,587,cs)
);
}
);
width = 274;
}
);
metricRight = "=|";
unicode = 58;
},
{
glyphname = semicolon;
lastChange = "2025-11-21 21:44:43 +0000";
layers = (
{
layerId = m004;
shapes = (
{
closed = 1;
nodes = (
(175,613,o),
(205,643,o),
(205,692,cs),
(205,740,o),
(175,770,o),
(126,770,cs),
(77,770,o),
(47,740,o),
(47,692,cs),
(47,643,o),
(77,613,o),
(126,613,cs)
);
},
{
closed = 1;
nodes = (
(107,-210,l),
(203,190,l),
(90,190,l),
(30,-210,l)
);
}
);
width = 235;
},
{
layerId = m005;
shapes = (
{
closed = 1;
nodes = (
(316,554,o),
(368,612,o),
(368,698,cs),
(368,780,o),
(316,836,o),
(228,836,cs),
(140,836,o),
(88,780,o),
(88,698,cs),
(88,612,o),
(140,554,o),
(228,554,cs)
);
},
{
closed = 1;
nodes = (
(197,-260,l),
(363,240,l),
(90,240,l),
(20,-260,l)
);
}
);
width = 388;
},
{
layerId = "1B8EDE0E-D46F-48F9-B9C6-2CD34FEA95FD";
shapes = (
{
closed = 1;
nodes = (
(211,586,o),
(249,628,o),
(249,700,cs),
(249,768,o),
(211,808,o),
(137,808,cs),
(63,808,o),
(25,768,o),
(25,700,cs),
(25,628,o),
(63,586,o),
(137,586,cs)
);
},
{
closed = 1;
nodes = (
(187,-230,l),
(313,220,l),
(90,220,l),
(20,-230,l)
);
}
);
width = 333;
}
);
metricRight = "=|";
unicode = 59;
},
{
glyphname = exclam;
lastChange = "2025-11-21 20:58:09 +0000";
layers = (
{
layerId = m004;
shapes = (
{
closed = 1;
nodes = (
(278,288,l),
(292,912,l),
(292,1312,l),
(218,1312,l),
(218,912,l),
(232,288,l)
);
},
{
closed = 1;
nodes = (
(302,-12,o),
(316,0,o),
(316,46,cs),
(316,90,o),
(302,104,o),
(258,104,cs),
(214,104,o),
(200,90,o),
(200,46,cs),
(200,0,o),
(214,-12,o),
(258,-12,cs)
);
}
);
width = 516;
},
{
layerId = m005;
shapes = (
{
closed = 1;
nodes = (
(269,341,l),
(293,781,l),
(293,1313,l),
(69,1313,l),
(69,781,l),
(93,341,l)
);
},
{
closed = 1;
nodes = (
(271,-13,o),
(297,15,o),
(297,103,cs),
(297,191,o),
(271,217,o),
(181,217,cs),
(91,217,o),
(65,191,o),
(65,103,cs),
(65,15,o),
(91,-13,o),
(181,-13,cs)
);
}
);
width = 362;
},
{
layerId = "1B8EDE0E-D46F-48F9-B9C6-2CD34FEA95FD";
shapes = (
{
closed = 1;
nodes = (
(284,327,l),
(304,815,l),
(304,1313,l),
(118,1313,l),
(118,815,l),
(140,327,l)
);
},
{
closed = 1;
nodes = (
(290,-13,o),
(314,11,o),
(314,89,cs),
(314,167,o),
(290,189,o),
(212,189,cs),
(134,189,o),
(110,167,o),
(110,89,cs),
(110,11,o),
(134,-13,o),
(212,-13,cs)
);
}
);
width = 424;
}
);
metricLeft = "=H";
metricRight = "=|";
unicode = 33;
},
{
glyphname = exclamdown;
lastChange = "2025-11-21 20:58:09 +0000";
layers = (
{
layerId = m004;
shapes = (
{
closed = 1;
nodes = (
(238,824,l),
(224,200,l),
(224,-200,l),
(298,-200,l),
(298,200,l),
(284,824,l)
);
},
{
closed = 1;
nodes = (
(214,1124,o),
(200,1112,o),
(200,1066,cs),
(200,1022,o),
(214,1008,o),
(258,1008,cs),
(302,1008,o),
(316,1022,o),
(316,1066,cs),
(316,1112,o),
(302,1124,o),
(258,1124,cs)
);
}
);
width = 516;
},
{
layerId = m005;
shapes = (
{
closed = 1;
nodes = (
(93,772,l),
(69,332,l),
(69,-200,l),
(293,-200,l),
(293,332,l),
(269,772,l)
);
},
{
closed = 1;
nodes = (
(91,1126,o),
(65,1098,o),
(65,1010,cs),
(65,922,o),
(91,896,o),
(181,896,cs),
(271,896,o),
(297,922,o),
(297,1010,cs),
(297,1098,o),
(271,1126,o),
(181,1126,cs)
);
}
);
width = 362;
},
{
layerId = "1B8EDE0E-D46F-48F9-B9C6-2CD34FEA95FD";
shapes = (
{
closed = 1;
nodes = (
(140,786,l),
(120,298,l),
(120,-200,l),
(306,-200,l),
(306,298,l),
(284,786,l)
);
},
{
closed = 1;
nodes = (
(134,1126,o),
(110,1102,o),
(110,1024,cs),
(110,948,o),
(134,924,o),
(212,924,cs),
(290,924,o),
(314,948,o),
(314,1024,cs),
(314,1102,o),
(290,1126,o),
(212,1126,cs)
);
}
);
width = 424;
}
);
metricLeft = "=H";
metricRight = "=H";
unicode = 161;
},
{
glyphname = question;
lastChange = "2025-11-21 20:58:09 +0000";
layers = (
{
layerId = m004;
shapes = (
{
closed = 1;
nodes = (
(447,-12,o),
(461,0,o),
(461,46,cs),
(461,90,o),
(447,104,o),
(403,104,cs),
(359,104,o),
(345,90,o),
(345,46,cs),
(345,0,o),
(359,-12,o),
(403,-12,cs)
);
},
{
closed = 1;
nodes = (
(439,288,l),
(439,368,ls),
(439,486,o),
(533,562,o),
(577,600,cs),
(633,648,o),
(773,766,o),
(773,932,cs),
(773,1190,o),
(639,1336,o),
(421,1336,cs),
(197,1336,o),
(49,1190,o),
(49,912,c),
(125,912,l),
(125,1190,o),
(277,1272,o),
(421,1272,cs),
(553,1272,o),
(699,1190,o),
(699,932,cs),
(699,796,o),
(573,690,o),
(523,644,cs),
(475,600,o),
(371,522,o),
(371,406,cs),
(371,288,l)
);
}
);
width = 460;
},
{
layerId = m005;
shapes = (
{
closed = 1;
nodes = (
(447,-12,o),
(473,14,o),
(473,110,cs),
(473,206,o),
(447,232,o),
(351,232,cs),
(255,232,o),
(229,206,o),
(229,110,cs),
(229,14,o),
(255,-12,o),
(351,-12,cs)
);
},
{
closed = 1;
nodes = (
(449,308,l),
(449,368,ls),
(449,448,o),
(611,568,o),
(655,606,cs),
(711,654,o),
(831,722,o),
(831,938,cs),
(831,1236,o),
(637,1336,o),
(419,1336,cs),
(195,1336,o),
(19,1236,o),
(19,912,c),
(225,912,l),
(225,1060,o),
(281,1152,o),
(419,1154,cs),
(551,1156,o),
(609,1060,o),
(609,930,cs),
(609,844,o),
(515,750,o),
(471,710,cs),
(423,666,o),
(241,538,o),
(241,406,cs),
(241,308,l)
);
}
);
width = 444;
},
{
layerId = "1B8EDE0E-D46F-48F9-B9C6-2CD34FEA95FD";
shapes = (
{
closed = 1;
nodes = (
(439,-12,o),
(463,10,o),
(463,94,cs),
(463,178,o),
(439,200,o),
(357,200,cs),
(273,200,o),
(251,178,o),
(251,94,cs),
(251,10,o),
(273,-12,o),
(357,-12,cs)
);
},
{
closed = 1;
nodes = (
(439,304,l),
(439,368,ls),
(439,458,o),
(585,566,o),
(629,604,cs),
(685,652,o),
(809,734,o),
(809,936,cs),
(809,1224,o),
(631,1336,o),
(413,1336,cs),
(189,1336,o),
(19,1224,o),
(19,912,c),
(193,912,l),
(193,1092,o),
(273,1182,o),
(413,1184,cs),
(541,1184,o),
(625,1092,o),
(625,930,cs),
(625,832,o),
(523,736,o),
(477,694,cs),
(429,650,o),
(267,534,o),
(267,406,cs),
(267,304,l)
);
}
);
width = 433;
}
);
unicode = 63;
},
{
glyphname = questiondown;
lastChange = "2025-11-21 20:58:09 +0000";
layers = (
{
layerId = m004;
shapes = (
{
closed = 1;
nodes = (
(375,1136,o),
(361,1124,o),
(361,1078,cs),
(361,1034,o),
(375,1020,o),
(419,1020,cs),
(463,1020,o),
(477,1034,o),
(477,1078,cs),
(477,1124,o),
(463,1136,o),
(419,1136,cs)
);
},
{
closed = 1;
nodes = (
(383,836,l),
(383,756,ls),
(383,638,o),
(289,562,o),
(245,524,cs),
(189,476,o),
(49,358,o),
(49,192,cs),
(49,-66,o),
(183,-212,o),
(401,-212,cs),
(625,-212,o),
(773,-66,o),
(773,212,c),
(697,212,l),
(697,-66,o),
(545,-148,o),
(401,-148,cs),
(269,-148,o),
(123,-66,o),
(123,192,cs),
(123,328,o),
(249,434,o),
(299,480,cs),
(347,524,o),
(451,602,o),
(451,718,cs),
(451,836,l)
);
}
);
width = 460;
},
{
layerId = m005;
shapes = (
{
closed = 1;
nodes = (
(403,1137,o),
(377,1111,o),
(377,1015,cs),
(377,919,o),
(403,893,o),
(499,893,cs),
(595,893,o),
(621,919,o),
(621,1015,cs),
(621,1111,o),
(595,1137,o),
(499,1137,cs)
);
},
{
closed = 1;
nodes = (
(405,817,l),
(405,757,ls),
(405,677,o),
(233,557,o),
(195,519,cs),
(143,467,o),
(19,361,o),
(19,187,cs),
(19,-111,o),
(213,-211,o),
(431,-211,cs),
(655,-211,o),
(831,-111,o),
(831,213,c),
(625,213,l),
(625,45,o),
(549,-27,o),
(431,-29,cs),
(299,-31,o),
(241,45,o),
(241,195,cs),
(241,281,o),
(335,375,o),
(379,415,cs),
(427,459,o),
(609,587,o),
(609,719,cs),
(609,817,l)
);
}
);
width = 444;
},
{
layerId = "1B8EDE0E-D46F-48F9-B9C6-2CD34FEA95FD";
shapes = (
{
closed = 1;
nodes = (
(389,1137,o),
(365,1115,o),
(365,1031,cs),
(365,947,o),
(389,925,o),
(471,925,cs),
(555,925,o),
(577,947,o),
(577,1031,cs),
(577,1115,o),
(555,1137,o),
(471,1137,cs)
);
},
{
closed = 1;
nodes = (
(391,821,l),
(391,757,ls),
(391,667,o),
(239,557,o),
(201,521,cs),
(147,469,o),
(19,359,o),
(19,189,cs),
(19,-99,o),
(199,-211,o),
(417,-211,cs),
(641,-211,o),
(809,-99,o),
(809,213,c),
(635,213,l),
(635,17,o),
(541,-57,o),
(417,-59,cs),
(283,-61,o),
(205,17,o),
(205,193,cs),
(205,293,o),
(305,389,o),
(351,431,cs),
(399,475,o),
(563,591,o),
(563,719,cs),
(563,821,l)
);
}
);
width = 433;
}
);
unicode = 191;
},
{
glyphname = periodcentered;
lastChange = "2025-11-21 20:58:09 +0000";
layers = (
{
layerId = m004;
shapes = (
{
closed = 1;
nodes = (
(162,299,o),
(176,311,o),
(176,357,cs),
(176,401,o),
(162,415,o),
(118,415,cs),
(74,415,o),
(60,401,o),
(60,357,cs),
(60,311,o),
(74,299,o),
(118,299,cs)
);
}
);
width = 236;
},
{
layerId = m005;
shapes = (
{
closed = 1;
nodes = (
(255,275,o),
(283,307,o),
(283,407,cs),
(283,503,o),
(255,533,o),
(153,533,cs),
(51,533,o),
(23,503,o),
(23,407,cs),
(23,307,o),
(51,275,o),
(153,275,cs)
);
}
);
width = 306;
},
{
layerId = "1B8EDE0E-D46F-48F9-B9C6-2CD34FEA95FD";
shapes = (
{
closed = 1;
nodes = (
(205,281,o),
(249,327,o),
(249,395,cs),
(249,457,o),
(205,503,o),
(137,503,cs),
(69,503,o),
(25,457,o),
(25,395,cs),
(25,327,o),
(69,281,o),
(137,281,cs)
);
}
);
width = 274;
}
);
metricRight = "=|";
unicode = 183;
},
{
glyphname = bullet;
lastChange = "2025-11-21 20:58:09 +0000";
layers = (
{
layerId = m004;
shapes = (
{
closed = 1;
nodes = (
(266,268,o),
(300,304,o),
(300,380,cs),
(300,450,o),
(266,486,o),
(190,486,cs),
(112,486,o),
(80,450,o),
(80,380,cs),
(80,304,o),
(112,268,o),
(190,268,cs)
);
}
);
width = 380;
},
{
layerId = m005;
shapes = (
{
closed = 1;
nodes = (
(468,201,o),
(540,281,o),
(540,449,cs),
(540,611,o),
(468,687,o),
(296,687,cs),
(122,687,o),
(50,611,o),
(50,449,cs),
(50,281,o),
(122,201,o),
(296,201,cs)
);
}
);
width = 590;
},
{
layerId = "1B8EDE0E-D46F-48F9-B9C6-2CD34FEA95FD";
shapes = (
{
closed = 1;
nodes = (
(390,218,o),
(472,306,o),
(472,432,cs),
(472,558,o),
(390,646,o),
(262,646,cs),
(132,646,o),
(50,558,o),
(50,432,cs),
(50,306,o),
(132,218,o),
(262,218,cs)
);
}
);
width = 522;
}
);
metricRight = "=|";
unicode = 8226;
},
{
glyphname = asterisk;
lastChange = "2025-11-21 20:58:09 +0000";
layers = (
{
layerId = m004;
shapes = (
{
closed = 1;
nodes = (
(391,913,l),
(301,913,l),
(323,669,l),
(95,767,l),
(69,683,l),
(307,627,l),
(145,441,l),
(215,387,l),
(343,599,l),
(469,387,l),
(541,439,l),
(381,623,l),
(621,679,l),
(595,763,l),
(369,667,l)
);
}
);
width = 690;
},
{
layerId = m005;
shapes = (
{
closed = 1;
nodes = (
(383,931,l),
(245,931,l),
(265,713,l),
(63,799,l),
(19,665,l),
(235,619,l),
(89,451,l),
(203,371,l),
(315,559,l),
(427,369,l),
(541,451,l),
(395,617,l),
(609,665,l),
(567,799,l),
(365,711,l)
);
}
);
width = 628;
},
{
layerId = "1B8EDE0E-D46F-48F9-B9C6-2CD34FEA95FD";
shapes = (
{
closed = 1;
nodes = (
(378,927,l),
(252,927,l),
(272,703,l),
(64,791,l),
(24,669,l),
(246,621,l),
(96,449,l),
(198,375,l),
(314,569,l),
(430,373,l),
(534,449,l),
(384,619,l),
(604,669,l),
(566,791,l),
(358,701,l)
);
}
);
width = 628;
}
);
metricRight = "=|";
unicode = 42;
},
{
glyphname = numbersign;
lastChange = "2025-11-21 21:00:36 +0000";
layers = (
{
layerId = m004;
shapes = (
{
closed = 1;
nodes = (
(120,0,l),
(190,0,l),
(426,1300,l),
(356,1300,l)
);
},
{
closed = 1;
nodes = (
(600,0,l),
(670,0,l),
(906,1300,l),
(836,1300,l)
);
},
{
closed = 1;
nodes = (
(100,866,l),
(998,866,l),
(998,934,l),
(100,934,l)
);
},
{
closed = 1;
nodes = (
(40,406,l),
(938,406,l),
(938,472,l),
(40,472,l)
);
}
);
width = 1038;
},
{
layerId = m005;
shapes = (
{
closed = 1;
nodes = (
(120,0,l),
(304,0,l),
(540,1300,l),
(356,1300,l)
);
},
{
closed = 1;
nodes = (
(600,0,l),
(784,0,l),
(1020,1300,l),
(836,1300,l)
);
},
{
closed = 1;
nodes = (
(100,824,l),
(1098,824,l),
(1098,976,l),
(100,976,l)
);
},
{
closed = 1;
nodes = (
(40,364,l),
(1038,364,l),
(1038,516,l),
(40,516,l)
);
}
);
width = 1138;
},
{
layerId = "1B8EDE0E-D46F-48F9-B9C6-2CD34FEA95FD";
shapes = (
{
closed = 1;
nodes = (
(120,0,l),
(276,0,l),
(512,1300,l),
(356,1300,l)
);
},
{
closed = 1;
nodes = (
(600,0,l),
(756,0,l),
(992,1300,l),
(836,1300,l)
);
},
{
closed = 1;
nodes = (
(100,834,l),
(1074,834,l),
(1074,966,l),
(100,966,l)
);
},
{
closed = 1;
nodes = (
(40,374,l),
(1014,374,l),
(1014,504,l),
(40,504,l)
);
}
);
width = 1114;
}
);
metricLeft = "=40";
metricRight = "=|";
unicode = 35;
},
{
glyphname = slash;
lastChange = "2025-11-21 20:58:09 +0000";
layers = (
{
layerId = m004;
shapes = (
{
closed = 1;
nodes = (
(50,2,l),
(116,2,l),
(632,1398,l),
(566,1398,l)
);
}
);
width = 682;
},
{
layerId = m005;
shapes = (
{
closed = 1;
nodes = (
(20,-28,l),
(184,-28,l),
(700,1388,l),
(536,1388,l)
);
}
);
width = 720;
},
{
layerId = "1B8EDE0E-D46F-48F9-B9C6-2CD34FEA95FD";
shapes = (
{
closed = 1;
nodes = (
(20,-20,l),
(160,-20,l),
(676,1390,l),
(536,1390,l)
);
}
);
width = 696;
}
);
metricRight = "=|";
unicode = 47;
},
{
glyphname = backslash;
lastChange = "2025-11-21 20:58:09 +0000";
layers = (
{
layerId = m004;
shapes = (
{
closed = 1;
nodes = (
(50,1398,l),
(566,2,l),
(632,2,l),
(116,1398,l)
);
}
);
width = 682;
},
{
layerId = m005;
shapes = (
{
closed = 1;
nodes = (
(20,1388,l),
(536,-28,l),
(700,-28,l),
(184,1388,l)
);
}
);
width = 720;
},
{
layerId = "1B8EDE0E-D46F-48F9-B9C6-2CD34FEA95FD";
shapes = (
{
closed = 1;
nodes = (
(20,1390,l),
(536,-20,l),
(676,-20,l),
(160,1390,l)
);
}
);
width = 696;
}
);
metricRight = "=|";
unicode = 92;
},
{
glyphname = hyphen;
lastChange = "2025-11-21 20:58:47 +0000";
layers = (
{
layerId = m004;
shapes = (
{
closed = 1;
nodes = (
(50,410,l),
(672,410,l),
(672,482,l),
(50,482,l)
);
}
);
width = 722;
},
{
layerId = m005;
shapes = (
{
closed = 1;
nodes = (
(34,243,l),
(656,243,l),
(656,415,l),
(34,415,l)
);
}
);
width = 690;
},
{
layerId = "1B8EDE0E-D46F-48F9-B9C6-2CD34FEA95FD";
shapes = (
{
closed = 1;
nodes = (
(31,250,l),
(653,250,l),
(653,394,l),
(31,394,l)
);
}
);
width = 684;
}
);
metricRight = "=|";
unicode = 45;
},
{
glyphname = endash;
lastChange = "2025-11-21 20:58:09 +0000";
layers = (
{
layerId = m004;
shapes = (
{
closed = 1;
nodes = (
(50,272,l),
(772,272,l),
(772,332,l),
(50,332,l)
);
}
);
width = 822;
},
{
layerId = m005;
shapes = (
{
closed = 1;
nodes = (
(34,243,l),
(928,243,l),
(928,415,l),
(34,415,l)
);
}
);
width = 962;
},
{
layerId = "1B8EDE0E-D46F-48F9-B9C6-2CD34FEA95FD";
shapes = (
{
closed = 1;
nodes = (
(31,250,l),
(881,250,l),
(881,394,l),
(31,394,l)
);
}
);
width = 912;
}
);
metricRight = "=|";
unicode = 8211;
},
{
glyphname = emdash;
lastChange = "2025-11-21 20:58:09 +0000";
layers = (
{
layerId = m004;
shapes = (
{
closed = 1;
nodes = (
(50,272,l),
(1370,272,l),
(1370,332,l),
(50,332,l)
);
}
);
width = 1420;
},
{
layerId = m005;
shapes = (
{
closed = 1;
nodes = (
(34,243,l),
(1464,243,l),
(1464,415,l),
(34,415,l)
);
}
);
width = 1498;
},
{
layerId = "1B8EDE0E-D46F-48F9-B9C6-2CD34FEA95FD";
shapes = (
{
closed = 1;
nodes = (
(31,250,l),
(1433,250,l),
(1433,394,l),
(31,394,l)
);
}
);
width = 1464;
}
);
metricRight = "=|";
unicode = 8212;
},
{
glyphname = underscore;
lastChange = "2025-11-21 20:58:09 +0000";
layers = (
{
layerId = m004;
shapes = (
{
closed = 1;
nodes = (
(50,-200,l),
(772,-200,l),
(772,-140,l),
(50,-140,l)
);
}
);
width = 822;
},
{
layerId = m005;
shapes = (
{
closed = 1;
nodes = (
(-2,-200,l),
(892,-200,l),
(892,-28,l),
(-2,-28,l)
);
}
);
width = 890;
},
{
layerId = "1B8EDE0E-D46F-48F9-B9C6-2CD34FEA95FD";
shapes = (
{
closed = 1;
nodes = (
(4,-200,l),
(854,-200,l),
(854,-56,l),
(4,-56,l)
);
}
);
width = 858;
}
);
metricRight = "=|";
unicode = 95;
},
{
glyphname = parenleft;
lastChange = "2025-11-21 20:58:09 +0000";
layers = (
{
layerId = m004;
shapes = (
{
closed = 1;
nodes = (
(200,314,o),
(378,20,o),
(502,-178,c),
(554,-134,l),
(438,34,o),
(272,350,o),
(272,728,cs),
(272,1106,o),
(438,1422,o),
(554,1590,c),
(502,1634,l),
(378,1436,o),
(200,1142,o),
(200,728,cs)
);
}
);
width = 463;
},
{
layerId = m005;
shapes = (
{
closed = 1;
nodes = (
(65,314,o),
(243,20,o),
(367,-178,c),
(545,-64,l),
(425,120,o),
(277,350,o),
(277,728,cs),
(277,1106,o),
(425,1336,o),
(545,1520,c),
(367,1634,l),
(243,1436,o),
(65,1142,o),
(65,728,cs)
);
}
);
width = 354;
},
{
layerId = "1B8EDE0E-D46F-48F9-B9C6-2CD34FEA95FD";
shapes = (
{
closed = 1;
nodes = (
(110,314,o),
(288,20,o),
(412,-178,c),
(560,-82,l),
(442,96,o),
(288,350,o),
(288,728,cs),
(288,1106,o),
(442,1360,o),
(560,1538,c),
(412,1634,l),
(288,1436,o),
(110,1142,o),
(110,728,cs)
);
}
);
width = 385;
}
);
metricLeft = "=H";
unicode = 40;
},
{
glyphname = parenright;
lastChange = "2025-11-21 20:58:09 +0000";
layers = (
{
layerId = m004;
shapes = (
{
closed = 1;
nodes = (
(452,1142,o),
(274,1436,o),
(150,1634,c),
(98,1590,l),
(214,1422,o),
(380,1106,o),
(380,728,cs),
(380,350,o),
(214,34,o),
(98,-134,c),
(150,-178,l),
(274,20,o),
(452,314,o),
(452,728,cs)
);
}
);
width = 652;
},
{
layerId = m005;
shapes = (
{
closed = 1;
nodes = (
(548,1142,o),
(370,1436,o),
(246,1634,c),
(68,1520,l),
(188,1336,o),
(336,1106,o),
(336,728,cs),
(336,350,o),
(188,120,o),
(68,-64,c),
(246,-178,l),
(370,20,o),
(548,314,o),
(548,728,cs)
);
}
);
width = 613;
},
{
layerId = "1B8EDE0E-D46F-48F9-B9C6-2CD34FEA95FD";
shapes = (
{
closed = 1;
nodes = (
(516,1142,o),
(338,1436,o),
(214,1634,c),
(68,1538,l),
(186,1360,o),
(340,1106,o),
(340,728,cs),
(340,350,o),
(186,96,o),
(68,-82,c),
(214,-178,l),
(338,20,o),
(516,314,o),
(516,728,cs)
);
}
);
width = 626;
}
);
metricRight = "=H";
unicode = 41;
},
{
glyphname = braceleft;
lastChange = "2025-11-21 20:58:09 +0000";
layers = (
{
layerId = m004;
shapes = (
{
closed = 1;
nodes = (
(488,-138,l),
(488,-78,l),
(458,-78,ls),
(398,-78,o),
(360,-66,o),
(360,48,cs),
(360,548,ls),
(360,674,o),
(308,714,o),
(194,714,cs),
(164,714,l),
(164,654,l),
(194,654,ls),
(254,654,o),
(292,642,o),
(292,528,cs),
(292,28,ls),
(292,-98,o),
(344,-138,o),
(458,-138,cs)
);
},
{
closed = 1;
nodes = (
(344,1560,o),
(292,1520,o),
(292,1394,cs),
(292,840,ls),
(292,726,o),
(254,714,o),
(194,714,cs),
(164,714,l),
(164,654,l),
(194,654,ls),
(306,654,o),
(360,694,o),
(360,820,cs),
(360,1374,ls),
(360,1488,o),
(398,1500,o),
(458,1500,cs),
(488,1500,l),
(488,1560,l),
(458,1560,ls)
);
}
);
width = 660;
},
{
layerId = m005;
shapes = (
{
closed = 1;
nodes = (
(696,-148,l),
(696,28,l),
(550,28,ls),
(484,28,o),
(464,58,o),
(464,110,cs),
(464,540,ls),
(464,714,o),
(306,764,o),
(226,764,cs),
(20,764,l),
(20,616,l),
(166,616,ls),
(232,616,o),
(252,572,o),
(252,520,cs),
(252,90,ls),
(252,-84,o),
(344,-148,o),
(490,-148,cs)
);
},
{
closed = 1;
nodes = (
(344,1550,o),
(252,1486,o),
(252,1312,cs),
(252,880,ls),
(252,828,o),
(232,784,o),
(166,784,cs),
(20,784,l),
(20,636,l),
(226,636,ls),
(306,636,o),
(464,686,o),
(464,860,cs),
(464,1292,ls),
(464,1344,o),
(484,1374,o),
(550,1374,cs),
(696,1374,l),
(696,1550,l),
(490,1550,ls)
);
}
);
width = 388;
},
{
layerId = "1B8EDE0E-D46F-48F9-B9C6-2CD34FEA95FD";
shapes = (
{
closed = 1;
nodes = (
(636,-145,l),
(636,1,l),
(520,1,ls),
(456,1,o),
(432,27,o),
(432,93,cs),
(432,541,ls),
(432,703,o),
(300,751,o),
(212,751,cs),
(48,751,l),
(48,625,l),
(166,625,ls),
(230,625,o),
(256,589,o),
(256,521,cs),
(256,73,ls),
(256,-89,o),
(338,-145,o),
(476,-145,cs)
);
},
{
closed = 1;
nodes = (
(338,1553,o),
(256,1495,o),
(256,1333,cs),
(256,869,ls),
(256,801,o),
(230,767,o),
(166,767,cs),
(48,767,l),
(48,639,l),
(212,639,ls),
(300,639,o),
(432,687,o),
(432,849,cs),
(432,1313,ls),
(432,1379,o),
(456,1405,o),
(520,1405,cs),
(636,1405,l),
(636,1553,l),
(476,1553,ls)
);
}
);
width = 441;
}
);
unicode = 123;
},
{
glyphname = braceright;
lastChange = "2025-11-21 20:58:09 +0000";
layers = (
{
layerId = m004;
shapes = (
{
closed = 1;
nodes = (
(308,-148,o),
(360,-108,o),
(360,18,cs),
(360,538,ls),
(360,652,o),
(398,664,o),
(458,664,cs),
(488,664,l),
(488,724,l),
(458,724,ls),
(344,724,o),
(292,684,o),
(292,558,cs),
(292,38,ls),
(292,-76,o),
(254,-88,o),
(194,-88,cs),
(164,-88,l),
(164,-148,l),
(194,-148,ls)
);
},
{
closed = 1;
nodes = (
(164,1570,l),
(164,1510,l),
(194,1510,ls),
(254,1510,o),
(292,1498,o),
(292,1384,cs),
(292,830,ls),
(292,704,o),
(346,664,o),
(458,664,cs),
(488,664,l),
(488,724,l),
(458,724,ls),
(398,724,o),
(360,736,o),
(360,850,cs),
(360,1404,ls),
(360,1530,o),
(308,1570,o),
(194,1570,cs)
);
}
);
width = 660;
},
{
layerId = m005;
shapes = (
{
closed = 1;
nodes = (
(382,-148,o),
(474,-84,o),
(474,90,cs),
(474,520,ls),
(474,572,o),
(494,616,o),
(560,616,cs),
(706,616,l),
(706,764,l),
(500,764,ls),
(420,764,o),
(262,714,o),
(262,540,cs),
(262,110,ls),
(262,58,o),
(242,28,o),
(176,28,cs),
(30,28,l),
(30,-148,l),
(236,-148,ls)
);
},
{
closed = 1;
nodes = (
(30,1550,l),
(30,1374,l),
(176,1374,ls),
(242,1374,o),
(262,1344,o),
(262,1292,cs),
(262,860,ls),
(262,686,o),
(420,636,o),
(500,636,cs),
(706,636,l),
(706,784,l),
(560,784,ls),
(494,784,o),
(474,828,o),
(474,880,cs),
(474,1312,ls),
(474,1486,o),
(382,1550,o),
(236,1550,cs)
);
}
);
width = 388;
},
{
layerId = "1B8EDE0E-D46F-48F9-B9C6-2CD34FEA95FD";
shapes = (
{
closed = 1;
nodes = (
(356,-148,o),
(438,-90,o),
(438,72,cs),
(438,524,ls),
(438,592,o),
(462,628,o),
(528,628,cs),
(644,628,l),
(644,754,l),
(482,754,ls),
(394,754,o),
(262,706,o),
(262,544,cs),
(262,92,ls),
(262,24,o),
(238,0,o),
(174,0,cs),
(56,0,l),
(56,-148,l),
(218,-148,ls)
);
},
{
closed = 1;
nodes = (
(56,1556,l),
(56,1408,l),
(174,1408,ls),
(238,1408,o),
(262,1382,o),
(262,1316,cs),
(262,852,ls),
(262,690,o),
(394,642,o),
(482,642,cs),
(644,642,l),
(644,770,l),
(528,770,ls),
(462,770,o),
(438,804,o),
(438,872,cs),
(438,1336,ls),
(438,1498,o),
(356,1556,o),
(218,1556,cs)
);
}
);
width = 441;
}
);
unicode = 125;
},
{
glyphname = bracketleft;
lastChange = "2025-11-21 20:58:09 +0000";
layers = (
{
background = {
shapes = (
{
closed = 1;
nodes = (
(268,-148,l),
(268,-60,l),
(205,-60,ls),
(172,-60,o),
(162,-45,o),
(162,-19,cs),
(162,572,ls),
(162,598,o),
(172,613,o),
(205,613,cs),
(268,613,l),
(268,701,l),
(175,701,ls),
(102,701,o),
(56,669,o),
(56,582,cs),
(56,-29,ls),
(56,-116,o),
(102,-148,o),
(175,-148,cs)
);
}
);
};
layerId = m004;
shapes = (
{
closed = 1;
nodes = (
(396,-148,l),
(396,-88,l),
(366,-88,ls),
(306,-88,o),
(268,-76,o),
(268,38,cs),
(268,1364,ls),
(268,1478,o),
(306,1490,o),
(366,1490,cs),
(396,1490,l),
(396,1550,l),
(366,1550,ls),
(252,1550,o),
(200,1510,o),
(200,1384,cs),
(200,18,ls),
(200,-108,o),
(252,-148,o),
(366,-148,cs)
);
}
);
width = 338;
},
{
layerId = m005;
shapes = (
{
closed = 1;
nodes = (
(489,-148,l),
(489,28,l),
(363,28,ls),
(297,28,o),
(277,58,o),
(277,110,cs),
(277,1292,ls),
(277,1344,o),
(297,1374,o),
(363,1374,cs),
(489,1374,l),
(489,1550,l),
(303,1550,ls),
(157,1550,o),
(65,1486,o),
(65,1312,cs),
(65,90,ls),
(65,-84,o),
(157,-148,o),
(303,-148,cs)
);
}
);
width = 287;
},
{
layerId = "1B8EDE0E-D46F-48F9-B9C6-2CD34FEA95FD";
shapes = (
{
closed = 1;
nodes = (
(478,-148,l),
(478,0,l),
(376,0,ls),
(312,0,o),
(286,24,o),
(286,92,cs),
(286,1310,ls),
(286,1378,o),
(312,1402,o),
(376,1402,cs),
(478,1402,l),
(478,1550,l),
(330,1550,ls),
(192,1550,o),
(110,1492,o),
(110,1330,cs),
(110,72,ls),
(110,-90,o),
(192,-148,o),
(330,-148,cs)
);
}
);
width = 304;
}
);
metricLeft = "=H";
unicode = 91;
},
{
glyphname = bracketright;
lastChange = "2025-11-21 20:58:09 +0000";
layers = (
{
layerId = m004;
shapes = (
{
closed = 1;
nodes = (
(184,-148,o),
(236,-108,o),
(236,18,cs),
(236,1384,ls),
(236,1510,o),
(184,1550,o),
(70,1550,cs),
(40,1550,l),
(40,1490,l),
(70,1490,ls),
(130,1490,o),
(168,1478,o),
(168,1364,cs),
(168,38,ls),
(168,-76,o),
(130,-88,o),
(70,-88,cs),
(40,-88,l),
(40,-148,l),
(70,-148,ls)
);
}
);
width = 436;
},
{
layerId = m005;
shapes = (
{
closed = 1;
nodes = (
(342,-148,o),
(434,-84,o),
(434,90,cs),
(434,1312,ls),
(434,1486,o),
(342,1550,o),
(196,1550,cs),
(10,1550,l),
(10,1374,l),
(136,1374,ls),
(202,1374,o),
(222,1344,o),
(222,1292,cs),
(222,110,ls),
(222,58,o),
(202,28,o),
(136,28,cs),
(10,28,l),
(10,-148,l),
(196,-148,ls)
);
}
);
width = 499;
},
{
layerId = "1B8EDE0E-D46F-48F9-B9C6-2CD34FEA95FD";
shapes = (
{
closed = 1;
nodes = (
(296,-148,o),
(378,-90,o),
(378,72,cs),
(378,1330,ls),
(378,1492,o),
(296,1550,o),
(158,1550,cs),
(10,1550,l),
(10,1402,l),
(112,1402,ls),
(176,1402,o),
(200,1378,o),
(200,1310,cs),
(200,92,ls),
(200,24,o),
(176,0,o),
(112,0,cs),
(10,0,l),
(10,-148,l),
(158,-148,ls)
);
}
);
width = 488;
}
);
metricRight = "=H";
unicode = 93;
},
{
glyphname = quotesinglbase;
lastChange = "2025-11-21 20:58:09 +0000";
layers = (
{
layerId = m004;
shapes = (
{
closed = 1;
nodes = (
(156,-30,o),
(176,-4,o),
(176,72,cs),
(176,130,o),
(162,144,o),
(118,144,cs),
(74,144,o),
(60,130,o),
(60,86,cs),
(60,34,o),
(82,30,o),
(104,30,cs),
(112,30,o),
(118,32,o),
(124,34,c),
(124,14,o),
(118,-20,o),
(100,-48,c),
(144,-48,l)
);
}
);
width = 178;
},
{
layerId = m005;
shapes = (
{
closed = 1;
nodes = (
(239,-25,o),
(291,55,o),
(291,193,cs),
(291,331,o),
(261,361,o),
(157,361,cs),
(53,361,o),
(23,331,o),
(23,227,cs),
(23,103,o),
(73,93,o),
(125,93,cs),
(139,93,o),
(157,97,o),
(173,103,c),
(163,35,o),
(129,-5,o),
(89,-47,c),
(149,-117,l)
);
}
);
width = 187;
},
{
layerId = "1B8EDE0E-D46F-48F9-B9C6-2CD34FEA95FD";
shapes = (
{
closed = 1;
nodes = (
(213,-24,o),
(255,40,o),
(255,162,cs),
(255,280,o),
(229,308,o),
(139,308,cs),
(51,308,o),
(25,280,o),
(25,192,cs),
(25,86,o),
(67,78,o),
(111,78,cs),
(125,78,o),
(143,82,o),
(153,86,c),
(145,28,o),
(119,-8,o),
(83,-48,c),
(141,-100,l)
);
}
);
width = 170;
}
);
unicode = 8218;
},
{
glyphname = quoteleft;
lastChange = "2025-11-21 20:58:09 +0000";
layers = (
{
layerId = m004;
shapes = (
{
closed = 1;
nodes = (
(152,576,o),
(170,590,o),
(170,636,cs),
(170,688,o),
(148,692,o),
(124,692,cs),
(118,692,o),
(104,692,o),
(94,686,c),
(94,704,o),
(104,738,o),
(122,760,c),
(88,784,l),
(68,754,o),
(50,704,o),
(50,650,cs),
(50,590,o),
(68,576,o),
(110,576,cs)
);
}
);
width = 160;
},
{
layerId = m005;
shapes = (
{
closed = 1;
nodes = (
(258,472,o),
(288,502,o),
(288,606,cs),
(288,730,o),
(238,740,o),
(186,740,cs),
(172,740,o),
(154,736,o),
(138,730,c),
(148,798,o),
(182,838,o),
(222,880,c),
(162,950,l),
(72,858,o),
(20,778,o),
(20,640,cs),
(20,502,o),
(50,472,o),
(154,472,cs)
);
}
);
width = 169;
},
{
layerId = "1B8EDE0E-D46F-48F9-B9C6-2CD34FEA95FD";
shapes = (
{
closed = 1;
nodes = (
(224,498,o),
(252,524,o),
(252,614,cs),
(252,720,o),
(208,728,o),
(162,728,cs),
(150,728,o),
(134,726,o),
(120,720,c),
(128,776,o),
(156,814,o),
(190,850,c),
(136,908,l),
(64,832,o),
(20,760,o),
(20,642,cs),
(20,524,o),
(46,498,o),
(136,498,cs)
);
}
);
width = 152;
}
);
unicode = 8216;
},
{
glyphname = quoteright;
lastChange = "2025-11-21 20:58:09 +0000";
layers = (
{
layerId = m004;
shapes = (
{
closed = 1;
nodes = (
(152,606,o),
(170,656,o),
(170,710,cs),
(170,770,o),
(152,784,o),
(110,784,cs),
(68,784,o),
(50,770,o),
(50,724,cs),
(50,672,o),
(72,668,o),
(96,668,cs),
(102,668,o),
(116,668,o),
(126,674,c),
(126,656,o),
(116,622,o),
(98,600,c),
(132,576,l)
);
}
);
width = 160;
},
{
layerId = m005;
shapes = (
{
closed = 1;
nodes = (
(236,565,o),
(288,645,o),
(288,783,cs),
(288,921,o),
(258,951,o),
(154,951,cs),
(50,951,o),
(20,921,o),
(20,817,cs),
(20,693,o),
(70,683,o),
(122,683,cs),
(136,683,o),
(154,687,o),
(170,693,c),
(160,625,o),
(126,585,o),
(86,543,c),
(146,473,l)
);
}
);
width = 164;
},
{
layerId = "1B8EDE0E-D46F-48F9-B9C6-2CD34FEA95FD";
shapes = (
{
closed = 1;
nodes = (
(208,575,o),
(252,647,o),
(252,765,cs),
(252,883,o),
(224,909,o),
(136,909,cs),
(46,909,o),
(20,883,o),
(20,793,cs),
(20,687,o),
(64,679,o),
(108,679,cs),
(120,679,o),
(138,683,o),
(152,689,c),
(144,631,o),
(118,595,o),
(82,557,c),
(134,499,l)
);
}
);
width = 148;
}
);
unicode = 8217;
},
{
glyphname = guillemetleft;
lastChange = "2025-11-21 20:58:09 +0000";
layers = (
{
layerId = m004;
shapes = (
{
closed = 1;
nodes = (
(236,671,l),
(70,375,l),
(236,77,l),
(320,77,l),
(160,371,l),
(318,671,l)
);
},
{
closed = 1;
nodes = (
(444,671,l),
(278,375,l),
(444,77,l),
(528,77,l),
(368,371,l),
(526,671,l)
);
}
);
width = 369;
},
{
layerId = m005;
shapes = (
{
closed = 1;
nodes = (
(206,671,l),
(40,375,l),
(206,77,l),
(380,77,l),
(220,371,l),
(378,671,l)
);
},
{
closed = 1;
nodes = (
(546,671,l),
(380,375,l),
(546,77,l),
(720,77,l),
(560,371,l),
(718,671,l)
);
}
);
width = 420;
},
{
layerId = "1B8EDE0E-D46F-48F9-B9C6-2CD34FEA95FD";
shapes = (
{
closed = 1;
nodes = (
(206,671,l),
(40,375,l),
(206,77,l),
(358,77,l),
(198,371,l),
(356,671,l)
);
},
{
closed = 1;
nodes = (
(512,671,l),
(346,375,l),
(512,77,l),
(664,77,l),
(504,371,l),
(662,671,l)
);
}
);
width = 392;
}
);
unicode = 171;
},
{
glyphname = guillemetright;
lastChange = "2025-11-21 20:58:09 +0000";
layers = (
{
layerId = m004;
shapes = (
{
closed = 1;
nodes = (
(438,371,l),
(278,77,l),
(362,77,l),
(528,375,l),
(362,671,l),
(280,671,l)
);
},
{
closed = 1;
nodes = (
(230,371,l),
(70,77,l),
(154,77,l),
(320,375,l),
(154,671,l),
(72,671,l)
);
}
);
width = 369;
},
{
layerId = m005;
shapes = (
{
closed = 1;
nodes = (
(540,371,l),
(380,77,l),
(554,77,l),
(720,375,l),
(554,671,l),
(382,671,l)
);
},
{
closed = 1;
nodes = (
(200,371,l),
(40,77,l),
(214,77,l),
(380,375,l),
(214,671,l),
(42,671,l)
);
}
);
width = 420;
},
{
layerId = "1B8EDE0E-D46F-48F9-B9C6-2CD34FEA95FD";
shapes = (
{
closed = 1;
nodes = (
(506,371,l),
(346,77,l),
(498,77,l),
(664,375,l),
(498,671,l),
(348,671,l)
);
},
{
closed = 1;
nodes = (
(200,371,l),
(40,77,l),
(192,77,l),
(358,375,l),
(192,671,l),
(42,671,l)
);
}
);
width = 392;
}
);
unicode = 187;
},
{
glyphname = guilsinglleft;
lastChange = "2025-11-21 20:58:09 +0000";
layers = (
{
layerId = m004;
shapes = (
{
closed = 1;
nodes = (
(236,671,l),
(70,375,l),
(236,77,l),
(320,77,l),
(160,371,l),
(318,671,l)
);
}
);
width = 265;
},
{
layerId = m005;
shapes = (
{
closed = 1;
nodes = (
(206,671,l),
(40,375,l),
(206,77,l),
(380,77,l),
(220,371,l),
(378,671,l)
);
}
);
width = 250;
},
{
layerId = "1B8EDE0E-D46F-48F9-B9C6-2CD34FEA95FD";
shapes = (
{
closed = 1;
nodes = (
(206,671,l),
(40,375,l),
(206,77,l),
(358,77,l),
(198,371,l),
(356,671,l)
);
}
);
width = 239;
}
);
unicode = 8249;
},
{
glyphname = guilsinglright;
lastChange = "2025-11-21 20:58:09 +0000";
layers = (
{
layerId = m004;
shapes = (
{
closed = 1;
nodes = (
(230,371,l),
(70,77,l),
(154,77,l),
(320,375,l),
(154,671,l),
(72,671,l)
);
}
);
width = 265;
},
{
layerId = m005;
shapes = (
{
closed = 1;
nodes = (
(200,371,l),
(40,77,l),
(214,77,l),
(380,375,l),
(214,671,l),
(42,671,l)
);
}
);
width = 250;
},
{
layerId = "1B8EDE0E-D46F-48F9-B9C6-2CD34FEA95FD";
shapes = (
{
closed = 1;
nodes = (
(200,371,l),
(40,77,l),
(192,77,l),
(358,375,l),
(192,671,l),
(42,671,l)
);
}
);
width = 239;
}
);
unicode = 8250;
},
{
glyphname = quotedbl;
lastChange = "2025-11-21 20:58:09 +0000";
layers = (
{
layerId = m004;
shapes = (
{
closed = 1;
nodes = (
(182,520,l),
(206,840,l),
(102,840,l),
(126,520,l)
);
},
{
closed = 1;
nodes = (
(410,520,l),
(434,840,l),
(330,840,l),
(354,520,l)
);
}
);
width = 536;
},
{
layerId = m005;
shapes = (
{
closed = 1;
nodes = (
(252,460,l),
(276,900,l),
(72,900,l),
(96,460,l)
);
},
{
closed = 1;
nodes = (
(540,460,l),
(564,900,l),
(360,900,l),
(384,460,l)
);
}
);
width = 636;
},
{
layerId = "1B8EDE0E-D46F-48F9-B9C6-2CD34FEA95FD";
shapes = (
{
closed = 1;
nodes = (
(228,475,l),
(252,885,l),
(72,885,l),
(96,475,l)
);
},
{
closed = 1;
nodes = (
(500,475,l),
(524,885,l),
(346,885,l),
(370,475,l)
);
}
);
width = 596;
}
);
metricRight = "=|";
unicode = 34;
},
{
glyphname = quotesingle;
lastChange = "2025-11-21 21:37:28 +0000";
layers = (
{
layerId = m004;
shapes = (
{
closed = 1;
nodes = (
(161,970,l),
(182,1300,l),
(82,1300,l),
(103,970,l)
);
}
);
width = 264;
},
{
layerId = m005;
shapes = (
{
closed = 1;
nodes = (
(318,850,l),
(352,1300,l),
(72,1300,l),
(106,850,l)
);
}
);
width = 424;
},
{
layerId = "1B8EDE0E-D46F-48F9-B9C6-2CD34FEA95FD";
shapes = (
{
closed = 1;
nodes = (
(228,970,l),
(262,1300,l),
(72,1300,l),
(106,970,l)
);
}
);
width = 334;
}
);
metricRight = "=|";
unicode = 39;
},
{
glyphname = at;
lastChange = "2025-11-21 20:58:09 +0000";
layers = (
{
layerId = m004;
shapes = (
{
closed = 1;
nodes = (
(1219,247,o),
(1145,187,o),
(1077,187,cs),
(981,187,o),
(899,247,o),
(917,387,cs),
(989,957,l),
(927,957,l),
(915,869,l),
(857,961,o),
(793,975,o),
(727,975,cs),
(565,975,o),
(419,911,o),
(383,613,cs),
(349,329,o),
(459,257,o),
(637,257,cs),
(723,257,o),
(795,281,o),
(849,379,c),
(849,379,l),
(835,235,o),
(933,123,o),
(1067,123,cs),
(1163,123,o),
(1299,197,o),
(1357,347,cs),
(1389,427,o),
(1407,517,o),
(1407,617,cs),
(1407,1029,o),
(1167,1289,o),
(735,1289,cs),
(301,1289,o),
(61,1029,o),
(61,617,cs),
(61,203,o),
(301,-57,o),
(817,-57,c),
(817,5,l),
(361,5,o),
(129,243,o),
(129,617,cs),
(129,989,o),
(361,1227,o),
(735,1227,cs),
(1107,1227,o),
(1339,969,o),
(1339,617,cs),
(1339,515,o),
(1317,409,o),
(1271,333,cs)
);
},
{
closed = 1;
nodes = (
(499,325,o),
(413,365,o),
(445,613,cs),
(479,875,o),
(573,919,o),
(695,919,cs),
(807,919,o),
(899,895,o),
(863,613,cs),
(831,365,o),
(733,325,o),
(621,325,cs)
);
}
);
width = 1468;
},
{
layerId = m005;
shapes = (
{
closed = 1;
nodes = (
(1165,257,o),
(1101,217,o),
(1049,217,cs),
(993,217,o),
(931,263,o),
(941,339,cs),
(1019,957,l),
(897,957,l),
(873,919,l),
(827,961,o),
(763,975,o),
(697,975,cs),
(535,975,o),
(389,911,o),
(353,613,cs),
(319,329,o),
(429,257,o),
(607,257,cs),
(693,257,o),
(765,281,o),
(819,339,c),
(821,339,l),
(807,195,o),
(903,123,o),
(1037,123,cs),
(1133,123,o),
(1269,197,o),
(1327,347,cs),
(1359,427,o),
(1377,517,o),
(1377,617,cs),
(1377,1029,o),
(1117,1289,o),
(705,1289,cs),
(291,1289,o),
(31,1029,o),
(31,617,cs),
(31,203,o),
(291,-57,o),
(787,-57,c),
(787,31,l),
(351,31,o),
(139,263,o),
(139,617,cs),
(139,969,o),
(351,1181,o),
(705,1181,cs),
(1057,1181,o),
(1269,969,o),
(1269,617,cs),
(1269,515,o),
(1247,423,o),
(1209,347,cs)
);
},
{
closed = 1;
nodes = (
(555,387,o),
(487,419,o),
(513,613,cs),
(539,819,o),
(613,845,o),
(709,845,cs),
(797,845,o),
(869,819,o),
(841,613,cs),
(819,451,o),
(739,387,o),
(651,387,cs)
);
}
);
width = 1408;
},
{
layerId = "1B8EDE0E-D46F-48F9-B9C6-2CD34FEA95FD";
shapes = (
{
closed = 1;
nodes = (
(1171,255,o),
(1105,209,o),
(1049,209,cs),
(983,209,o),
(915,261,o),
(927,351,cs),
(1005,957,l),
(897,957,l),
(877,907,l),
(827,961,o),
(763,975,o),
(697,975,cs),
(535,975,o),
(389,911,o),
(353,613,cs),
(319,329,o),
(429,257,o),
(607,257,cs),
(693,257,o),
(765,281,o),
(819,349,c),
(821,349,l),
(807,205,o),
(903,123,o),
(1037,123,cs),
(1133,123,o),
(1269,197,o),
(1327,347,cs),
(1359,427,o),
(1377,517,o),
(1377,617,cs),
(1377,1029,o),
(1123,1289,o),
(705,1289,cs),
(287,1289,o),
(31,1029,o),
(31,617,cs),
(31,203,o),
(287,-57,o),
(787,-57,c),
(787,25,l),
(347,25,o),
(129,259,o),
(129,617,cs),
(129,975,o),
(347,1193,o),
(705,1193,cs),
(1063,1193,o),
(1279,969,o),
(1279,617,cs),
(1279,515,o),
(1257,419,o),
(1217,343,cs)
);
},
{
closed = 1;
nodes = (
(533,371,o),
(461,405,o),
(489,613,cs),
(517,831,o),
(595,863,o),
(697,863,cs),
(793,863,o),
(869,839,o),
(839,613,cs),
(815,431,o),
(731,371,o),
(637,371,cs)
);
}
);
width = 1408;
}
);
metricRight = "=|";
unicode = 64;
},
{
glyphname = ampersand;
lastChange = "2025-11-21 20:58:09 +0000";
layers = (
{
layerId = m004;
shapes = (
{
closed = 1;
nodes = (
(778,-16,o),
(954,98,o),
(956,380,cs),
(956,698,l),
(1010,698,l),
(1010,762,l),
(520,762,ls),
(306,762,o),
(234,864,o),
(234,1014,cs),
(234,1162,o),
(304,1284,o),
(520,1284,cs),
(736,1284,o),
(806,1162,o),
(806,1014,c),
(878,1014,l),
(878,1220,o),
(738,1348,o),
(520,1348,cs),
(302,1348,o),
(162,1220,o),
(162,1018,cs),
(162,884,o),
(210,780,o),
(330,730,c),
(194,676,o),
(120,554,o),
(120,364,cs),
(120,100,o),
(284,-16,o),
(520,-16,cs)
);
},
{
closed = 1;
nodes = (
(296,48,o),
(192,152,o),
(192,360,cs),
(192,568,o),
(276,696,o),
(518,698,cs),
(884,698,l),
(884,380,ls),
(884,152,o),
(756,48,o),
(520,48,cs)
);
}
);
width = 1130;
},
{
layerId = m005;
shapes = (
{
closed = 1;
nodes = (
(834,-12,o),
(1002,126,o),
(1002,408,cs),
(1002,640,l),
(1084,640,l),
(1084,822,l),
(506,822,ls),
(396,822,o),
(332,892,o),
(332,982,cs),
(332,1080,o),
(376,1160,o),
(506,1160,cs),
(636,1160,o),
(680,1080,o),
(680,982,cs),
(902,980,l),
(902,1220,o),
(742,1342,o),
(506,1342,cs),
(270,1342,o),
(110,1214,o),
(110,992,cs),
(110,886,o),
(150,802,o),
(216,742,c),
(114,672,o),
(50,556,o),
(50,398,cs),
(50,116,o),
(230,-12,o),
(506,-12,cs)
);
},
{
closed = 1;
nodes = (
(356,170,o),
(272,260,o),
(272,408,cs),
(272,552,o),
(336,640,o),
(506,640,cs),
(780,640,l),
(780,408,ls),
(780,260,o),
(708,170,o),
(506,170,cs)
);
}
);
width = 1134;
},
{
layerId = "1B8EDE0E-D46F-48F9-B9C6-2CD34FEA95FD";
shapes = (
{
closed = 1;
nodes = (
(815,-13,o),
(985,121,o),
(985,401,cs),
(985,655,l),
(1061,655,l),
(1061,807,l),
(505,807,ls),
(367,807,o),
(301,885,o),
(301,989,cs),
(301,1101,o),
(353,1191,o),
(505,1191,cs),
(655,1191,o),
(707,1101,o),
(707,989,c),
(891,989,l),
(891,1219,o),
(735,1343,o),
(505,1343,cs),
(273,1343,o),
(117,1215,o),
(117,999,cs),
(117,885,o),
(159,797,o),
(239,739,c),
(129,673,o),
(61,555,o),
(61,389,cs),
(61,113,o),
(239,-13,o),
(505,-13,cs)
);
},
{
closed = 1;
nodes = (
(335,139,o),
(247,233,o),
(247,395,cs),
(247,557,o),
(317,655,o),
(503,655,cs),
(801,655,l),
(801,401,ls),
(801,233,o),
(715,139,o),
(505,139,cs)
);
}
);
width = 600;
}
);
unicode = 38;
},
{
glyphname = copyright;
lastChange = "2025-11-21 20:58:09 +0000";
layers = (
{
layerId = m004;
shapes = (
{
closed = 1;
nodes = (
(1107,-11,o),
(1407,289,o),
(1407,663,cs),
(1407,1035,o),
(1107,1335,o),
(735,1335,cs),
(361,1335,o),
(61,1035,o),
(61,663,cs),
(61,289,o),
(361,-11,o),
(735,-11,cs)
);
},
{
closed = 1;
nodes = (
(397,57,o),
(129,325,o),
(129,663,cs),
(129,999,o),
(397,1267,o),
(735,1267,cs),
(1071,1267,o),
(1339,999,o),
(1339,663,cs),
(1339,325,o),
(1071,57,o),
(735,57,cs)
);
},
{
closed = 1;
nodes = (
(897,297,o),
(1013,377,o),
(1017,525,c),
(957,525,l),
(951,413,o),
(869,357,o),
(733,357,cs),
(617,357,o),
(497,447,o),
(497,661,cs),
(497,881,o),
(617,965,o),
(733,965,cs),
(869,965,o),
(951,909,o),
(957,797,c),
(1017,797,l),
(1013,945,o),
(897,1025,o),
(733,1025,cs),
(577,1025,o),
(431,921,o),
(431,661,cs),
(431,407,o),
(575,297,o),
(733,297,cs)
);
}
);
width = 1468;
},
{
layerId = m005;
shapes = (
{
closed = 1;
nodes = (
(1077,-11,o),
(1377,289,o),
(1377,663,cs),
(1377,1035,o),
(1077,1335,o),
(705,1335,cs),
(331,1335,o),
(31,1035,o),
(31,663,cs),
(31,289,o),
(331,-11,o),
(705,-11,cs)
);
},
{
closed = 1;
nodes = (
(405,121,o),
(163,363,o),
(163,663,cs),
(163,961,o),
(405,1203,o),
(705,1203,cs),
(1003,1203,o),
(1245,961,o),
(1245,663,cs),
(1245,363,o),
(1003,121,o),
(705,121,cs)
);
},
{
closed = 1;
nodes = (
(837,271,o),
(1015,319,o),
(1015,537,c),
(857,537,l),
(857,435,o),
(791,415,o),
(705,415,cs),
(593,415,o),
(535,489,o),
(535,661,cs),
(535,835,o),
(593,905,o),
(705,905,cs),
(791,905,o),
(857,871,o),
(857,787,c),
(1015,787,l),
(1015,987,o),
(837,1053,o),
(705,1053,cs),
(503,1047,o),
(359,939,o),
(359,661,cs),
(359,383,o),
(503,271,o),
(705,271,cs)
);
}
);
width = 1408;
},
{
layerId = "1B8EDE0E-D46F-48F9-B9C6-2CD34FEA95FD";
shapes = (
{
closed = 1;
nodes = (
(1077,-11,o),
(1377,289,o),
(1377,663,cs),
(1377,1035,o),
(1077,1335,o),
(705,1335,cs),
(331,1335,o),
(31,1035,o),
(31,663,cs),
(31,289,o),
(331,-11,o),
(705,-11,cs)
);
},
{
closed = 1;
nodes = (
(395,105,o),
(147,353,o),
(147,663,cs),
(147,971,o),
(395,1219,o),
(705,1219,cs),
(1013,1219,o),
(1261,971,o),
(1261,663,cs),
(1261,353,o),
(1013,105,o),
(705,105,cs)
);
},
{
closed = 1;
nodes = (
(845,277,o),
(1007,331,o),
(1009,533,c),
(875,533,l),
(873,429,o),
(803,401,o),
(705,401,cs),
(591,401,o),
(519,479,o),
(519,661,cs),
(519,847,o),
(591,921,o),
(705,921,cs),
(803,921,o),
(873,879,o),
(875,789,c),
(1009,789,l),
(1007,979,o),
(845,1047,o),
(705,1047,cs),
(511,1041,o),
(369,935,o),
(369,661,cs),
(369,389,o),
(513,277,o),
(705,277,cs)
);
}
);
width = 1408;
}
);
metricRight = "=|";
unicode = 169;
},
{
glyphname = registered;
lastChange = "2025-11-21 20:58:09 +0000";
layers = (
{
layerId = m004;
shapes = (
{
closed = 1;
nodes = (
(677,266,o),
(853,442,o),
(853,662,cs),
(853,882,o),
(677,1058,o),
(457,1058,cs),
(237,1058,o),
(61,882,o),
(61,662,cs),
(61,442,o),
(237,266,o),
(457,266,cs)
);
},
{
closed = 1;
nodes = (
(265,316,o),
(109,470,o),
(109,662,cs),
(109,854,o),
(265,1010,o),
(457,1010,cs),
(649,1010,o),
(803,854,o),
(803,662,cs),
(803,470,o),
(649,316,o),
(457,316,cs)
);
},
{
closed = 1;
nodes = (
(379,494,l),
(379,648,l),
(469,648,l),
(541,494,l),
(587,494,l),
(513,652,l),
(555,660,o),
(579,690,o),
(579,750,cs),
(579,834,o),
(539,854,o),
(481,854,cs),
(337,854,l),
(337,494,l)
);
},
{
closed = 1;
nodes = (
(379,816,l),
(485,816,ls),
(517,816,o),
(541,802,o),
(541,750,cs),
(541,700,o),
(517,686,o),
(485,686,cs),
(379,686,l)
);
}
);
width = 914;
},
{
layerId = m005;
shapes = (
{
closed = 1;
nodes = (
(647,266,o),
(823,442,o),
(823,662,cs),
(823,882,o),
(647,1058,o),
(427,1058,cs),
(207,1058,o),
(31,882,o),
(31,662,cs),
(31,442,o),
(207,266,o),
(427,266,cs)
);
},
{
closed = 1;
nodes = (
(249,342,o),
(105,484,o),
(105,662,cs),
(105,840,o),
(249,984,o),
(427,984,cs),
(605,984,o),
(747,840,o),
(747,662,cs),
(747,484,o),
(605,342,o),
(427,342,cs)
);
},
{
closed = 1;
nodes = (
(371,494,l),
(371,638,l),
(427,638,l),
(497,494,l),
(573,494,l),
(501,644,l),
(539,656,o),
(569,686,o),
(569,750,cs),
(569,848,o),
(505,866,o),
(447,866,cs),
(303,866,l),
(303,494,l)
);
},
{
closed = 1;
nodes = (
(371,808,l),
(447,808,ls),
(475,808,o),
(497,798,o),
(497,750,cs),
(497,704,o),
(475,694,o),
(447,694,cs),
(371,694,l)
);
}
);
width = 854;
},
{
layerId = "1B8EDE0E-D46F-48F9-B9C6-2CD34FEA95FD";
shapes = (
{
closed = 1;
nodes = (
(647,266,o),
(823,442,o),
(823,662,cs),
(823,882,o),
(647,1058,o),
(427,1058,cs),
(207,1058,o),
(31,882,o),
(31,662,cs),
(31,442,o),
(207,266,o),
(427,266,cs)
);
},
{
closed = 1;
nodes = (
(245,336,o),
(99,480,o),
(99,662,cs),
(99,844,o),
(245,990,o),
(427,990,cs),
(609,990,o),
(753,844,o),
(753,662,cs),
(753,480,o),
(609,336,o),
(427,336,cs)
);
},
{
closed = 1;
nodes = (
(365,494,l),
(365,640,l),
(431,640,l),
(501,494,l),
(569,494,l),
(497,646,l),
(535,656,o),
(565,688,o),
(565,750,cs),
(565,844,o),
(507,862,o),
(449,862,cs),
(305,862,l),
(305,494,l)
);
},
{
closed = 1;
nodes = (
(365,810,l),
(449,810,ls),
(479,810,o),
(501,800,o),
(501,750,cs),
(501,702,o),
(479,692,o),
(449,692,cs),
(365,692,l)
);
}
);
width = 854;
}
);
metricRight = "=|";
unicode = 174;
},
{
glyphname = trademark;
lastChange = "2025-11-21 20:58:09 +0000";
layers = (
{
layerId = m004;
shapes = (
{
closed = 1;
nodes = (
(283,336,l),
(283,914,l),
(465,914,l),
(465,966,l),
(41,966,l),
(41,914,l),
(227,914,l),
(227,336,l)
);
},
{
closed = 1;
nodes = (
(599,334,l),
(599,940,l),
(559,938,l),
(829,334,l),
(841,334,l),
(1111,938,l),
(1071,940,l),
(1071,334,l),
(1125,334,l),
(1125,966,l),
(1071,966,l),
(805,372,l),
(865,372,l),
(599,966,l),
(547,966,l),
(547,334,l)
);
}
);
width = 824;
},
{
layerId = m005;
shapes = (
{
closed = 1;
nodes = (
(336,343,l),
(336,839,l),
(500,839,l),
(500,959,l),
(30,959,l),
(30,839,l),
(194,839,l),
(194,343,l)
);
},
{
closed = 1;
nodes = (
(718,341,l),
(718,823,l),
(662,755,l),
(866,341,l),
(968,341,l),
(1170,755,l),
(1114,823,l),
(1114,341,l),
(1236,341,l),
(1236,959,l),
(1126,959,l),
(864,403,l),
(974,403,l),
(706,959,l),
(596,959,l),
(596,341,l)
);
}
);
width = 810;
},
{
layerId = "1B8EDE0E-D46F-48F9-B9C6-2CD34FEA95FD";
shapes = (
{
closed = 1;
nodes = (
(315,341,l),
(315,857,l),
(483,857,l),
(483,961,l),
(25,961,l),
(25,857,l),
(195,857,l),
(195,341,l)
);
},
{
closed = 1;
nodes = (
(681,339,l),
(681,853,l),
(629,801,l),
(849,339,l),
(929,339,l),
(1149,801,l),
(1095,853,l),
(1095,339,l),
(1201,339,l),
(1201,961,l),
(1105,961,l),
(843,395,l),
(939,395,l),
(673,961,l),
(577,961,l),
(577,339,l)
);
}
);
width = 798;
}
);
unicode = 8482;
},
{
glyphname = second;
lastChange = "2025-11-21 20:58:09 +0000";
layers = (
{
layerId = m004;
shapes = (
{
closed = 1;
nodes = (
(210,460,l),
(334,900,l),
(190,900,l),
(114,460,l)
);
},
{
closed = 1;
nodes = (
(438,460,l),
(562,900,l),
(418,900,l),
(342,460,l)
);
}
);
width = 676;
},
{
layerId = m005;
shapes = (
{
closed = 1;
nodes = (
(240,460,l),
(364,900,l),
(160,900,l),
(84,460,l)
);
},
{
closed = 1;
nodes = (
(528,460,l),
(652,900,l),
(448,900,l),
(372,460,l)
);
}
);
width = 736;
},
{
layerId = "1B8EDE0E-D46F-48F9-B9C6-2CD34FEA95FD";
shapes = (
{
closed = 1;
nodes = (
(226,460,l),
(350,900,l),
(160,900,l),
(84,460,l)
);
},
{
closed = 1;
nodes = (
(498,460,l),
(622,900,l),
(434,900,l),
(358,460,l)
);
}
);
width = 706;
}
);
metricRight = "=|";
unicode = 8243;
},
{
glyphname = bar;
lastChange = "2025-11-21 20:58:09 +0000";
layers = (
{
layerId = m004;
shapes = (
{
closed = 1;
nodes = (
(114,1480,l),
(114,-120,l),
(186,-120,l),
(186,1480,l)
);
}
);
width = 300;
},
{
layerId = m005;
shapes = (
{
closed = 1;
nodes = (
(20,1478,l),
(20,-118,l),
(184,-118,l),
(184,1478,l)
);
}
);
width = 204;
},
{
layerId = "1B8EDE0E-D46F-48F9-B9C6-2CD34FEA95FD";
shapes = (
{
closed = 1;
nodes = (
(36,1479,l),
(36,-119,l),
(176,-119,l),
(176,1479,l)
);
}
);
width = 212;
}
);
metricRight = "=|";
unicode = 124;
},
{
glyphname = dollar;
lastChange = "2025-11-21 21:00:36 +0000";
layers = (
{
layerId = m004;
shapes = (
{
closed = 1;
nodes = (
(554,-82,l),
(554,1546,l),
(480,1546,l),
(480,-82,l)
);
},
{
ref = S;
}
);
width = 889;
},
{
background = {
shapes = (
{
closed = 1;
nodes = (
(402,-12,o),
(479,49,o),
(479,165,cs),
(479,268,o),
(425,311,o),
(291,381,cs),
(195,431,o),
(174,431,o),
(174,495,cs),
(174,552,o),
(198,567,o),
(261,567,cs),
(299,567,o),
(372,561,o),
(422,551,c),
(422,646,l),
(372,655,o),
(308,662,o),
(262,662,cs),
(165,662,o),
(74,624,o),
(74,496,cs),
(74,390,o),
(141,348,o),
(244,291,cs),
(364,225,o),
(379,220,o),
(379,165,cs),
(379,98,o),
(356,83,o),
(257,83,cs),
(220,83,o),
(147,85,o),
(97,95,c),
(97,0,l),
(147,-9,o),
(211,-12,o),
(257,-12,cs)
);
}
);
};
layerId = m005;
shapes = (
{
closed = 1;
nodes = (
(540,-82,l),
(540,1546,l),
(424,1546,l),
(424,-82,l)
);
},
{
ref = S;
}
);
width = 1014;
},
{
layerId = "1B8EDE0E-D46F-48F9-B9C6-2CD34FEA95FD";
shapes = (
{
closed = 1;
nodes = (
(536,-82,l),
(536,1546,l),
(430,1546,l),
(430,-82,l)
);
},
{
ref = S;
}
);
width = 960;
}
);
metricLeft = "=S";
metricRight = "=S";
unicode = 36;
},
{
glyphname = euro;
lastChange = "2025-11-21 20:58:09 +0000";
layers = (
{
layerId = m004;
shapes = (
{
closed = 1;
nodes = (
(840,-12,o),
(1026,158,o),
(1026,412,c),
(954,412,l),
(954,210,o),
(816,52,o),
(598,52,cs),
(376,52,o),
(198,262,o),
(198,662,cs),
(198,1062,o),
(376,1272,o),
(598,1272,cs),
(814,1272,o),
(954,1114,o),
(954,912,c),
(1026,912,l),
(1026,1166,o),
(840,1336,o),
(598,1336,cs),
(350,1336,o),
(120,1146,o),
(120,662,cs),
(120,178,o),
(350,-12,o),
(598,-12,cs)
);
},
{
closed = 1;
nodes = (
(60,722,l),
(750,722,l),
(750,786,l),
(60,786,l)
);
},
{
closed = 1;
nodes = (
(60,544,l),
(750,544,l),
(750,608,l),
(60,608,l)
);
}
);
width = 660;
},
{
layerId = m005;
shapes = (
{
closed = 1;
nodes = (
(898,-10,o),
(1172,98,o),
(1172,416,c),
(966,416,l),
(966,228,o),
(840,166,o),
(698,166,cs),
(468,166,o),
(358,336,o),
(358,662,cs),
(358,988,o),
(468,1158,o),
(698,1158,cs),
(836,1158,o),
(966,1098,o),
(966,908,c),
(1172,908,l),
(1172,1238,o),
(894,1334,o),
(678,1334,cs),
(368,1334,o),
(158,1136,o),
(158,662,cs),
(158,198,o),
(368,-10,o),
(678,-10,cs)
);
},
{
closed = 1;
nodes = (
(20,728,l),
(810,728,l),
(810,858,l),
(20,858,l)
);
},
{
closed = 1;
nodes = (
(20,468,l),
(810,468,l),
(810,598,l),
(20,598,l)
);
}
);
width = 654;
},
{
layerId = "1B8EDE0E-D46F-48F9-B9C6-2CD34FEA95FD";
shapes = (
{
closed = 1;
nodes = (
(875,-11,o),
(1127,113,o),
(1127,415,c),
(955,415,l),
(955,225,o),
(825,139,o),
(665,139,cs),
(437,139,o),
(311,319,o),
(311,663,cs),
(311,1007,o),
(437,1187,o),
(665,1187,cs),
(823,1187,o),
(955,1103,o),
(955,909,c),
(1127,909,l),
(1127,1221,o),
(873,1335,o),
(651,1335,cs),
(355,1335,o),
(141,1139,o),
(141,663,cs),
(141,193,o),
(355,-11,o),
(651,-11,cs)
);
},
{
closed = 1;
nodes = (
(23,727,l),
(787,727,l),
(787,841,l),
(23,841,l)
);
},
{
closed = 1;
nodes = (
(23,487,l),
(787,487,l),
(787,601,l),
(23,601,l)
);
}
);
width = 641;
}
);
unicode = 8364;
},
{
glyphname = sterling;
lastChange = "2025-11-21 20:58:09 +0000";
layers = (
{
layerId = m004;
shapes = (
{
closed = 1;
nodes = (
(789,0,l),
(789,64,l),
(175,64,l),
(259,180,o),
(337,260,o),
(277,426,cs),
(231,554,o),
(159,722,o),
(159,920,cs),
(159,1198,o),
(311,1260,o),
(423,1260,cs),
(547,1260,o),
(699,1198,o),
(699,900,c),
(775,900,l),
(775,1198,o),
(627,1324,o),
(423,1324,cs),
(225,1324,o),
(91,1198,o),
(91,920,cs),
(91,692,o),
(197,444,o),
(217,386,cs),
(257,280,o),
(163,166,o),
(55,34,c),
(55,0,l)
);
},
{
closed = 1;
nodes = (
(55,620,l),
(723,620,l),
(723,684,l),
(55,684,l)
);
}
);
width = 492;
},
{
layerId = m005;
shapes = (
{
closed = 1;
nodes = (
(924,0,l),
(924,190,l),
(426,190,l),
(512,272,o),
(698,382,o),
(466,618,cs),
(370,716,o),
(328,800,o),
(328,892,cs),
(328,1052,o),
(386,1136,o),
(518,1134,cs),
(636,1132,o),
(712,1052,o),
(712,900,c),
(918,900,l),
(918,1218,o),
(742,1324,o),
(518,1324,cs),
(300,1324,o),
(106,1218,o),
(106,900,cs),
(106,716,o),
(178,618,o),
(282,508,cs),
(460,318,o),
(194,254,o),
(70,132,c),
(70,0,l)
);
},
{
closed = 1;
nodes = (
(20,570,l),
(780,570,l),
(780,736,l),
(20,736,l)
);
}
);
width = 492;
},
{
layerId = "1B8EDE0E-D46F-48F9-B9C6-2CD34FEA95FD";
shapes = (
{
closed = 1;
nodes = (
(883,0,l),
(883,158,l),
(357,158,l),
(443,250,o),
(601,350,o),
(411,570,cs),
(327,676,o),
(279,780,o),
(279,898,cs),
(279,1088,o),
(359,1168,o),
(487,1166,cs),
(607,1164,o),
(701,1088,o),
(701,900,c),
(875,900,l),
(875,1214,o),
(707,1324,o),
(487,1324,cs),
(275,1324,o),
(95,1214,o),
(95,906,cs),
(95,710,o),
(175,576,o),
(259,478,cs),
(401,310,o),
(179,232,o),
(59,108,c),
(59,0,l)
);
},
{
closed = 1;
nodes = (
(21,582,l),
(759,582,l),
(759,722,l),
(21,722,l)
);
}
);
width = 477;
}
);
unicode = 163;
},
{
glyphname = plus;
lastChange = "2025-11-21 20:58:09 +0000";
layers = (
{
layerId = m004;
shapes = (
{
closed = 1;
nodes = (
(125,488,l),
(865,488,l),
(865,560,l),
(125,560,l)
);
},
{
closed = 1;
nodes = (
(459,894,l),
(459,154,l),
(531,154,l),
(531,894,l)
);
}
);
width = 990;
},
{
layerId = m005;
shapes = (
{
closed = 1;
nodes = (
(65,458,l),
(885,458,l),
(885,630,l),
(65,630,l)
);
},
{
closed = 1;
nodes = (
(389,954,l),
(389,134,l),
(561,134,l),
(561,954,l)
);
}
);
width = 950;
},
{
layerId = "1B8EDE0E-D46F-48F9-B9C6-2CD34FEA95FD";
shapes = (
{
closed = 1;
nodes = (
(73,465,l),
(873,465,l),
(873,613,l),
(73,613,l)
);
},
{
closed = 1;
nodes = (
(399,939,l),
(399,139,l),
(545,139,l),
(545,939,l)
);
}
);
width = 946;
}
);
metricRight = "=|";
unicode = 43;
},
{
glyphname = minus;
lastChange = "2025-11-21 20:58:09 +0000";
layers = (
{
layerId = m004;
shapes = (
{
closed = 1;
nodes = (
(125,321,l),
(865,321,l),
(865,393,l),
(125,393,l)
);
}
);
width = 990;
},
{
layerId = m005;
shapes = (
{
closed = 1;
nodes = (
(65,296,l),
(885,296,l),
(885,468,l),
(65,468,l)
);
}
);
width = 950;
},
{
layerId = "1B8EDE0E-D46F-48F9-B9C6-2CD34FEA95FD";
shapes = (
{
closed = 1;
nodes = (
(73,302,l),
(873,302,l),
(873,450,l),
(73,450,l)
);
}
);
width = 946;
}
);
metricRight = "=|";
unicode = 8722;
},
